<mxfile host="Electron" agent="Mozilla/5.0 (Windows NT 10.0; Win64; x64) AppleWebKit/537.36 (KHTML, like Gecko) draw.io/24.7.17 Chrome/128.0.6613.36 Electron/32.0.1 Safari/537.36" version="24.7.17" pages="2">
  <diagram id="S7CCVwJIP2eqgV5Q5oRR" name="ERD">
    <mxGraphModel dx="3306" dy="1242" grid="0" gridSize="10" guides="1" tooltips="1" connect="1" arrows="1" fold="1" page="0" pageScale="1" pageWidth="850" pageHeight="1100" background="#FFCCE6" math="0" shadow="1">
      <root>
        <mxCell id="0" />
        <mxCell id="1" parent="0" />
        <mxCell id="fagER213_k4sMGDuZytk-55" style="edgeStyle=orthogonalEdgeStyle;rounded=1;orthogonalLoop=1;jettySize=auto;html=1;exitX=0.75;exitY=1;exitDx=0;exitDy=0;entryX=0.5;entryY=0;entryDx=0;entryDy=0;fontSize=16;fontStyle=1;labelBackgroundColor=none;strokeColor=#457B9D;fontColor=default;" parent="1" source="fagER213_k4sMGDuZytk-7" target="fagER213_k4sMGDuZytk-37" edge="1">
          <mxGeometry relative="1" as="geometry">
            <mxPoint x="730" y="1160" as="targetPoint" />
          </mxGeometry>
        </mxCell>
        <mxCell id="fagER213_k4sMGDuZytk-131" value="make" style="edgeLabel;html=1;align=center;verticalAlign=middle;resizable=0;points=[];rounded=1;fontSize=16;fontStyle=1;labelBackgroundColor=none;fontColor=#1D3557;" parent="fagER213_k4sMGDuZytk-55" vertex="1" connectable="0">
          <mxGeometry x="0.064" y="2" relative="1" as="geometry">
            <mxPoint as="offset" />
          </mxGeometry>
        </mxCell>
        <mxCell id="fagER213_k4sMGDuZytk-103" style="edgeStyle=orthogonalEdgeStyle;rounded=1;orthogonalLoop=1;jettySize=auto;html=1;exitX=0.25;exitY=0;exitDx=0;exitDy=0;entryX=1;entryY=0.5;entryDx=0;entryDy=0;fontSize=16;fontStyle=1;labelBackgroundColor=none;strokeColor=#457B9D;fontColor=default;" parent="1" source="fagER213_k4sMGDuZytk-7" target="fagER213_k4sMGDuZytk-102" edge="1">
          <mxGeometry relative="1" as="geometry" />
        </mxCell>
        <mxCell id="ovktZgSDVKqZ9HrEGNSl-4" style="edgeStyle=orthogonalEdgeStyle;rounded=1;orthogonalLoop=1;jettySize=auto;html=1;exitX=1;exitY=0.75;exitDx=0;exitDy=0;entryX=0;entryY=0.75;entryDx=0;entryDy=0;strokeColor=#457B9D;fontColor=#1D3557;fillColor=#A8DADC;fontSize=16;fontStyle=1" parent="1" source="fagER213_k4sMGDuZytk-7" target="fagER213_k4sMGDuZytk-21" edge="1">
          <mxGeometry relative="1" as="geometry">
            <mxPoint x="900" y="937.5000000000002" as="sourcePoint" />
          </mxGeometry>
        </mxCell>
        <mxCell id="fagER213_k4sMGDuZytk-7" value="User" style="whiteSpace=wrap;html=1;aspect=fixed;labelBackgroundColor=none;rounded=1;fontSize=16;fontStyle=1;fillColor=#A8DADC;strokeColor=#457B9D;fontColor=#1D3557;" parent="1" vertex="1">
          <mxGeometry x="710" y="840" width="120" height="120" as="geometry" />
        </mxCell>
        <mxCell id="fagER213_k4sMGDuZytk-100" style="edgeStyle=orthogonalEdgeStyle;rounded=1;orthogonalLoop=1;jettySize=auto;html=1;exitX=0;exitY=0.75;exitDx=0;exitDy=0;entryX=0.5;entryY=0;entryDx=0;entryDy=0;fontSize=16;fontStyle=1;labelBackgroundColor=none;strokeColor=#457B9D;fontColor=default;" parent="1" source="fagER213_k4sMGDuZytk-11" target="fagER213_k4sMGDuZytk-98" edge="1">
          <mxGeometry relative="1" as="geometry" />
        </mxCell>
        <mxCell id="fagER213_k4sMGDuZytk-107" style="edgeStyle=orthogonalEdgeStyle;rounded=1;orthogonalLoop=1;jettySize=auto;html=1;exitX=0.5;exitY=0;exitDx=0;exitDy=0;entryX=0.5;entryY=1;entryDx=0;entryDy=0;fontSize=16;fontStyle=1;labelBackgroundColor=none;strokeColor=#457B9D;fontColor=default;" parent="1" source="fagER213_k4sMGDuZytk-11" target="fagER213_k4sMGDuZytk-14" edge="1">
          <mxGeometry relative="1" as="geometry" />
        </mxCell>
        <mxCell id="fagER213_k4sMGDuZytk-125" style="edgeStyle=orthogonalEdgeStyle;rounded=1;orthogonalLoop=1;jettySize=auto;html=1;exitX=0.5;exitY=0;exitDx=0;exitDy=0;entryX=0.5;entryY=1;entryDx=0;entryDy=0;fontSize=16;fontStyle=1;labelBackgroundColor=none;strokeColor=#457B9D;fontColor=default;" parent="1" source="fagER213_k4sMGDuZytk-11" target="fagER213_k4sMGDuZytk-124" edge="1">
          <mxGeometry relative="1" as="geometry">
            <Array as="points">
              <mxPoint x="80" y="730" />
              <mxPoint x="230" y="730" />
            </Array>
          </mxGeometry>
        </mxCell>
        <mxCell id="fagER213_k4sMGDuZytk-11" value="Vehicle" style="whiteSpace=wrap;html=1;aspect=fixed;labelBackgroundColor=none;rounded=1;fontSize=16;fontStyle=1;fillColor=#A8DADC;strokeColor=#457B9D;fontColor=#1D3557;" parent="1" vertex="1">
          <mxGeometry x="20" y="770" width="120" height="120" as="geometry" />
        </mxCell>
        <mxCell id="fagER213_k4sMGDuZytk-12" value="Vehicle&lt;div style=&quot;font-size: 16px;&quot;&gt;Brand&lt;/div&gt;" style="whiteSpace=wrap;html=1;aspect=fixed;labelBackgroundColor=none;rounded=1;fontSize=16;fontStyle=1;fillColor=#A8DADC;strokeColor=#457B9D;fontColor=#1D3557;" parent="1" vertex="1">
          <mxGeometry x="-130" y="535" width="120" height="120" as="geometry" />
        </mxCell>
        <mxCell id="fagER213_k4sMGDuZytk-14" value="Vehicle&lt;div style=&quot;font-size: 16px;&quot;&gt;Type&lt;/div&gt;" style="whiteSpace=wrap;html=1;aspect=fixed;labelBackgroundColor=none;rounded=1;fontSize=16;fontStyle=1;fillColor=#A8DADC;strokeColor=#457B9D;fontColor=#1D3557;" parent="1" vertex="1">
          <mxGeometry x="20" y="535" width="120" height="120" as="geometry" />
        </mxCell>
        <mxCell id="fagER213_k4sMGDuZytk-105" style="edgeStyle=orthogonalEdgeStyle;rounded=1;orthogonalLoop=1;jettySize=auto;html=1;exitX=0.5;exitY=0;exitDx=0;exitDy=0;entryX=0.5;entryY=1;entryDx=0;entryDy=0;fontSize=16;fontStyle=1;labelBackgroundColor=none;strokeColor=#457B9D;fontColor=default;" parent="1" source="fagER213_k4sMGDuZytk-16" target="fagER213_k4sMGDuZytk-102" edge="1">
          <mxGeometry relative="1" as="geometry">
            <Array as="points">
              <mxPoint x="-460" y="520" />
              <mxPoint x="60" y="520" />
            </Array>
          </mxGeometry>
        </mxCell>
        <mxCell id="fagER213_k4sMGDuZytk-16" value="Rental" style="whiteSpace=wrap;html=1;aspect=fixed;labelBackgroundColor=none;rounded=1;fontSize=16;fontStyle=1;fillColor=#A8DADC;strokeColor=#457B9D;fontColor=#1D3557;" parent="1" vertex="1">
          <mxGeometry x="-520" y="810" width="120" height="120" as="geometry" />
        </mxCell>
        <mxCell id="fagER213_k4sMGDuZytk-17" style="edgeStyle=none;rounded=1;orthogonalLoop=1;jettySize=auto;html=1;exitX=0.5;exitY=0;exitDx=0;exitDy=0;entryX=0.5;entryY=1;entryDx=0;entryDy=0;labelBackgroundColor=none;fontColor=default;fontSize=16;fontStyle=1;strokeColor=#457B9D;" parent="1" source="fagER213_k4sMGDuZytk-19" target="fagER213_k4sMGDuZytk-16" edge="1">
          <mxGeometry relative="1" as="geometry" />
        </mxCell>
        <mxCell id="fagER213_k4sMGDuZytk-19" value="Booking" style="whiteSpace=wrap;html=1;aspect=fixed;labelBackgroundColor=none;rounded=1;fontSize=16;fontStyle=1;fillColor=#A8DADC;strokeColor=#457B9D;fontColor=#1D3557;" parent="1" vertex="1">
          <mxGeometry x="-520" y="1206.25" width="120" height="120" as="geometry" />
        </mxCell>
        <mxCell id="fagER213_k4sMGDuZytk-21" value="Message" style="whiteSpace=wrap;html=1;aspect=fixed;labelBackgroundColor=none;rounded=1;fontSize=16;fontStyle=1;fillColor=#A8DADC;strokeColor=#457B9D;fontColor=#1D3557;" parent="1" vertex="1">
          <mxGeometry x="1120" y="840" width="120" height="120" as="geometry" />
        </mxCell>
        <mxCell id="fagER213_k4sMGDuZytk-22" value="Review" style="whiteSpace=wrap;html=1;aspect=fixed;labelBackgroundColor=none;rounded=1;fontSize=16;fontStyle=1;fillColor=#A8DADC;strokeColor=#457B9D;fontColor=#1D3557;" parent="1" vertex="1">
          <mxGeometry x="-460" y="376.25" width="120" height="120" as="geometry" />
        </mxCell>
        <mxCell id="fagER213_k4sMGDuZytk-23" value="Notification" style="whiteSpace=wrap;html=1;aspect=fixed;labelBackgroundColor=none;rounded=1;fontSize=16;fontStyle=1;fillColor=#A8DADC;strokeColor=#457B9D;fontColor=#1D3557;" parent="1" vertex="1">
          <mxGeometry x="1035" y="500" width="120" height="120" as="geometry" />
        </mxCell>
        <mxCell id="fagER213_k4sMGDuZytk-30" style="edgeStyle=none;rounded=1;orthogonalLoop=1;jettySize=auto;html=1;exitX=0.75;exitY=0;exitDx=0;exitDy=0;entryX=0.5;entryY=1;entryDx=0;entryDy=0;labelBackgroundColor=none;fontColor=default;fontSize=16;fontStyle=1;strokeColor=#457B9D;" parent="1" source="fagER213_k4sMGDuZytk-7" target="fagER213_k4sMGDuZytk-23" edge="1">
          <mxGeometry relative="1" as="geometry">
            <mxPoint x="770" y="840" as="sourcePoint" />
            <mxPoint x="1380" y="630" as="targetPoint" />
            <Array as="points">
              <mxPoint x="800" y="670" />
              <mxPoint x="1095" y="670" />
            </Array>
          </mxGeometry>
        </mxCell>
        <mxCell id="fagER213_k4sMGDuZytk-37" value="Report" style="whiteSpace=wrap;html=1;aspect=fixed;labelBackgroundColor=none;rounded=1;fontSize=16;fontStyle=1;fillColor=#A8DADC;strokeColor=#457B9D;fontColor=#1D3557;" parent="1" vertex="1">
          <mxGeometry x="1120" y="1200" width="120" height="120" as="geometry" />
        </mxCell>
        <mxCell id="fagER213_k4sMGDuZytk-92" style="edgeStyle=orthogonalEdgeStyle;rounded=1;orthogonalLoop=1;jettySize=auto;html=1;exitX=0.5;exitY=1;exitDx=0;exitDy=0;entryX=1;entryY=0.5;entryDx=0;entryDy=0;fontSize=16;fontStyle=1;labelBackgroundColor=none;strokeColor=#457B9D;fontColor=default;" parent="1" source="fagER213_k4sMGDuZytk-48" target="fagER213_k4sMGDuZytk-11" edge="1">
          <mxGeometry relative="1" as="geometry">
            <Array as="points">
              <mxPoint x="470" y="830" />
            </Array>
          </mxGeometry>
        </mxCell>
        <mxCell id="fagER213_k4sMGDuZytk-151" style="edgeStyle=orthogonalEdgeStyle;rounded=1;orthogonalLoop=1;jettySize=auto;html=1;exitX=1;exitY=0.5;exitDx=0;exitDy=0;entryX=0;entryY=0.25;entryDx=0;entryDy=0;labelBackgroundColor=none;strokeColor=#457B9D;fontColor=default;fontSize=16;fontStyle=1" parent="1" source="fagER213_k4sMGDuZytk-48" target="fagER213_k4sMGDuZytk-7" edge="1">
          <mxGeometry relative="1" as="geometry" />
        </mxCell>
        <mxCell id="fagER213_k4sMGDuZytk-48" value="Renter" style="whiteSpace=wrap;html=1;aspect=fixed;labelBackgroundColor=none;rounded=1;fontSize=16;fontStyle=1;fillColor=#A8DADC;strokeColor=#457B9D;fontColor=#1D3557;" parent="1" vertex="1">
          <mxGeometry x="410" y="640" width="120" height="120" as="geometry" />
        </mxCell>
        <mxCell id="fagER213_k4sMGDuZytk-99" style="edgeStyle=orthogonalEdgeStyle;rounded=1;orthogonalLoop=1;jettySize=auto;html=1;exitX=0;exitY=0.25;exitDx=0;exitDy=0;entryX=1;entryY=0.5;entryDx=0;entryDy=0;fontSize=16;fontStyle=1;labelBackgroundColor=none;strokeColor=#457B9D;fontColor=default;jumpStyle=arc;" parent="1" source="fagER213_k4sMGDuZytk-49" target="fagER213_k4sMGDuZytk-98" edge="1">
          <mxGeometry relative="1" as="geometry">
            <Array as="points">
              <mxPoint x="-200" y="1060" />
            </Array>
          </mxGeometry>
        </mxCell>
        <mxCell id="lEcwdQwQgI3dDtVDOoa7-12" style="edgeStyle=orthogonalEdgeStyle;rounded=1;orthogonalLoop=1;jettySize=auto;html=1;exitX=0.5;exitY=0;exitDx=0;exitDy=0;entryX=0.75;entryY=1;entryDx=0;entryDy=0;strokeColor=#457B9D;fontColor=default;fillColor=#A8DADC;fontSize=16;fontStyle=1;labelBackgroundColor=none;" parent="1" source="fagER213_k4sMGDuZytk-49" target="fagER213_k4sMGDuZytk-11" edge="1">
          <mxGeometry relative="1" as="geometry" />
        </mxCell>
        <mxCell id="fagER213_k4sMGDuZytk-49" value="Customer" style="whiteSpace=wrap;html=1;aspect=fixed;labelBackgroundColor=none;rounded=1;fontSize=16;fontStyle=1;fillColor=#A8DADC;strokeColor=#457B9D;fontColor=#1D3557;" parent="1" vertex="1">
          <mxGeometry x="330" y="1030" width="120" height="120" as="geometry" />
        </mxCell>
        <mxCell id="fagER213_k4sMGDuZytk-101" style="edgeStyle=orthogonalEdgeStyle;rounded=1;orthogonalLoop=1;jettySize=auto;html=1;exitX=0;exitY=0.5;exitDx=0;exitDy=0;entryX=1;entryY=0.5;entryDx=0;entryDy=0;fontSize=16;fontStyle=1;labelBackgroundColor=none;strokeColor=#457B9D;fontColor=default;" parent="1" source="fagER213_k4sMGDuZytk-98" target="fagER213_k4sMGDuZytk-19" edge="1">
          <mxGeometry relative="1" as="geometry" />
        </mxCell>
        <mxCell id="fagER213_k4sMGDuZytk-98" value="" style="rhombus;whiteSpace=wrap;html=1;labelBackgroundColor=none;rounded=1;fontSize=16;fontStyle=1;fillColor=#A8DADC;strokeColor=#457B9D;fontColor=#1D3557;" parent="1" vertex="1">
          <mxGeometry x="-290" y="1020" width="80" height="72.5" as="geometry" />
        </mxCell>
        <mxCell id="fagER213_k4sMGDuZytk-106" style="edgeStyle=orthogonalEdgeStyle;rounded=1;orthogonalLoop=1;jettySize=auto;html=1;exitX=0;exitY=0.5;exitDx=0;exitDy=0;entryX=1;entryY=0.5;entryDx=0;entryDy=0;fontSize=16;fontStyle=1;labelBackgroundColor=none;strokeColor=#457B9D;fontColor=default;" parent="1" source="fagER213_k4sMGDuZytk-102" target="fagER213_k4sMGDuZytk-22" edge="1">
          <mxGeometry relative="1" as="geometry" />
        </mxCell>
        <mxCell id="fagER213_k4sMGDuZytk-102" value="" style="rhombus;whiteSpace=wrap;html=1;labelBackgroundColor=none;rounded=1;fontSize=16;fontStyle=1;fillColor=#A8DADC;strokeColor=#457B9D;fontColor=#1D3557;" parent="1" vertex="1">
          <mxGeometry x="20" y="400" width="80" height="72.5" as="geometry" />
        </mxCell>
        <mxCell id="fagER213_k4sMGDuZytk-124" value="VehicleImages" style="whiteSpace=wrap;html=1;aspect=fixed;labelBackgroundColor=none;rounded=1;fontSize=16;fontStyle=1;fillColor=#A8DADC;strokeColor=#457B9D;fontColor=#1D3557;" parent="1" vertex="1">
          <mxGeometry x="170" y="535" width="120" height="120" as="geometry" />
        </mxCell>
        <mxCell id="fagER213_k4sMGDuZytk-133" value="1" style="text;html=1;align=center;verticalAlign=middle;resizable=0;points=[];autosize=1;strokeColor=none;fillColor=none;fontSize=16;fontStyle=1;rounded=1;labelBackgroundColor=none;fontColor=#1D3557;" parent="1" vertex="1">
          <mxGeometry x="832" y="850" width="27" height="31" as="geometry" />
        </mxCell>
        <mxCell id="fagER213_k4sMGDuZytk-134" value="N" style="text;html=1;align=center;verticalAlign=middle;resizable=0;points=[];autosize=1;strokeColor=none;fillColor=none;rounded=1;fontSize=16;fontStyle=1;labelBackgroundColor=none;fontColor=#1D3557;arcSize=50;" parent="1" vertex="1">
          <mxGeometry x="1181" y="750" width="30" height="31" as="geometry" />
        </mxCell>
        <mxCell id="fagER213_k4sMGDuZytk-135" value="N" style="text;html=1;align=center;verticalAlign=middle;resizable=0;points=[];autosize=1;strokeColor=none;fillColor=none;rounded=1;fontSize=16;fontStyle=1;labelBackgroundColor=none;fontColor=#1D3557;" parent="1" vertex="1">
          <mxGeometry x="1081" y="918" width="30" height="31" as="geometry" />
        </mxCell>
        <mxCell id="fagER213_k4sMGDuZytk-140" value="N" style="text;html=1;align=center;verticalAlign=middle;resizable=0;points=[];autosize=1;strokeColor=none;fillColor=none;rounded=1;fontSize=16;fontStyle=1;labelBackgroundColor=none;fontColor=#1D3557;" parent="1" vertex="1">
          <mxGeometry x="1071" y="625" width="30" height="31" as="geometry" />
        </mxCell>
        <mxCell id="fagER213_k4sMGDuZytk-148" value="is" style="edgeLabel;html=1;align=center;verticalAlign=middle;resizable=0;points=[];rounded=1;fontSize=16;fontStyle=1;labelBackgroundColor=none;fontColor=#1D3557;" parent="1" vertex="1" connectable="0">
          <mxGeometry x="620.0000000000005" y="1045.0033333333333" as="geometry">
            <mxPoint x="-109" y="30" as="offset" />
          </mxGeometry>
        </mxCell>
        <mxCell id="fagER213_k4sMGDuZytk-149" value="is" style="edgeLabel;html=1;align=center;verticalAlign=middle;resizable=0;points=[];rounded=1;fontSize=16;fontStyle=1;labelBackgroundColor=none;fontColor=#1D3557;" parent="1" vertex="1" connectable="0">
          <mxGeometry x="550.0000000000005" y="690.0033333333332" as="geometry" />
        </mxCell>
        <mxCell id="fagER213_k4sMGDuZytk-150" style="edgeStyle=orthogonalEdgeStyle;rounded=1;orthogonalLoop=1;jettySize=auto;html=1;exitX=1;exitY=0.5;exitDx=0;exitDy=0;entryX=-0.005;entryY=0.642;entryDx=0;entryDy=0;entryPerimeter=0;labelBackgroundColor=none;strokeColor=#457B9D;fontColor=default;fontSize=16;fontStyle=1" parent="1" source="fagER213_k4sMGDuZytk-49" target="fagER213_k4sMGDuZytk-7" edge="1">
          <mxGeometry relative="1" as="geometry" />
        </mxCell>
        <mxCell id="fagER213_k4sMGDuZytk-152" value="has" style="edgeLabel;html=1;align=center;verticalAlign=middle;resizable=0;points=[];rounded=1;fontSize=16;fontStyle=1;labelBackgroundColor=none;fontColor=#1D3557;" parent="1" vertex="1" connectable="0">
          <mxGeometry x="95" y="709.9952380952383" as="geometry" />
        </mxCell>
        <mxCell id="fagER213_k4sMGDuZytk-153" value="1" style="text;html=1;align=center;verticalAlign=middle;resizable=0;points=[];autosize=1;strokeColor=none;fillColor=none;rounded=1;fontSize=16;fontStyle=1;labelBackgroundColor=none;fontColor=#1D3557;" parent="1" vertex="1">
          <mxGeometry x="82" y="740" width="27" height="31" as="geometry" />
        </mxCell>
        <mxCell id="fagER213_k4sMGDuZytk-154" value="N" style="text;html=1;align=center;verticalAlign=middle;resizable=0;points=[];autosize=1;strokeColor=none;fillColor=none;rounded=1;fontSize=16;fontStyle=1;labelBackgroundColor=none;fontColor=#1D3557;" parent="1" vertex="1">
          <mxGeometry x="196" y="660" width="30" height="31" as="geometry" />
        </mxCell>
        <mxCell id="fagER213_k4sMGDuZytk-155" value="1" style="text;html=1;align=center;verticalAlign=middle;resizable=0;points=[];autosize=1;strokeColor=none;fillColor=none;rounded=1;fontSize=16;fontStyle=1;labelBackgroundColor=none;fontColor=#1D3557;" parent="1" vertex="1">
          <mxGeometry x="82" y="660" width="27" height="31" as="geometry" />
        </mxCell>
        <mxCell id="fagER213_k4sMGDuZytk-156" value="1" style="text;html=1;align=center;verticalAlign=middle;resizable=0;points=[];autosize=1;strokeColor=none;fillColor=none;rounded=1;fontSize=16;fontStyle=1;labelBackgroundColor=none;fontColor=#1D3557;" parent="1" vertex="1">
          <mxGeometry x="-68" y="660" width="27" height="31" as="geometry" />
        </mxCell>
        <mxCell id="fagER213_k4sMGDuZytk-157" value="has" style="edgeLabel;html=1;align=center;verticalAlign=middle;resizable=0;points=[];rounded=1;fontSize=16;fontStyle=1;labelBackgroundColor=none;fontColor=#1D3557;" parent="1" vertex="1" connectable="0">
          <mxGeometry x="290" y="819.9977777777779" as="geometry" />
        </mxCell>
        <mxCell id="fagER213_k4sMGDuZytk-158" value="N" style="text;html=1;align=center;verticalAlign=middle;resizable=0;points=[];autosize=1;strokeColor=none;fillColor=none;rounded=1;fontSize=16;fontStyle=1;labelBackgroundColor=none;fontColor=#1D3557;" parent="1" vertex="1">
          <mxGeometry x="146" y="800" width="30" height="31" as="geometry" />
        </mxCell>
        <mxCell id="fagER213_k4sMGDuZytk-159" value="1" style="text;html=1;align=center;verticalAlign=middle;resizable=0;points=[];autosize=1;strokeColor=none;fillColor=none;rounded=1;fontSize=16;fontStyle=1;labelBackgroundColor=none;fontColor=#1D3557;" parent="1" vertex="1">
          <mxGeometry x="362" y="760" width="27" height="31" as="geometry" />
        </mxCell>
        <mxCell id="fagER213_k4sMGDuZytk-160" value="customer make N booking&lt;br style=&quot;font-size: 16px;&quot;&gt;customer book one vehicle at one booking" style="text;html=1;align=center;verticalAlign=middle;resizable=0;points=[];autosize=1;strokeColor=none;fillColor=none;fontColor=#1D3557;fontSize=16;fontStyle=1;rounded=1;labelBackgroundColor=none;" parent="1" vertex="1">
          <mxGeometry x="-288" y="1093" width="318" height="50" as="geometry" />
        </mxCell>
        <mxCell id="fagER213_k4sMGDuZytk-161" value="N" style="text;html=1;align=center;verticalAlign=middle;resizable=0;points=[];autosize=1;strokeColor=none;fillColor=none;rounded=1;fontSize=16;fontStyle=1;labelBackgroundColor=none;fontColor=#1D3557;" parent="1" vertex="1">
          <mxGeometry x="-384" y="1230" width="30" height="31" as="geometry" />
        </mxCell>
        <mxCell id="fagER213_k4sMGDuZytk-162" value="1" style="text;html=1;align=center;verticalAlign=middle;resizable=0;points=[];autosize=1;strokeColor=none;fillColor=none;rounded=1;fontSize=16;fontStyle=1;labelBackgroundColor=none;fontColor=#1D3557;" parent="1" vertex="1">
          <mxGeometry x="297" y="1030" width="27" height="31" as="geometry" />
        </mxCell>
        <mxCell id="fagER213_k4sMGDuZytk-163" value="1" style="text;html=1;align=center;verticalAlign=middle;resizable=0;points=[];autosize=1;strokeColor=none;fillColor=none;rounded=1;fontSize=16;fontStyle=1;labelBackgroundColor=none;fontColor=#1D3557;arcSize=50;" parent="1" vertex="1">
          <mxGeometry x="-18" y="860" width="27" height="31" as="geometry" />
        </mxCell>
        <mxCell id="fagER213_k4sMGDuZytk-166" value="N" style="text;html=1;align=center;verticalAlign=middle;resizable=0;points=[];autosize=1;strokeColor=none;fillColor=none;rounded=1;fontSize=16;fontStyle=1;labelBackgroundColor=none;fontColor=#1D3557;" parent="1" vertex="1">
          <mxGeometry x="1126" y="1158" width="30" height="31" as="geometry" />
        </mxCell>
        <mxCell id="fagER213_k4sMGDuZytk-168" value="1" style="text;html=1;align=center;verticalAlign=middle;resizable=0;points=[];autosize=1;strokeColor=none;fillColor=none;rounded=1;fontSize=16;fontStyle=1;labelBackgroundColor=none;fontColor=#1D3557;" parent="1" vertex="1">
          <mxGeometry x="-488" y="1176.25" width="27" height="31" as="geometry" />
        </mxCell>
        <mxCell id="fagER213_k4sMGDuZytk-169" value="1" style="text;html=1;align=center;verticalAlign=middle;resizable=0;points=[];autosize=1;strokeColor=none;fillColor=none;rounded=1;fontSize=16;fontStyle=1;labelBackgroundColor=none;fontColor=#1D3557;" parent="1" vertex="1">
          <mxGeometry x="-488" y="930" width="27" height="31" as="geometry" />
        </mxCell>
        <mxCell id="fagER213_k4sMGDuZytk-175" value="1" style="text;html=1;align=center;verticalAlign=middle;resizable=0;points=[];autosize=1;strokeColor=none;fillColor=none;rounded=1;fontSize=16;fontStyle=1;labelBackgroundColor=none;fontColor=#1D3557;arcSize=50;" parent="1" vertex="1">
          <mxGeometry x="712" y="805" width="27" height="31" as="geometry" />
        </mxCell>
        <mxCell id="fagER213_k4sMGDuZytk-176" value="N" style="text;html=1;align=center;verticalAlign=middle;resizable=0;points=[];autosize=1;strokeColor=none;fillColor=none;rounded=1;fontSize=16;fontStyle=1;labelBackgroundColor=none;fontColor=#1D3557;" parent="1" vertex="1">
          <mxGeometry x="-324" y="400" width="30" height="31" as="geometry" />
        </mxCell>
        <mxCell id="fagER213_k4sMGDuZytk-177" value="1" style="text;html=1;align=center;verticalAlign=middle;resizable=0;points=[];autosize=1;strokeColor=none;fillColor=none;rounded=1;fontSize=16;fontStyle=1;labelBackgroundColor=none;fontColor=#1D3557;arcSize=50;" parent="1" vertex="1">
          <mxGeometry x="-498" y="775" width="27" height="31" as="geometry" />
        </mxCell>
        <mxCell id="fagER213_k4sMGDuZytk-180" value="User has N reviews&lt;div style=&quot;font-size: 16px;&quot;&gt;user can review one per rental&lt;/div&gt;" style="text;html=1;align=center;verticalAlign=middle;resizable=0;points=[];autosize=1;strokeColor=none;fillColor=none;fontColor=#1D3557;fontSize=16;fontStyle=1;rounded=1;labelBackgroundColor=none;" parent="1" vertex="1">
          <mxGeometry x="-56" y="355" width="233" height="50" as="geometry" />
        </mxCell>
        <mxCell id="fagER213_k4sMGDuZytk-181" value="has" style="edgeLabel;html=1;align=center;verticalAlign=middle;resizable=0;points=[];rounded=1;fontSize=16;fontStyle=1;labelBackgroundColor=none;fontColor=#1D3557;" parent="1" vertex="1" connectable="0">
          <mxGeometry x="800" y="790.0023076923076" as="geometry" />
        </mxCell>
        <mxCell id="fagER213_k4sMGDuZytk-183" value="has" style="edgeLabel;html=1;align=center;verticalAlign=middle;resizable=0;points=[];rounded=1;fontSize=16;fontStyle=1;labelBackgroundColor=none;fontColor=#1D3557;" parent="1" vertex="1" connectable="0">
          <mxGeometry x="-460" y="1079.9977777777779" as="geometry">
            <mxPoint x="-5" y="-1" as="offset" />
          </mxGeometry>
        </mxCell>
        <mxCell id="B4YxU5CQEjxaZhSdfJ7i-1" style="edgeStyle=orthogonalEdgeStyle;rounded=1;orthogonalLoop=1;jettySize=auto;html=1;exitX=0.5;exitY=0;exitDx=0;exitDy=0;entryX=0.5;entryY=1;entryDx=0;entryDy=0;fontSize=16;fontStyle=1;labelBackgroundColor=none;strokeColor=#457B9D;fontColor=default;" parent="1" source="fagER213_k4sMGDuZytk-11" target="fagER213_k4sMGDuZytk-12" edge="1">
          <mxGeometry relative="1" as="geometry">
            <mxPoint x="90" y="780" as="sourcePoint" />
            <mxPoint x="240" y="665" as="targetPoint" />
            <Array as="points">
              <mxPoint x="80" y="730" />
              <mxPoint x="-70" y="730" />
            </Array>
          </mxGeometry>
        </mxCell>
        <mxCell id="lEcwdQwQgI3dDtVDOoa7-4" value="M" style="text;html=1;align=center;verticalAlign=middle;resizable=0;points=[];autosize=1;strokeColor=none;fillColor=none;rounded=1;labelBackgroundColor=none;fontColor=#1D3557;fontSize=16;fontStyle=1" parent="1" vertex="1">
          <mxGeometry x="396" y="998" width="31" height="31" as="geometry" />
        </mxCell>
        <mxCell id="lEcwdQwQgI3dDtVDOoa7-5" value="N" style="text;html=1;align=center;verticalAlign=middle;resizable=0;points=[];autosize=1;strokeColor=none;fillColor=none;rounded=1;labelBackgroundColor=none;fontColor=#1D3557;fontSize=16;fontStyle=1" parent="1" vertex="1">
          <mxGeometry x="116" y="888" width="30" height="31" as="geometry" />
        </mxCell>
        <mxCell id="lEcwdQwQgI3dDtVDOoa7-13" value="Favorite" style="text;html=1;align=center;verticalAlign=middle;resizable=0;points=[];autosize=1;strokeColor=none;fillColor=none;fontColor=#1D3557;fontSize=16;fontStyle=1;labelBackgroundColor=none;rounded=1;" parent="1" vertex="1">
          <mxGeometry x="243" y="955" width="76" height="31" as="geometry" />
        </mxCell>
        <mxCell id="ovktZgSDVKqZ9HrEGNSl-1" value="Send" style="text;html=1;align=center;verticalAlign=middle;resizable=0;points=[];autosize=1;strokeColor=none;fillColor=none;fontColor=#1D3557;fontSize=16;fontStyle=1;rounded=1;" parent="1" vertex="1">
          <mxGeometry x="943" y="840" width="55" height="31" as="geometry" />
        </mxCell>
        <mxCell id="ovktZgSDVKqZ9HrEGNSl-2" value="Recieve" style="text;html=1;align=center;verticalAlign=middle;resizable=0;points=[];autosize=1;strokeColor=none;fillColor=none;fontColor=#1D3557;fontSize=16;fontStyle=1;rounded=1;" parent="1" vertex="1">
          <mxGeometry x="933" y="935" width="76" height="31" as="geometry" />
        </mxCell>
        <mxCell id="ovktZgSDVKqZ9HrEGNSl-14" value="has" style="edgeLabel;html=1;align=center;verticalAlign=middle;resizable=0;points=[];rounded=1;fontSize=16;fontStyle=1;labelBackgroundColor=none;fontColor=#1D3557;" parent="1" vertex="1" connectable="0">
          <mxGeometry x="95" y="709.9952380952383" as="geometry" />
        </mxCell>
        <mxCell id="ovktZgSDVKqZ9HrEGNSl-17" value="1 - N with&lt;br style=&quot;font-size: 16px;&quot;&gt;(Review, Message, Booking, Report, AdminAction)&amp;nbsp;" style="text;html=1;align=center;verticalAlign=middle;resizable=0;points=[];autosize=1;strokeColor=none;fillColor=none;fontColor=#1D3557;fontSize=16;fontStyle=1;rounded=1;" parent="1" vertex="1">
          <mxGeometry x="901" y="450" width="380" height="50" as="geometry" />
        </mxCell>
        <mxCell id="ovktZgSDVKqZ9HrEGNSl-20" value="Customer | Renter&lt;br style=&quot;font-size: 16px;&quot;&gt;Review" style="text;html=1;align=center;verticalAlign=middle;resizable=0;points=[];autosize=1;strokeColor=none;fillColor=none;fontColor=#1D3557;fontSize=16;fontStyle=1;rounded=1;labelBackgroundColor=none;" parent="1" vertex="1">
          <mxGeometry x="-474" y="310" width="148" height="50" as="geometry" />
        </mxCell>
        <mxCell id="ovktZgSDVKqZ9HrEGNSl-25" value="" style="edgeStyle=orthogonalEdgeStyle;rounded=1;orthogonalLoop=1;jettySize=auto;html=1;exitX=1;exitY=0.25;exitDx=0;exitDy=0;entryX=0;entryY=0.25;entryDx=0;entryDy=0;strokeColor=#457B9D;fontColor=#1D3557;fillColor=#A8DADC;fontSize=16;fontStyle=1" parent="1" source="fagER213_k4sMGDuZytk-7" target="fagER213_k4sMGDuZytk-21" edge="1">
          <mxGeometry relative="1" as="geometry">
            <mxPoint x="830" y="870" as="sourcePoint" />
            <mxPoint x="1080" y="877.5000000000002" as="targetPoint" />
          </mxGeometry>
        </mxCell>
        <mxCell id="ovktZgSDVKqZ9HrEGNSl-26" value="N" style="text;html=1;align=center;verticalAlign=middle;resizable=0;points=[];autosize=1;strokeColor=none;fillColor=none;rounded=1;fontSize=16;fontStyle=1;labelBackgroundColor=none;fontColor=#1D3557;" parent="1" vertex="1">
          <mxGeometry x="1071" y="835" width="30" height="31" as="geometry" />
        </mxCell>
        <mxCell id="ovktZgSDVKqZ9HrEGNSl-27" value="1" style="text;html=1;align=center;verticalAlign=middle;resizable=0;points=[];autosize=1;strokeColor=none;fillColor=none;fontSize=16;fontStyle=1;rounded=1;labelBackgroundColor=none;fontColor=#1D3557;" parent="1" vertex="1">
          <mxGeometry x="832" y="905" width="27" height="31" as="geometry" />
        </mxCell>
        <mxCell id="ovktZgSDVKqZ9HrEGNSl-32" style="edgeStyle=orthogonalEdgeStyle;rounded=1;orthogonalLoop=1;jettySize=auto;html=1;exitX=0.5;exitY=0;exitDx=0;exitDy=0;entryX=0.25;entryY=1;entryDx=0;entryDy=0;strokeColor=#457B9D;fontColor=#1D3557;fillColor=#A8DADC;fontStyle=1;fontSize=16;" parent="1" source="ovktZgSDVKqZ9HrEGNSl-28" target="fagER213_k4sMGDuZytk-7" edge="1">
          <mxGeometry relative="1" as="geometry" />
        </mxCell>
        <mxCell id="ovktZgSDVKqZ9HrEGNSl-28" value="Admin" style="whiteSpace=wrap;html=1;aspect=fixed;labelBackgroundColor=none;rounded=1;fontSize=16;fontStyle=1;fillColor=#A8DADC;strokeColor=#457B9D;fontColor=#1D3557;" parent="1" vertex="1">
          <mxGeometry x="600" y="1200" width="120" height="120" as="geometry" />
        </mxCell>
        <mxCell id="ovktZgSDVKqZ9HrEGNSl-31" value="is" style="edgeLabel;html=1;align=center;verticalAlign=middle;resizable=0;points=[];rounded=1;fontSize=16;fontStyle=1;labelBackgroundColor=none;fontColor=#1D3557;" parent="1" vertex="1" connectable="0">
          <mxGeometry x="630" y="1188" as="geometry">
            <mxPoint x="16" y="-6" as="offset" />
          </mxGeometry>
        </mxCell>
        <mxCell id="ovktZgSDVKqZ9HrEGNSl-41" value="1" style="text;html=1;align=center;verticalAlign=middle;resizable=0;points=[];autosize=1;strokeColor=none;fillColor=none;rounded=1;fontSize=16;fontStyle=1;labelBackgroundColor=none;fontColor=#1D3557;" parent="1" vertex="1">
          <mxGeometry x="852" y="1200" width="27" height="31" as="geometry" />
        </mxCell>
        <mxCell id="W9VZhWrltHUXzRDAqSAk-1" value="StripeAccount" style="whiteSpace=wrap;html=1;aspect=fixed;labelBackgroundColor=none;rounded=1;fontSize=16;fontStyle=1;fillColor=#A8DADC;strokeColor=#457B9D;fontColor=#1D3557;" parent="1" vertex="1">
          <mxGeometry x="410" y="210" width="120" height="120" as="geometry" />
        </mxCell>
        <mxCell id="W9VZhWrltHUXzRDAqSAk-2" style="edgeStyle=orthogonalEdgeStyle;rounded=1;orthogonalLoop=1;jettySize=auto;html=1;exitX=0.5;exitY=0;exitDx=0;exitDy=0;entryX=0.5;entryY=1;entryDx=0;entryDy=0;fontSize=16;fontStyle=1;labelBackgroundColor=none;strokeColor=#457B9D;fontColor=default;" parent="1" source="fagER213_k4sMGDuZytk-48" target="W9VZhWrltHUXzRDAqSAk-1" edge="1">
          <mxGeometry relative="1" as="geometry">
            <mxPoint x="750" y="850" as="sourcePoint" />
            <mxPoint x="110" y="446" as="targetPoint" />
          </mxGeometry>
        </mxCell>
        <mxCell id="W9VZhWrltHUXzRDAqSAk-3" value="owned" style="text;html=1;align=center;verticalAlign=middle;resizable=0;points=[];autosize=1;strokeColor=none;fillColor=none;fontStyle=1;fontSize=16;" parent="1" vertex="1">
          <mxGeometry x="458" y="608" width="65" height="31" as="geometry" />
        </mxCell>
      </root>
    </mxGraphModel>
  </diagram>
  <diagram id="iFNrgBFundPAgGT4FiH3" name="Mapping">
    <mxGraphModel dx="3580" dy="1774" grid="1" gridSize="20" guides="1" tooltips="1" connect="1" arrows="1" fold="1" page="0" pageScale="1" pageWidth="850" pageHeight="1100" math="0" shadow="0">
      <root>
        <mxCell id="0" />
        <mxCell id="1" parent="0" />
        <mxCell id="b_YgQPZzb7EBVGGCqiWG-75" value="User" style="shape=table;startSize=30;container=1;collapsible=0;childLayout=tableLayout;fontSize=20;fontStyle=1;align=center;labelBackgroundColor=none;fillColor=#A9C4EB;strokeWidth=4;rounded=1;" parent="1" vertex="1">
          <mxGeometry x="1314.9499999999998" y="818.8" width="204" height="653" as="geometry" />
        </mxCell>
        <mxCell id="b_YgQPZzb7EBVGGCqiWG-76" value="" style="shape=tableRow;horizontal=0;startSize=0;swimlaneHead=0;swimlaneBody=0;top=0;left=0;bottom=0;right=0;collapsible=0;dropTarget=0;fillColor=none;points=[[0,0.5],[1,0.5]];portConstraint=eastwest;fontSize=20;fontStyle=1;align=left;labelBackgroundColor=none;strokeWidth=4;rounded=1;" parent="b_YgQPZzb7EBVGGCqiWG-75" vertex="1">
          <mxGeometry y="30" width="204" height="39" as="geometry" />
        </mxCell>
        <mxCell id="b_YgQPZzb7EBVGGCqiWG-77" value="&lt;u&gt;Id&lt;/u&gt;" style="shape=partialRectangle;html=1;whiteSpace=wrap;connectable=0;overflow=hidden;top=0;left=0;bottom=0;right=0;pointerEvents=1;fontSize=20;fontStyle=1;align=left;labelBackgroundColor=none;fillColor=#99FFCC;strokeWidth=4;rounded=1;" parent="b_YgQPZzb7EBVGGCqiWG-76" vertex="1">
          <mxGeometry width="204" height="39" as="geometry">
            <mxRectangle width="204" height="39" as="alternateBounds" />
          </mxGeometry>
        </mxCell>
        <mxCell id="b_YgQPZzb7EBVGGCqiWG-78" value="" style="shape=tableRow;horizontal=0;startSize=0;swimlaneHead=0;swimlaneBody=0;top=0;left=0;bottom=0;right=0;collapsible=0;dropTarget=0;fillColor=none;points=[[0,0.5],[1,0.5]];portConstraint=eastwest;fontSize=20;fontStyle=1;align=left;labelBackgroundColor=none;strokeWidth=4;rounded=1;" parent="b_YgQPZzb7EBVGGCqiWG-75" vertex="1">
          <mxGeometry y="69" width="204" height="39" as="geometry" />
        </mxCell>
        <mxCell id="b_YgQPZzb7EBVGGCqiWG-79" value="Username" style="shape=partialRectangle;html=1;whiteSpace=wrap;connectable=0;overflow=hidden;fillColor=#F1FAFF;top=0;left=0;bottom=0;right=0;pointerEvents=1;fontSize=20;fontStyle=1;align=left;labelBackgroundColor=none;strokeWidth=4;rounded=1;" parent="b_YgQPZzb7EBVGGCqiWG-78" vertex="1">
          <mxGeometry width="204" height="39" as="geometry">
            <mxRectangle width="204" height="39" as="alternateBounds" />
          </mxGeometry>
        </mxCell>
        <mxCell id="b_YgQPZzb7EBVGGCqiWG-80" value="" style="shape=tableRow;horizontal=0;startSize=0;swimlaneHead=0;swimlaneBody=0;top=0;left=0;bottom=0;right=0;collapsible=0;dropTarget=0;fillColor=none;points=[[0,0.5],[1,0.5]];portConstraint=eastwest;fontSize=20;fontStyle=1;align=left;labelBackgroundColor=none;strokeWidth=4;rounded=1;" parent="b_YgQPZzb7EBVGGCqiWG-75" vertex="1">
          <mxGeometry y="108" width="204" height="39" as="geometry" />
        </mxCell>
        <mxCell id="b_YgQPZzb7EBVGGCqiWG-81" value="Email" style="shape=partialRectangle;html=1;whiteSpace=wrap;connectable=0;overflow=hidden;fillColor=#F1FAFF;top=0;left=0;bottom=0;right=0;pointerEvents=1;fontSize=20;fontStyle=1;align=left;labelBackgroundColor=none;strokeWidth=4;rounded=1;" parent="b_YgQPZzb7EBVGGCqiWG-80" vertex="1">
          <mxGeometry width="204" height="39" as="geometry">
            <mxRectangle width="204" height="39" as="alternateBounds" />
          </mxGeometry>
        </mxCell>
        <mxCell id="WPOkwvO6X90YhL0vEpwH-33" style="shape=tableRow;horizontal=0;startSize=0;swimlaneHead=0;swimlaneBody=0;top=0;left=0;bottom=0;right=0;collapsible=0;dropTarget=0;fillColor=none;points=[[0,0.5],[1,0.5]];portConstraint=eastwest;fontSize=20;fontStyle=1;align=left;labelBackgroundColor=none;strokeWidth=4;rounded=1;" parent="b_YgQPZzb7EBVGGCqiWG-75" vertex="1">
          <mxGeometry y="147" width="204" height="39" as="geometry" />
        </mxCell>
        <mxCell id="WPOkwvO6X90YhL0vEpwH-34" value="Address" style="shape=partialRectangle;html=1;whiteSpace=wrap;connectable=0;overflow=hidden;fillColor=none;top=0;left=0;bottom=0;right=0;pointerEvents=1;fontSize=20;fontStyle=1;align=left;labelBackgroundColor=none;strokeWidth=4;rounded=1;" parent="WPOkwvO6X90YhL0vEpwH-33" vertex="1">
          <mxGeometry width="204" height="39" as="geometry">
            <mxRectangle width="204" height="39" as="alternateBounds" />
          </mxGeometry>
        </mxCell>
        <mxCell id="b_YgQPZzb7EBVGGCqiWG-82" value="" style="shape=tableRow;horizontal=0;startSize=0;swimlaneHead=0;swimlaneBody=0;top=0;left=0;bottom=0;right=0;collapsible=0;dropTarget=0;fillColor=none;points=[[0,0.5],[1,0.5]];portConstraint=eastwest;fontSize=20;fontStyle=1;align=left;labelBackgroundColor=none;strokeWidth=4;rounded=1;" parent="b_YgQPZzb7EBVGGCqiWG-75" vertex="1">
          <mxGeometry y="186" width="204" height="38" as="geometry" />
        </mxCell>
        <mxCell id="b_YgQPZzb7EBVGGCqiWG-83" value="Password" style="shape=partialRectangle;html=1;whiteSpace=wrap;connectable=0;overflow=hidden;fillColor=none;top=0;left=0;bottom=0;right=0;pointerEvents=1;fontSize=20;fontStyle=1;align=left;labelBackgroundColor=none;strokeWidth=4;rounded=1;" parent="b_YgQPZzb7EBVGGCqiWG-82" vertex="1">
          <mxGeometry width="204" height="38" as="geometry">
            <mxRectangle width="204" height="38" as="alternateBounds" />
          </mxGeometry>
        </mxCell>
        <mxCell id="b_YgQPZzb7EBVGGCqiWG-86" value="" style="shape=tableRow;horizontal=0;startSize=0;swimlaneHead=0;swimlaneBody=0;top=0;left=0;bottom=0;right=0;collapsible=0;dropTarget=0;fillColor=none;points=[[0,0.5],[1,0.5]];portConstraint=eastwest;fontSize=20;fontStyle=1;align=left;labelBackgroundColor=none;strokeWidth=4;rounded=1;" parent="b_YgQPZzb7EBVGGCqiWG-75" vertex="1">
          <mxGeometry y="224" width="204" height="39" as="geometry" />
        </mxCell>
        <mxCell id="b_YgQPZzb7EBVGGCqiWG-87" value="AgreedTheTerms" style="shape=partialRectangle;html=1;whiteSpace=wrap;connectable=0;overflow=hidden;fillColor=none;top=0;left=0;bottom=0;right=0;pointerEvents=1;fontSize=20;fontStyle=1;align=left;labelBackgroundColor=none;strokeWidth=4;rounded=1;" parent="b_YgQPZzb7EBVGGCqiWG-86" vertex="1">
          <mxGeometry width="204" height="39" as="geometry">
            <mxRectangle width="204" height="39" as="alternateBounds" />
          </mxGeometry>
        </mxCell>
        <mxCell id="b_YgQPZzb7EBVGGCqiWG-88" value="" style="shape=tableRow;horizontal=0;startSize=0;swimlaneHead=0;swimlaneBody=0;top=0;left=0;bottom=0;right=0;collapsible=0;dropTarget=0;fillColor=none;points=[[0,0.5],[1,0.5]];portConstraint=eastwest;fontSize=20;fontStyle=1;align=left;labelBackgroundColor=none;strokeWidth=4;rounded=1;" parent="b_YgQPZzb7EBVGGCqiWG-75" vertex="1">
          <mxGeometry y="263" width="204" height="39" as="geometry" />
        </mxCell>
        <mxCell id="b_YgQPZzb7EBVGGCqiWG-89" value="CreatedAt" style="shape=partialRectangle;html=1;whiteSpace=wrap;connectable=0;overflow=hidden;fillColor=none;top=0;left=0;bottom=0;right=0;pointerEvents=1;fontSize=20;fontStyle=1;align=left;labelBackgroundColor=none;strokeWidth=4;rounded=1;" parent="b_YgQPZzb7EBVGGCqiWG-88" vertex="1">
          <mxGeometry width="204" height="39" as="geometry">
            <mxRectangle width="204" height="39" as="alternateBounds" />
          </mxGeometry>
        </mxCell>
        <mxCell id="b_YgQPZzb7EBVGGCqiWG-90" value="" style="shape=tableRow;horizontal=0;startSize=0;swimlaneHead=0;swimlaneBody=0;top=0;left=0;bottom=0;right=0;collapsible=0;dropTarget=0;fillColor=none;points=[[0,0.5],[1,0.5]];portConstraint=eastwest;fontSize=20;fontStyle=1;align=left;labelBackgroundColor=none;strokeWidth=4;rounded=1;" parent="b_YgQPZzb7EBVGGCqiWG-75" vertex="1">
          <mxGeometry y="302" width="204" height="39" as="geometry" />
        </mxCell>
        <mxCell id="b_YgQPZzb7EBVGGCqiWG-91" value="Rate" style="shape=partialRectangle;html=1;whiteSpace=wrap;connectable=0;overflow=hidden;fillColor=none;top=0;left=0;bottom=0;right=0;pointerEvents=1;fontSize=20;fontStyle=1;align=left;labelBackgroundColor=none;strokeWidth=4;rounded=1;" parent="b_YgQPZzb7EBVGGCqiWG-90" vertex="1">
          <mxGeometry width="204" height="39" as="geometry">
            <mxRectangle width="204" height="39" as="alternateBounds" />
          </mxGeometry>
        </mxCell>
        <mxCell id="PkPG3WxuKsKkiC19nM9B-45" style="shape=tableRow;horizontal=0;startSize=0;swimlaneHead=0;swimlaneBody=0;top=0;left=0;bottom=0;right=0;collapsible=0;dropTarget=0;fillColor=none;points=[[0,0.5],[1,0.5]];portConstraint=eastwest;fontSize=20;fontStyle=1;align=left;labelBackgroundColor=none;strokeWidth=4;rounded=1;" parent="b_YgQPZzb7EBVGGCqiWG-75" vertex="1">
          <mxGeometry y="341" width="204" height="39" as="geometry" />
        </mxCell>
        <mxCell id="PkPG3WxuKsKkiC19nM9B-46" value="Status" style="shape=partialRectangle;html=1;whiteSpace=wrap;connectable=0;overflow=hidden;fillColor=none;top=0;left=0;bottom=0;right=0;pointerEvents=1;fontSize=20;fontStyle=1;align=left;labelBackgroundColor=none;strokeWidth=4;rounded=1;" parent="PkPG3WxuKsKkiC19nM9B-45" vertex="1">
          <mxGeometry width="204" height="39" as="geometry">
            <mxRectangle width="204" height="39" as="alternateBounds" />
          </mxGeometry>
        </mxCell>
        <mxCell id="PkPG3WxuKsKkiC19nM9B-47" style="shape=tableRow;horizontal=0;startSize=0;swimlaneHead=0;swimlaneBody=0;top=0;left=0;bottom=0;right=0;collapsible=0;dropTarget=0;fillColor=none;points=[[0,0.5],[1,0.5]];portConstraint=eastwest;fontSize=20;fontStyle=1;align=left;labelBackgroundColor=none;strokeWidth=4;rounded=1;" parent="b_YgQPZzb7EBVGGCqiWG-75" vertex="1">
          <mxGeometry y="380" width="204" height="39" as="geometry" />
        </mxCell>
        <mxCell id="PkPG3WxuKsKkiC19nM9B-48" value="WarningCount" style="shape=partialRectangle;html=1;whiteSpace=wrap;connectable=0;overflow=hidden;fillColor=none;top=0;left=0;bottom=0;right=0;pointerEvents=1;fontSize=20;fontStyle=1;align=left;labelBackgroundColor=none;strokeWidth=4;rounded=1;" parent="PkPG3WxuKsKkiC19nM9B-47" vertex="1">
          <mxGeometry width="204" height="39" as="geometry">
            <mxRectangle width="204" height="39" as="alternateBounds" />
          </mxGeometry>
        </mxCell>
        <mxCell id="WPOkwvO6X90YhL0vEpwH-21" style="shape=tableRow;horizontal=0;startSize=0;swimlaneHead=0;swimlaneBody=0;top=0;left=0;bottom=0;right=0;collapsible=0;dropTarget=0;fillColor=none;points=[[0,0.5],[1,0.5]];portConstraint=eastwest;fontSize=20;fontStyle=1;align=left;labelBackgroundColor=none;strokeWidth=4;rounded=1;" parent="b_YgQPZzb7EBVGGCqiWG-75" vertex="1">
          <mxGeometry y="419" width="204" height="39" as="geometry" />
        </mxCell>
        <mxCell id="WPOkwvO6X90YhL0vEpwH-22" value="Name" style="shape=partialRectangle;html=1;whiteSpace=wrap;connectable=0;overflow=hidden;fillColor=none;top=0;left=0;bottom=0;right=0;pointerEvents=1;fontSize=20;fontStyle=1;align=left;labelBackgroundColor=none;strokeWidth=4;rounded=1;" parent="WPOkwvO6X90YhL0vEpwH-21" vertex="1">
          <mxGeometry width="204" height="39" as="geometry">
            <mxRectangle width="204" height="39" as="alternateBounds" />
          </mxGeometry>
        </mxCell>
        <mxCell id="WPOkwvO6X90YhL0vEpwH-23" style="shape=tableRow;horizontal=0;startSize=0;swimlaneHead=0;swimlaneBody=0;top=0;left=0;bottom=0;right=0;collapsible=0;dropTarget=0;fillColor=none;points=[[0,0.5],[1,0.5]];portConstraint=eastwest;fontSize=20;fontStyle=1;align=left;labelBackgroundColor=none;strokeWidth=4;rounded=1;" parent="b_YgQPZzb7EBVGGCqiWG-75" vertex="1">
          <mxGeometry y="458" width="204" height="39" as="geometry" />
        </mxCell>
        <mxCell id="WPOkwvO6X90YhL0vEpwH-24" value="Image" style="shape=partialRectangle;html=1;whiteSpace=wrap;connectable=0;overflow=hidden;fillColor=none;top=0;left=0;bottom=0;right=0;pointerEvents=1;fontSize=20;fontStyle=1;align=left;labelBackgroundColor=none;strokeWidth=4;rounded=1;" parent="WPOkwvO6X90YhL0vEpwH-23" vertex="1">
          <mxGeometry width="204" height="39" as="geometry">
            <mxRectangle width="204" height="39" as="alternateBounds" />
          </mxGeometry>
        </mxCell>
        <mxCell id="WPOkwvO6X90YhL0vEpwH-25" style="shape=tableRow;horizontal=0;startSize=0;swimlaneHead=0;swimlaneBody=0;top=0;left=0;bottom=0;right=0;collapsible=0;dropTarget=0;fillColor=none;points=[[0,0.5],[1,0.5]];portConstraint=eastwest;fontSize=20;fontStyle=1;align=left;labelBackgroundColor=none;strokeWidth=4;rounded=1;" parent="b_YgQPZzb7EBVGGCqiWG-75" vertex="1">
          <mxGeometry y="497" width="204" height="39" as="geometry" />
        </mxCell>
        <mxCell id="WPOkwvO6X90YhL0vEpwH-26" value="Bio" style="shape=partialRectangle;html=1;whiteSpace=wrap;connectable=0;overflow=hidden;fillColor=none;top=0;left=0;bottom=0;right=0;pointerEvents=1;fontSize=20;fontStyle=1;align=left;labelBackgroundColor=none;strokeWidth=4;rounded=1;" parent="WPOkwvO6X90YhL0vEpwH-25" vertex="1">
          <mxGeometry width="204" height="39" as="geometry">
            <mxRectangle width="204" height="39" as="alternateBounds" />
          </mxGeometry>
        </mxCell>
        <mxCell id="WPOkwvO6X90YhL0vEpwH-27" style="shape=tableRow;horizontal=0;startSize=0;swimlaneHead=0;swimlaneBody=0;top=0;left=0;bottom=0;right=0;collapsible=0;dropTarget=0;fillColor=none;points=[[0,0.5],[1,0.5]];portConstraint=eastwest;fontSize=20;fontStyle=1;align=left;labelBackgroundColor=none;strokeWidth=4;rounded=1;" parent="b_YgQPZzb7EBVGGCqiWG-75" vertex="1">
          <mxGeometry y="536" width="204" height="39" as="geometry" />
        </mxCell>
        <mxCell id="WPOkwvO6X90YhL0vEpwH-28" value="DateOfBirth" style="shape=partialRectangle;html=1;whiteSpace=wrap;connectable=0;overflow=hidden;fillColor=none;top=0;left=0;bottom=0;right=0;pointerEvents=1;fontSize=20;fontStyle=1;align=left;labelBackgroundColor=none;strokeWidth=4;rounded=1;" parent="WPOkwvO6X90YhL0vEpwH-27" vertex="1">
          <mxGeometry width="204" height="39" as="geometry">
            <mxRectangle width="204" height="39" as="alternateBounds" />
          </mxGeometry>
        </mxCell>
        <mxCell id="WPOkwvO6X90YhL0vEpwH-29" style="shape=tableRow;horizontal=0;startSize=0;swimlaneHead=0;swimlaneBody=0;top=0;left=0;bottom=0;right=0;collapsible=0;dropTarget=0;fillColor=none;points=[[0,0.5],[1,0.5]];portConstraint=eastwest;fontSize=20;fontStyle=1;align=left;labelBackgroundColor=none;strokeWidth=4;rounded=1;" parent="b_YgQPZzb7EBVGGCqiWG-75" vertex="1">
          <mxGeometry y="575" width="204" height="39" as="geometry" />
        </mxCell>
        <mxCell id="WPOkwvO6X90YhL0vEpwH-30" value="GeoLocation" style="shape=partialRectangle;html=1;whiteSpace=wrap;connectable=0;overflow=hidden;fillColor=none;top=0;left=0;bottom=0;right=0;pointerEvents=1;fontSize=20;fontStyle=1;align=left;labelBackgroundColor=none;strokeWidth=4;rounded=1;" parent="WPOkwvO6X90YhL0vEpwH-29" vertex="1">
          <mxGeometry width="204" height="39" as="geometry">
            <mxRectangle width="204" height="39" as="alternateBounds" />
          </mxGeometry>
        </mxCell>
        <mxCell id="WPOkwvO6X90YhL0vEpwH-31" style="shape=tableRow;horizontal=0;startSize=0;swimlaneHead=0;swimlaneBody=0;top=0;left=0;bottom=0;right=0;collapsible=0;dropTarget=0;fillColor=none;points=[[0,0.5],[1,0.5]];portConstraint=eastwest;fontSize=20;fontStyle=1;align=left;labelBackgroundColor=none;strokeWidth=4;rounded=1;" parent="b_YgQPZzb7EBVGGCqiWG-75" vertex="1">
          <mxGeometry y="614" width="204" height="39" as="geometry" />
        </mxCell>
        <mxCell id="WPOkwvO6X90YhL0vEpwH-32" value="ActivateIn" style="shape=partialRectangle;html=1;whiteSpace=wrap;connectable=0;overflow=hidden;fillColor=none;top=0;left=0;bottom=0;right=0;pointerEvents=1;fontSize=20;fontStyle=1;align=left;labelBackgroundColor=none;strokeWidth=4;rounded=1;" parent="WPOkwvO6X90YhL0vEpwH-31" vertex="1">
          <mxGeometry width="204" height="39" as="geometry">
            <mxRectangle width="204" height="39" as="alternateBounds" />
          </mxGeometry>
        </mxCell>
        <mxCell id="W14kpQmKhAgQ3yxK0qM7-6" style="edgeStyle=orthogonalEdgeStyle;rounded=1;orthogonalLoop=1;jettySize=auto;html=1;exitX=0;exitY=0.75;exitDx=0;exitDy=0;entryX=0;entryY=0.5;entryDx=0;entryDy=0;strokeColor=#457B9D;fontColor=#1D3557;fillColor=#A8DADC;strokeWidth=4;" parent="1" source="b_YgQPZzb7EBVGGCqiWG-93" target="b_YgQPZzb7EBVGGCqiWG-76" edge="1">
          <mxGeometry relative="1" as="geometry" />
        </mxCell>
        <mxCell id="b_YgQPZzb7EBVGGCqiWG-93" value="Customer" style="shape=table;startSize=30;container=1;collapsible=0;childLayout=tableLayout;fontSize=20;fontStyle=1;align=center;labelBackgroundColor=none;fillColor=#A9C4EB;strokeWidth=4;rounded=1;" parent="1" vertex="1">
          <mxGeometry x="1177.3899999999999" y="1515.8" width="204" height="69" as="geometry" />
        </mxCell>
        <mxCell id="b_YgQPZzb7EBVGGCqiWG-94" value="" style="shape=tableRow;horizontal=0;startSize=0;swimlaneHead=0;swimlaneBody=0;top=0;left=0;bottom=0;right=0;collapsible=0;dropTarget=0;fillColor=#FFCCFF;points=[[0,0.5],[1,0.5]];portConstraint=eastwest;fontSize=20;fontStyle=1;align=left;labelBackgroundColor=none;strokeWidth=4;rounded=1;" parent="b_YgQPZzb7EBVGGCqiWG-93" vertex="1">
          <mxGeometry y="30" width="204" height="39" as="geometry" />
        </mxCell>
        <mxCell id="b_YgQPZzb7EBVGGCqiWG-95" value="UserId" style="shape=partialRectangle;html=1;whiteSpace=wrap;connectable=0;overflow=hidden;top=0;left=0;bottom=0;right=0;pointerEvents=1;fontSize=20;fontStyle=1;align=left;labelBackgroundColor=none;fillColor=#FFCCFF;strokeWidth=4;rounded=1;" parent="b_YgQPZzb7EBVGGCqiWG-94" vertex="1">
          <mxGeometry width="204" height="39" as="geometry">
            <mxRectangle width="204" height="39" as="alternateBounds" />
          </mxGeometry>
        </mxCell>
        <mxCell id="W14kpQmKhAgQ3yxK0qM7-5" style="edgeStyle=orthogonalEdgeStyle;rounded=1;orthogonalLoop=1;jettySize=auto;html=1;entryX=1;entryY=0.5;entryDx=0;entryDy=0;strokeColor=#457B9D;fontColor=#1D3557;fillColor=#A8DADC;strokeWidth=4;jumpStyle=arc;exitX=1;exitY=0.5;exitDx=0;exitDy=0;" parent="1" source="b_YgQPZzb7EBVGGCqiWG-115" target="b_YgQPZzb7EBVGGCqiWG-76" edge="1">
          <mxGeometry relative="1" as="geometry">
            <mxPoint x="1619" y="1566" as="sourcePoint" />
            <Array as="points">
              <mxPoint x="1660" y="1566" />
              <mxPoint x="1660" y="868" />
            </Array>
          </mxGeometry>
        </mxCell>
        <mxCell id="b_YgQPZzb7EBVGGCqiWG-115" value="Renter" style="shape=table;startSize=30;container=1;collapsible=0;childLayout=tableLayout;fontSize=20;fontStyle=1;align=center;labelBackgroundColor=none;fillColor=#A9C4EB;strokeWidth=4;rounded=1;" parent="1" vertex="1">
          <mxGeometry x="1415.3899999999999" y="1515.8" width="204" height="100.19999999999982" as="geometry" />
        </mxCell>
        <mxCell id="b_YgQPZzb7EBVGGCqiWG-116" value="" style="shape=tableRow;horizontal=0;startSize=0;swimlaneHead=0;swimlaneBody=0;top=0;left=0;bottom=0;right=0;collapsible=0;dropTarget=0;fillColor=#FFCCFF;points=[[0,0.5],[1,0.5]];portConstraint=eastwest;fontSize=20;fontStyle=1;align=left;labelBackgroundColor=none;strokeWidth=4;rounded=1;" parent="b_YgQPZzb7EBVGGCqiWG-115" vertex="1">
          <mxGeometry y="30" width="204" height="35" as="geometry" />
        </mxCell>
        <mxCell id="b_YgQPZzb7EBVGGCqiWG-117" value="UserId" style="shape=partialRectangle;html=1;whiteSpace=wrap;connectable=0;overflow=hidden;top=0;left=0;bottom=0;right=0;pointerEvents=1;fontSize=20;fontStyle=1;align=left;labelBackgroundColor=none;fillColor=#FFCCFF;strokeWidth=4;rounded=1;" parent="b_YgQPZzb7EBVGGCqiWG-116" vertex="1">
          <mxGeometry width="204" height="35" as="geometry">
            <mxRectangle width="204" height="35" as="alternateBounds" />
          </mxGeometry>
        </mxCell>
        <mxCell id="CjuFXL-HoM3eAUFVXLad-24" style="shape=tableRow;horizontal=0;startSize=0;swimlaneHead=0;swimlaneBody=0;top=0;left=0;bottom=0;right=0;collapsible=0;dropTarget=0;fillColor=#FFCCFF;points=[[0,0.5],[1,0.5]];portConstraint=eastwest;fontSize=20;fontStyle=1;align=left;labelBackgroundColor=none;strokeWidth=4;rounded=1;" parent="b_YgQPZzb7EBVGGCqiWG-115" vertex="1">
          <mxGeometry y="65" width="204" height="35" as="geometry" />
        </mxCell>
        <mxCell id="CjuFXL-HoM3eAUFVXLad-25" value="StripeAccount" style="shape=partialRectangle;html=1;whiteSpace=wrap;connectable=0;overflow=hidden;top=0;left=0;bottom=0;right=0;pointerEvents=1;fontSize=20;fontStyle=1;align=left;labelBackgroundColor=none;fillColor=#FFCCFF;strokeWidth=4;rounded=1;" parent="CjuFXL-HoM3eAUFVXLad-24" vertex="1">
          <mxGeometry width="204" height="35" as="geometry">
            <mxRectangle width="204" height="35" as="alternateBounds" />
          </mxGeometry>
        </mxCell>
        <mxCell id="b_YgQPZzb7EBVGGCqiWG-121" value="Unique Key" style="shape=partialRectangle;html=1;whiteSpace=wrap;connectable=0;overflow=hidden;fillColor=#F1FAFF;top=0;left=0;bottom=0;right=0;pointerEvents=1;fontSize=20;fontStyle=1;align=center;labelBackgroundColor=none;strokeWidth=4;rounded=1;" parent="1" vertex="1">
          <mxGeometry x="765" y="18" width="204" height="39" as="geometry">
            <mxRectangle width="204" height="39" as="alternateBounds" />
          </mxGeometry>
        </mxCell>
        <mxCell id="b_YgQPZzb7EBVGGCqiWG-122" value="&lt;u&gt;Primary Key&lt;/u&gt;" style="shape=partialRectangle;html=1;whiteSpace=wrap;connectable=0;overflow=hidden;top=0;left=0;bottom=0;right=0;pointerEvents=1;fontSize=20;fontStyle=1;align=center;labelBackgroundColor=none;fillColor=#99FFCC;strokeWidth=4;rounded=1;" parent="1" vertex="1">
          <mxGeometry x="1003" y="18" width="204" height="39" as="geometry">
            <mxRectangle width="204" height="39" as="alternateBounds" />
          </mxGeometry>
        </mxCell>
        <mxCell id="b_YgQPZzb7EBVGGCqiWG-123" value="Foreign Key" style="shape=partialRectangle;html=1;whiteSpace=wrap;connectable=0;overflow=hidden;top=0;left=0;bottom=0;right=0;pointerEvents=1;fontSize=20;fontStyle=1;align=center;labelBackgroundColor=none;fillColor=#FFCCFF;strokeWidth=4;rounded=1;" parent="1" vertex="1">
          <mxGeometry x="1241" y="18" width="204" height="39" as="geometry">
            <mxRectangle width="204" height="39" as="alternateBounds" />
          </mxGeometry>
        </mxCell>
        <mxCell id="b_YgQPZzb7EBVGGCqiWG-124" value="&lt;span&gt;Entity&lt;/span&gt;" style="shape=partialRectangle;html=1;whiteSpace=wrap;connectable=0;overflow=hidden;top=0;left=0;bottom=0;right=0;pointerEvents=1;fontSize=20;fontStyle=1;align=center;labelBackgroundColor=none;fillColor=#A9C4EB;strokeWidth=4;rounded=1;" parent="1" vertex="1">
          <mxGeometry x="527" y="18" width="204" height="39" as="geometry">
            <mxRectangle width="204" height="39" as="alternateBounds" />
          </mxGeometry>
        </mxCell>
        <mxCell id="b_YgQPZzb7EBVGGCqiWG-188" value="VehicleImages" style="shape=table;startSize=30;container=1;collapsible=0;childLayout=tableLayout;fontSize=20;fontStyle=1;align=center;labelBackgroundColor=none;fillColor=#A9C4EB;strokeWidth=4;rounded=1;" parent="1" vertex="1">
          <mxGeometry x="1752.4" y="2159.8" width="204" height="108" as="geometry" />
        </mxCell>
        <mxCell id="b_YgQPZzb7EBVGGCqiWG-189" value="" style="shape=tableRow;horizontal=0;startSize=0;swimlaneHead=0;swimlaneBody=0;top=0;left=0;bottom=0;right=0;collapsible=0;dropTarget=0;fillColor=#99FFCC;points=[[0,0.5],[1,0.5]];portConstraint=eastwest;fontSize=20;fontStyle=1;align=left;labelBackgroundColor=none;strokeWidth=4;rounded=1;" parent="b_YgQPZzb7EBVGGCqiWG-188" vertex="1">
          <mxGeometry y="30" width="204" height="39" as="geometry" />
        </mxCell>
        <mxCell id="b_YgQPZzb7EBVGGCqiWG-190" value="&lt;u&gt;VehicleId&lt;/u&gt;" style="shape=partialRectangle;html=1;whiteSpace=wrap;connectable=0;overflow=hidden;top=0;left=0;bottom=0;right=0;pointerEvents=1;fontSize=20;fontStyle=1;align=left;labelBackgroundColor=none;fillColor=#FFCCFF;strokeWidth=4;rounded=1;" parent="b_YgQPZzb7EBVGGCqiWG-189" vertex="1">
          <mxGeometry width="204" height="39" as="geometry">
            <mxRectangle width="204" height="39" as="alternateBounds" />
          </mxGeometry>
        </mxCell>
        <mxCell id="b_YgQPZzb7EBVGGCqiWG-191" style="shape=tableRow;horizontal=0;startSize=0;swimlaneHead=0;swimlaneBody=0;top=0;left=0;bottom=0;right=0;collapsible=0;dropTarget=0;fillColor=none;points=[[0,0.5],[1,0.5]];portConstraint=eastwest;fontSize=20;fontStyle=1;align=left;labelBackgroundColor=none;strokeWidth=4;rounded=1;" parent="b_YgQPZzb7EBVGGCqiWG-188" vertex="1">
          <mxGeometry y="69" width="204" height="39" as="geometry" />
        </mxCell>
        <mxCell id="b_YgQPZzb7EBVGGCqiWG-192" value="&lt;u&gt;Image&lt;/u&gt;" style="shape=partialRectangle;html=1;whiteSpace=wrap;connectable=0;overflow=hidden;top=0;left=0;bottom=0;right=0;pointerEvents=1;fontSize=20;fontStyle=1;align=left;labelBackgroundColor=none;fillColor=none;strokeWidth=4;rounded=1;" parent="b_YgQPZzb7EBVGGCqiWG-191" vertex="1">
          <mxGeometry width="204" height="39" as="geometry">
            <mxRectangle width="204" height="39" as="alternateBounds" />
          </mxGeometry>
        </mxCell>
        <mxCell id="b_YgQPZzb7EBVGGCqiWG-159" value="Vehicle" style="shape=table;startSize=30;container=1;collapsible=0;childLayout=tableLayout;fontSize=20;fontStyle=1;align=center;labelBackgroundColor=none;fillColor=#A9C4EB;strokeWidth=4;rounded=1;" parent="1" vertex="1">
          <mxGeometry x="1381.3899999999999" y="2314.8" width="204" height="770" as="geometry" />
        </mxCell>
        <mxCell id="b_YgQPZzb7EBVGGCqiWG-160" value="" style="shape=tableRow;horizontal=0;startSize=0;swimlaneHead=0;swimlaneBody=0;top=0;left=0;bottom=0;right=0;collapsible=0;dropTarget=0;fillColor=none;points=[[0,0.5],[1,0.5]];portConstraint=eastwest;fontSize=20;fontStyle=1;align=left;labelBackgroundColor=none;strokeWidth=4;rounded=1;" parent="b_YgQPZzb7EBVGGCqiWG-159" vertex="1">
          <mxGeometry y="30" width="204" height="39" as="geometry" />
        </mxCell>
        <mxCell id="b_YgQPZzb7EBVGGCqiWG-161" value="&lt;u&gt;Id&lt;/u&gt;" style="shape=partialRectangle;html=1;whiteSpace=wrap;connectable=0;overflow=hidden;top=0;left=0;bottom=0;right=0;pointerEvents=1;fontSize=20;fontStyle=1;align=left;labelBackgroundColor=none;fillColor=#99FFCC;strokeWidth=4;rounded=1;" parent="b_YgQPZzb7EBVGGCqiWG-160" vertex="1">
          <mxGeometry width="204" height="39" as="geometry">
            <mxRectangle width="204" height="39" as="alternateBounds" />
          </mxGeometry>
        </mxCell>
        <mxCell id="b_YgQPZzb7EBVGGCqiWG-162" value="" style="shape=tableRow;horizontal=0;startSize=0;swimlaneHead=0;swimlaneBody=0;top=0;left=0;bottom=0;right=0;collapsible=0;dropTarget=0;fillColor=none;points=[[0,0.5],[1,0.5]];portConstraint=eastwest;fontSize=20;fontStyle=1;align=left;labelBackgroundColor=none;strokeWidth=4;rounded=1;" parent="b_YgQPZzb7EBVGGCqiWG-159" vertex="1">
          <mxGeometry y="69" width="204" height="39" as="geometry" />
        </mxCell>
        <mxCell id="b_YgQPZzb7EBVGGCqiWG-163" value="renterId" style="shape=partialRectangle;html=1;whiteSpace=wrap;connectable=0;overflow=hidden;fillColor=#FFCCFF;top=0;left=0;bottom=0;right=0;pointerEvents=1;fontSize=20;fontStyle=1;align=left;labelBackgroundColor=none;strokeWidth=4;rounded=1;" parent="b_YgQPZzb7EBVGGCqiWG-162" vertex="1">
          <mxGeometry width="204" height="39" as="geometry">
            <mxRectangle width="204" height="39" as="alternateBounds" />
          </mxGeometry>
        </mxCell>
        <mxCell id="b_YgQPZzb7EBVGGCqiWG-166" value="" style="shape=tableRow;horizontal=0;startSize=0;swimlaneHead=0;swimlaneBody=0;top=0;left=0;bottom=0;right=0;collapsible=0;dropTarget=0;fillColor=none;points=[[0,0.5],[1,0.5]];portConstraint=eastwest;fontSize=20;fontStyle=1;align=left;labelBackgroundColor=none;strokeWidth=4;rounded=1;" parent="b_YgQPZzb7EBVGGCqiWG-159" vertex="1">
          <mxGeometry y="108" width="204" height="38" as="geometry" />
        </mxCell>
        <mxCell id="b_YgQPZzb7EBVGGCqiWG-167" value="BrandId" style="shape=partialRectangle;html=1;whiteSpace=wrap;connectable=0;overflow=hidden;fillColor=#FFCCFF;top=0;left=0;bottom=0;right=0;pointerEvents=1;fontSize=20;fontStyle=1;align=left;labelBackgroundColor=none;strokeWidth=4;rounded=1;" parent="b_YgQPZzb7EBVGGCqiWG-166" vertex="1">
          <mxGeometry width="204" height="38" as="geometry">
            <mxRectangle width="204" height="38" as="alternateBounds" />
          </mxGeometry>
        </mxCell>
        <mxCell id="b_YgQPZzb7EBVGGCqiWG-198" style="shape=tableRow;horizontal=0;startSize=0;swimlaneHead=0;swimlaneBody=0;top=0;left=0;bottom=0;right=0;collapsible=0;dropTarget=0;fillColor=none;points=[[0,0.5],[1,0.5]];portConstraint=eastwest;fontSize=20;fontStyle=1;align=left;labelBackgroundColor=none;strokeWidth=4;rounded=1;" parent="b_YgQPZzb7EBVGGCqiWG-159" vertex="1">
          <mxGeometry y="146" width="204" height="39" as="geometry" />
        </mxCell>
        <mxCell id="b_YgQPZzb7EBVGGCqiWG-199" value="TypeId" style="shape=partialRectangle;html=1;whiteSpace=wrap;connectable=0;overflow=hidden;fillColor=#FFCCFF;top=0;left=0;bottom=0;right=0;pointerEvents=1;fontSize=20;fontStyle=1;align=left;labelBackgroundColor=none;strokeWidth=4;rounded=1;" parent="b_YgQPZzb7EBVGGCqiWG-198" vertex="1">
          <mxGeometry width="204" height="39" as="geometry">
            <mxRectangle width="204" height="39" as="alternateBounds" />
          </mxGeometry>
        </mxCell>
        <mxCell id="b_YgQPZzb7EBVGGCqiWG-164" value="" style="shape=tableRow;horizontal=0;startSize=0;swimlaneHead=0;swimlaneBody=0;top=0;left=0;bottom=0;right=0;collapsible=0;dropTarget=0;fillColor=none;points=[[0,0.5],[1,0.5]];portConstraint=eastwest;fontSize=20;fontStyle=1;align=left;labelBackgroundColor=none;strokeWidth=4;rounded=1;" parent="b_YgQPZzb7EBVGGCqiWG-159" vertex="1">
          <mxGeometry y="185" width="204" height="39" as="geometry" />
        </mxCell>
        <mxCell id="b_YgQPZzb7EBVGGCqiWG-165" value="AddedAt" style="shape=partialRectangle;html=1;whiteSpace=wrap;connectable=0;overflow=hidden;fillColor=none;top=0;left=0;bottom=0;right=0;pointerEvents=1;fontSize=20;fontStyle=1;align=left;labelBackgroundColor=none;strokeWidth=4;rounded=1;" parent="b_YgQPZzb7EBVGGCqiWG-164" vertex="1">
          <mxGeometry width="204" height="39" as="geometry">
            <mxRectangle width="204" height="39" as="alternateBounds" />
          </mxGeometry>
        </mxCell>
        <mxCell id="b_YgQPZzb7EBVGGCqiWG-168" value="" style="shape=tableRow;horizontal=0;startSize=0;swimlaneHead=0;swimlaneBody=0;top=0;left=0;bottom=0;right=0;collapsible=0;dropTarget=0;fillColor=none;points=[[0,0.5],[1,0.5]];portConstraint=eastwest;fontSize=20;fontStyle=1;align=left;labelBackgroundColor=none;strokeWidth=4;rounded=1;" parent="b_YgQPZzb7EBVGGCqiWG-159" vertex="1">
          <mxGeometry y="224" width="204" height="39" as="geometry" />
        </mxCell>
        <mxCell id="b_YgQPZzb7EBVGGCqiWG-169" value="Model" style="shape=partialRectangle;html=1;whiteSpace=wrap;connectable=0;overflow=hidden;fillColor=none;top=0;left=0;bottom=0;right=0;pointerEvents=1;fontSize=20;fontStyle=1;align=left;labelBackgroundColor=none;strokeWidth=4;rounded=1;" parent="b_YgQPZzb7EBVGGCqiWG-168" vertex="1">
          <mxGeometry width="204" height="39" as="geometry">
            <mxRectangle width="204" height="39" as="alternateBounds" />
          </mxGeometry>
        </mxCell>
        <mxCell id="b_YgQPZzb7EBVGGCqiWG-170" value="" style="shape=tableRow;horizontal=0;startSize=0;swimlaneHead=0;swimlaneBody=0;top=0;left=0;bottom=0;right=0;collapsible=0;dropTarget=0;fillColor=none;points=[[0,0.5],[1,0.5]];portConstraint=eastwest;fontSize=20;fontStyle=1;align=left;labelBackgroundColor=none;strokeWidth=4;rounded=1;" parent="b_YgQPZzb7EBVGGCqiWG-159" vertex="1">
          <mxGeometry y="263" width="204" height="39" as="geometry" />
        </mxCell>
        <mxCell id="b_YgQPZzb7EBVGGCqiWG-171" value="Year" style="shape=partialRectangle;html=1;whiteSpace=wrap;connectable=0;overflow=hidden;fillColor=none;top=0;left=0;bottom=0;right=0;pointerEvents=1;fontSize=20;fontStyle=1;align=left;labelBackgroundColor=none;strokeWidth=4;rounded=1;" parent="b_YgQPZzb7EBVGGCqiWG-170" vertex="1">
          <mxGeometry width="204" height="39" as="geometry">
            <mxRectangle width="204" height="39" as="alternateBounds" />
          </mxGeometry>
        </mxCell>
        <mxCell id="b_YgQPZzb7EBVGGCqiWG-196" style="shape=tableRow;horizontal=0;startSize=0;swimlaneHead=0;swimlaneBody=0;top=0;left=0;bottom=0;right=0;collapsible=0;dropTarget=0;fillColor=none;points=[[0,0.5],[1,0.5]];portConstraint=eastwest;fontSize=20;fontStyle=1;align=left;labelBackgroundColor=none;strokeWidth=4;rounded=1;" parent="b_YgQPZzb7EBVGGCqiWG-159" vertex="1">
          <mxGeometry y="302" width="204" height="39" as="geometry" />
        </mxCell>
        <mxCell id="b_YgQPZzb7EBVGGCqiWG-197" value="MainImage" style="shape=partialRectangle;html=1;whiteSpace=wrap;connectable=0;overflow=hidden;fillColor=none;top=0;left=0;bottom=0;right=0;pointerEvents=1;fontSize=20;fontStyle=1;align=left;labelBackgroundColor=none;strokeWidth=4;rounded=1;" parent="b_YgQPZzb7EBVGGCqiWG-196" vertex="1">
          <mxGeometry width="204" height="39" as="geometry">
            <mxRectangle width="204" height="39" as="alternateBounds" />
          </mxGeometry>
        </mxCell>
        <mxCell id="b_YgQPZzb7EBVGGCqiWG-172" value="" style="shape=tableRow;horizontal=0;startSize=0;swimlaneHead=0;swimlaneBody=0;top=0;left=0;bottom=0;right=0;collapsible=0;dropTarget=0;fillColor=none;points=[[0,0.5],[1,0.5]];portConstraint=eastwest;fontSize=20;fontStyle=1;align=left;labelBackgroundColor=none;strokeWidth=4;rounded=1;" parent="b_YgQPZzb7EBVGGCqiWG-159" vertex="1">
          <mxGeometry y="341" width="204" height="39" as="geometry" />
        </mxCell>
        <mxCell id="b_YgQPZzb7EBVGGCqiWG-173" value="NumOfPassengers" style="shape=partialRectangle;html=1;whiteSpace=wrap;connectable=0;overflow=hidden;fillColor=none;top=0;left=0;bottom=0;right=0;pointerEvents=1;fontSize=20;fontStyle=1;align=left;labelBackgroundColor=none;strokeWidth=4;rounded=1;" parent="b_YgQPZzb7EBVGGCqiWG-172" vertex="1">
          <mxGeometry width="204" height="39" as="geometry">
            <mxRectangle width="204" height="39" as="alternateBounds" />
          </mxGeometry>
        </mxCell>
        <mxCell id="b_YgQPZzb7EBVGGCqiWG-174" style="shape=tableRow;horizontal=0;startSize=0;swimlaneHead=0;swimlaneBody=0;top=0;left=0;bottom=0;right=0;collapsible=0;dropTarget=0;fillColor=none;points=[[0,0.5],[1,0.5]];portConstraint=eastwest;fontSize=20;fontStyle=1;align=left;labelBackgroundColor=none;strokeWidth=4;rounded=1;" parent="b_YgQPZzb7EBVGGCqiWG-159" vertex="1">
          <mxGeometry y="380" width="204" height="39" as="geometry" />
        </mxCell>
        <mxCell id="b_YgQPZzb7EBVGGCqiWG-175" value="Color" style="shape=partialRectangle;html=1;whiteSpace=wrap;connectable=0;overflow=hidden;fillColor=none;top=0;left=0;bottom=0;right=0;pointerEvents=1;fontSize=20;fontStyle=1;align=left;labelBackgroundColor=none;strokeWidth=4;rounded=1;" parent="b_YgQPZzb7EBVGGCqiWG-174" vertex="1">
          <mxGeometry width="204" height="39" as="geometry">
            <mxRectangle width="204" height="39" as="alternateBounds" />
          </mxGeometry>
        </mxCell>
        <mxCell id="b_YgQPZzb7EBVGGCqiWG-176" style="shape=tableRow;horizontal=0;startSize=0;swimlaneHead=0;swimlaneBody=0;top=0;left=0;bottom=0;right=0;collapsible=0;dropTarget=0;fillColor=none;points=[[0,0.5],[1,0.5]];portConstraint=eastwest;fontSize=20;fontStyle=1;align=left;labelBackgroundColor=none;strokeWidth=4;rounded=1;" parent="b_YgQPZzb7EBVGGCqiWG-159" vertex="1">
          <mxGeometry y="419" width="204" height="39" as="geometry" />
        </mxCell>
        <mxCell id="b_YgQPZzb7EBVGGCqiWG-177" value="Status" style="shape=partialRectangle;html=1;whiteSpace=wrap;connectable=0;overflow=hidden;fillColor=none;top=0;left=0;bottom=0;right=0;pointerEvents=1;fontSize=20;fontStyle=1;align=left;labelBackgroundColor=none;strokeWidth=4;rounded=1;" parent="b_YgQPZzb7EBVGGCqiWG-176" vertex="1">
          <mxGeometry width="204" height="39" as="geometry">
            <mxRectangle width="204" height="39" as="alternateBounds" />
          </mxGeometry>
        </mxCell>
        <mxCell id="b_YgQPZzb7EBVGGCqiWG-178" style="shape=tableRow;horizontal=0;startSize=0;swimlaneHead=0;swimlaneBody=0;top=0;left=0;bottom=0;right=0;collapsible=0;dropTarget=0;fillColor=none;points=[[0,0.5],[1,0.5]];portConstraint=eastwest;fontSize=20;fontStyle=1;align=left;labelBackgroundColor=none;strokeWidth=4;rounded=1;" parent="b_YgQPZzb7EBVGGCqiWG-159" vertex="1">
          <mxGeometry y="458" width="204" height="39" as="geometry" />
        </mxCell>
        <mxCell id="b_YgQPZzb7EBVGGCqiWG-179" value="PhysicalStatus" style="shape=partialRectangle;html=1;whiteSpace=wrap;connectable=0;overflow=hidden;fillColor=none;top=0;left=0;bottom=0;right=0;pointerEvents=1;fontSize=20;fontStyle=1;align=left;labelBackgroundColor=none;strokeWidth=4;rounded=1;" parent="b_YgQPZzb7EBVGGCqiWG-178" vertex="1">
          <mxGeometry width="204" height="39" as="geometry">
            <mxRectangle width="204" height="39" as="alternateBounds" />
          </mxGeometry>
        </mxCell>
        <mxCell id="xN6irTRVzxP0yP95KQgn-3" style="shape=tableRow;horizontal=0;startSize=0;swimlaneHead=0;swimlaneBody=0;top=0;left=0;bottom=0;right=0;collapsible=0;dropTarget=0;fillColor=none;points=[[0,0.5],[1,0.5]];portConstraint=eastwest;fontSize=20;fontStyle=1;align=left;labelBackgroundColor=none;strokeWidth=4;rounded=1;" parent="b_YgQPZzb7EBVGGCqiWG-159" vertex="1">
          <mxGeometry y="497" width="204" height="39" as="geometry" />
        </mxCell>
        <mxCell id="xN6irTRVzxP0yP95KQgn-4" value="PricePerHour" style="shape=partialRectangle;html=1;whiteSpace=wrap;connectable=0;overflow=hidden;fillColor=none;top=0;left=0;bottom=0;right=0;pointerEvents=1;fontSize=20;fontStyle=1;align=left;labelBackgroundColor=none;strokeWidth=4;rounded=1;" parent="xN6irTRVzxP0yP95KQgn-3" vertex="1">
          <mxGeometry width="204" height="39" as="geometry">
            <mxRectangle width="204" height="39" as="alternateBounds" />
          </mxGeometry>
        </mxCell>
        <mxCell id="b_YgQPZzb7EBVGGCqiWG-180" style="shape=tableRow;horizontal=0;startSize=0;swimlaneHead=0;swimlaneBody=0;top=0;left=0;bottom=0;right=0;collapsible=0;dropTarget=0;fillColor=none;points=[[0,0.5],[1,0.5]];portConstraint=eastwest;fontSize=20;fontStyle=1;align=left;labelBackgroundColor=none;strokeWidth=4;rounded=1;" parent="b_YgQPZzb7EBVGGCqiWG-159" vertex="1">
          <mxGeometry y="536" width="204" height="39" as="geometry" />
        </mxCell>
        <mxCell id="b_YgQPZzb7EBVGGCqiWG-181" value="PricePerDay" style="shape=partialRectangle;html=1;whiteSpace=wrap;connectable=0;overflow=hidden;fillColor=none;top=0;left=0;bottom=0;right=0;pointerEvents=1;fontSize=20;fontStyle=1;align=left;labelBackgroundColor=none;strokeWidth=4;rounded=1;" parent="b_YgQPZzb7EBVGGCqiWG-180" vertex="1">
          <mxGeometry width="204" height="39" as="geometry">
            <mxRectangle width="204" height="39" as="alternateBounds" />
          </mxGeometry>
        </mxCell>
        <mxCell id="b_YgQPZzb7EBVGGCqiWG-182" style="shape=tableRow;horizontal=0;startSize=0;swimlaneHead=0;swimlaneBody=0;top=0;left=0;bottom=0;right=0;collapsible=0;dropTarget=0;fillColor=none;points=[[0,0.5],[1,0.5]];portConstraint=eastwest;fontSize=20;fontStyle=1;align=left;labelBackgroundColor=none;strokeWidth=4;rounded=1;" parent="b_YgQPZzb7EBVGGCqiWG-159" vertex="1">
          <mxGeometry y="575" width="204" height="39" as="geometry" />
        </mxCell>
        <mxCell id="b_YgQPZzb7EBVGGCqiWG-183" value="PricePerMonth" style="shape=partialRectangle;html=1;whiteSpace=wrap;connectable=0;overflow=hidden;fillColor=none;top=0;left=0;bottom=0;right=0;pointerEvents=1;fontSize=20;fontStyle=1;align=left;labelBackgroundColor=none;strokeWidth=4;rounded=1;" parent="b_YgQPZzb7EBVGGCqiWG-182" vertex="1">
          <mxGeometry width="204" height="39" as="geometry">
            <mxRectangle width="204" height="39" as="alternateBounds" />
          </mxGeometry>
        </mxCell>
        <mxCell id="b_YgQPZzb7EBVGGCqiWG-184" style="shape=tableRow;horizontal=0;startSize=0;swimlaneHead=0;swimlaneBody=0;top=0;left=0;bottom=0;right=0;collapsible=0;dropTarget=0;fillColor=none;points=[[0,0.5],[1,0.5]];portConstraint=eastwest;fontSize=20;fontStyle=1;align=left;labelBackgroundColor=none;strokeWidth=4;rounded=1;" parent="b_YgQPZzb7EBVGGCqiWG-159" vertex="1">
          <mxGeometry y="614" width="204" height="39" as="geometry" />
        </mxCell>
        <mxCell id="b_YgQPZzb7EBVGGCqiWG-185" value="GeoLocation" style="shape=partialRectangle;html=1;whiteSpace=wrap;connectable=0;overflow=hidden;fillColor=none;top=0;left=0;bottom=0;right=0;pointerEvents=1;fontSize=20;fontStyle=1;align=left;labelBackgroundColor=none;strokeWidth=4;rounded=1;" parent="b_YgQPZzb7EBVGGCqiWG-184" vertex="1">
          <mxGeometry width="204" height="39" as="geometry">
            <mxRectangle width="204" height="39" as="alternateBounds" />
          </mxGeometry>
        </mxCell>
        <mxCell id="b_YgQPZzb7EBVGGCqiWG-268" style="shape=tableRow;horizontal=0;startSize=0;swimlaneHead=0;swimlaneBody=0;top=0;left=0;bottom=0;right=0;collapsible=0;dropTarget=0;fillColor=none;points=[[0,0.5],[1,0.5]];portConstraint=eastwest;fontSize=20;fontStyle=1;align=left;labelBackgroundColor=none;strokeWidth=4;rounded=1;" parent="b_YgQPZzb7EBVGGCqiWG-159" vertex="1">
          <mxGeometry y="653" width="204" height="39" as="geometry" />
        </mxCell>
        <mxCell id="b_YgQPZzb7EBVGGCqiWG-269" value="Requirements" style="shape=partialRectangle;html=1;whiteSpace=wrap;connectable=0;overflow=hidden;fillColor=none;top=0;left=0;bottom=0;right=0;pointerEvents=1;fontSize=20;fontStyle=1;align=left;labelBackgroundColor=none;strokeWidth=4;rounded=1;" parent="b_YgQPZzb7EBVGGCqiWG-268" vertex="1">
          <mxGeometry width="204" height="39" as="geometry">
            <mxRectangle width="204" height="39" as="alternateBounds" />
          </mxGeometry>
        </mxCell>
        <mxCell id="b_YgQPZzb7EBVGGCqiWG-186" style="shape=tableRow;horizontal=0;startSize=0;swimlaneHead=0;swimlaneBody=0;top=0;left=0;bottom=0;right=0;collapsible=0;dropTarget=0;fillColor=none;points=[[0,0.5],[1,0.5]];portConstraint=eastwest;fontSize=20;fontStyle=1;align=left;labelBackgroundColor=none;strokeWidth=4;rounded=1;" parent="b_YgQPZzb7EBVGGCqiWG-159" vertex="1">
          <mxGeometry y="692" width="204" height="39" as="geometry" />
        </mxCell>
        <mxCell id="b_YgQPZzb7EBVGGCqiWG-187" value="ExtraDetails" style="shape=partialRectangle;html=1;whiteSpace=wrap;connectable=0;overflow=hidden;fillColor=none;top=0;left=0;bottom=0;right=0;pointerEvents=1;fontSize=20;fontStyle=1;align=left;labelBackgroundColor=none;strokeWidth=4;rounded=1;" parent="b_YgQPZzb7EBVGGCqiWG-186" vertex="1">
          <mxGeometry width="204" height="39" as="geometry">
            <mxRectangle width="204" height="39" as="alternateBounds" />
          </mxGeometry>
        </mxCell>
        <mxCell id="PkPG3WxuKsKkiC19nM9B-49" style="shape=tableRow;horizontal=0;startSize=0;swimlaneHead=0;swimlaneBody=0;top=0;left=0;bottom=0;right=0;collapsible=0;dropTarget=0;fillColor=none;points=[[0,0.5],[1,0.5]];portConstraint=eastwest;fontSize=20;fontStyle=1;align=left;labelBackgroundColor=none;strokeWidth=4;rounded=1;" parent="b_YgQPZzb7EBVGGCqiWG-159" vertex="1">
          <mxGeometry y="731" width="204" height="39" as="geometry" />
        </mxCell>
        <mxCell id="PkPG3WxuKsKkiC19nM9B-50" value="WarningCount" style="shape=partialRectangle;html=1;whiteSpace=wrap;connectable=0;overflow=hidden;fillColor=none;top=0;left=0;bottom=0;right=0;pointerEvents=1;fontSize=20;fontStyle=1;align=left;labelBackgroundColor=none;strokeWidth=4;rounded=1;" parent="PkPG3WxuKsKkiC19nM9B-49" vertex="1">
          <mxGeometry width="204" height="39" as="geometry">
            <mxRectangle width="204" height="39" as="alternateBounds" />
          </mxGeometry>
        </mxCell>
        <mxCell id="b_YgQPZzb7EBVGGCqiWG-200" value="Brand" style="shape=table;startSize=30;container=1;collapsible=0;childLayout=tableLayout;fontSize=20;fontStyle=1;align=center;labelBackgroundColor=none;fillColor=#A9C4EB;strokeWidth=4;rounded=1;" parent="1" vertex="1">
          <mxGeometry x="1769.4" y="2314.8" width="204" height="186" as="geometry" />
        </mxCell>
        <mxCell id="b_YgQPZzb7EBVGGCqiWG-201" value="" style="shape=tableRow;horizontal=0;startSize=0;swimlaneHead=0;swimlaneBody=0;top=0;left=0;bottom=0;right=0;collapsible=0;dropTarget=0;fillColor=#FFCCFF;points=[[0,0.5],[1,0.5]];portConstraint=eastwest;fontSize=20;fontStyle=1;align=left;labelBackgroundColor=none;strokeWidth=4;rounded=1;" parent="b_YgQPZzb7EBVGGCqiWG-200" vertex="1">
          <mxGeometry y="30" width="204" height="39" as="geometry" />
        </mxCell>
        <mxCell id="b_YgQPZzb7EBVGGCqiWG-202" value="&lt;u&gt;Id&lt;/u&gt;" style="shape=partialRectangle;html=1;whiteSpace=wrap;connectable=0;overflow=hidden;top=0;left=0;bottom=0;right=0;pointerEvents=1;fontSize=20;fontStyle=1;align=left;labelBackgroundColor=none;fillColor=#99FFCC;strokeWidth=4;rounded=1;" parent="b_YgQPZzb7EBVGGCqiWG-201" vertex="1">
          <mxGeometry width="204" height="39" as="geometry">
            <mxRectangle width="204" height="39" as="alternateBounds" />
          </mxGeometry>
        </mxCell>
        <mxCell id="b_YgQPZzb7EBVGGCqiWG-203" style="shape=tableRow;horizontal=0;startSize=0;swimlaneHead=0;swimlaneBody=0;top=0;left=0;bottom=0;right=0;collapsible=0;dropTarget=0;fillColor=none;points=[[0,0.5],[1,0.5]];portConstraint=eastwest;fontSize=20;fontStyle=1;align=left;labelBackgroundColor=none;strokeWidth=4;rounded=1;" parent="b_YgQPZzb7EBVGGCqiWG-200" vertex="1">
          <mxGeometry y="69" width="204" height="39" as="geometry" />
        </mxCell>
        <mxCell id="b_YgQPZzb7EBVGGCqiWG-204" value="Name" style="shape=partialRectangle;html=1;whiteSpace=wrap;connectable=0;overflow=hidden;top=0;left=0;bottom=0;right=0;pointerEvents=1;fontSize=20;fontStyle=1;align=left;labelBackgroundColor=none;fillColor=none;strokeWidth=4;rounded=1;" parent="b_YgQPZzb7EBVGGCqiWG-203" vertex="1">
          <mxGeometry width="204" height="39" as="geometry">
            <mxRectangle width="204" height="39" as="alternateBounds" />
          </mxGeometry>
        </mxCell>
        <mxCell id="b_YgQPZzb7EBVGGCqiWG-205" style="shape=tableRow;horizontal=0;startSize=0;swimlaneHead=0;swimlaneBody=0;top=0;left=0;bottom=0;right=0;collapsible=0;dropTarget=0;fillColor=none;points=[[0,0.5],[1,0.5]];portConstraint=eastwest;fontSize=20;fontStyle=1;align=left;labelBackgroundColor=none;strokeWidth=4;rounded=1;" parent="b_YgQPZzb7EBVGGCqiWG-200" vertex="1">
          <mxGeometry y="108" width="204" height="39" as="geometry" />
        </mxCell>
        <mxCell id="b_YgQPZzb7EBVGGCqiWG-206" value="Country" style="shape=partialRectangle;html=1;whiteSpace=wrap;connectable=0;overflow=hidden;top=0;left=0;bottom=0;right=0;pointerEvents=1;fontSize=20;fontStyle=1;align=left;labelBackgroundColor=none;fillColor=none;strokeWidth=4;rounded=1;" parent="b_YgQPZzb7EBVGGCqiWG-205" vertex="1">
          <mxGeometry width="204" height="39" as="geometry">
            <mxRectangle width="204" height="39" as="alternateBounds" />
          </mxGeometry>
        </mxCell>
        <mxCell id="b_YgQPZzb7EBVGGCqiWG-207" style="shape=tableRow;horizontal=0;startSize=0;swimlaneHead=0;swimlaneBody=0;top=0;left=0;bottom=0;right=0;collapsible=0;dropTarget=0;fillColor=none;points=[[0,0.5],[1,0.5]];portConstraint=eastwest;fontSize=20;fontStyle=1;align=left;labelBackgroundColor=none;strokeWidth=4;rounded=1;" parent="b_YgQPZzb7EBVGGCqiWG-200" vertex="1">
          <mxGeometry y="147" width="204" height="39" as="geometry" />
        </mxCell>
        <mxCell id="b_YgQPZzb7EBVGGCqiWG-208" value="Logo" style="shape=partialRectangle;html=1;whiteSpace=wrap;connectable=0;overflow=hidden;top=0;left=0;bottom=0;right=0;pointerEvents=1;fontSize=20;fontStyle=1;align=left;labelBackgroundColor=none;fillColor=none;strokeWidth=4;rounded=1;" parent="b_YgQPZzb7EBVGGCqiWG-207" vertex="1">
          <mxGeometry width="204" height="39" as="geometry">
            <mxRectangle width="204" height="39" as="alternateBounds" />
          </mxGeometry>
        </mxCell>
        <mxCell id="b_YgQPZzb7EBVGGCqiWG-213" value="Type" style="shape=table;startSize=30;container=1;collapsible=0;childLayout=tableLayout;fontSize=20;fontStyle=1;align=center;labelBackgroundColor=none;fillColor=#A9C4EB;strokeWidth=4;rounded=1;" parent="1" vertex="1">
          <mxGeometry x="1769.4" y="2531.3" width="204" height="186" as="geometry" />
        </mxCell>
        <mxCell id="b_YgQPZzb7EBVGGCqiWG-214" value="" style="shape=tableRow;horizontal=0;startSize=0;swimlaneHead=0;swimlaneBody=0;top=0;left=0;bottom=0;right=0;collapsible=0;dropTarget=0;fillColor=#FFCCFF;points=[[0,0.5],[1,0.5]];portConstraint=eastwest;fontSize=20;fontStyle=1;align=left;labelBackgroundColor=none;strokeWidth=4;rounded=1;" parent="b_YgQPZzb7EBVGGCqiWG-213" vertex="1">
          <mxGeometry y="30" width="204" height="39" as="geometry" />
        </mxCell>
        <mxCell id="b_YgQPZzb7EBVGGCqiWG-215" value="&lt;u&gt;Id&lt;/u&gt;" style="shape=partialRectangle;html=1;whiteSpace=wrap;connectable=0;overflow=hidden;top=0;left=0;bottom=0;right=0;pointerEvents=1;fontSize=20;fontStyle=1;align=left;labelBackgroundColor=none;fillColor=#99FFCC;strokeWidth=4;rounded=1;" parent="b_YgQPZzb7EBVGGCqiWG-214" vertex="1">
          <mxGeometry width="204" height="39" as="geometry">
            <mxRectangle width="204" height="39" as="alternateBounds" />
          </mxGeometry>
        </mxCell>
        <mxCell id="b_YgQPZzb7EBVGGCqiWG-216" style="shape=tableRow;horizontal=0;startSize=0;swimlaneHead=0;swimlaneBody=0;top=0;left=0;bottom=0;right=0;collapsible=0;dropTarget=0;fillColor=none;points=[[0,0.5],[1,0.5]];portConstraint=eastwest;fontSize=20;fontStyle=1;align=left;labelBackgroundColor=none;strokeWidth=4;rounded=1;" parent="b_YgQPZzb7EBVGGCqiWG-213" vertex="1">
          <mxGeometry y="69" width="204" height="39" as="geometry" />
        </mxCell>
        <mxCell id="b_YgQPZzb7EBVGGCqiWG-217" value="Name" style="shape=partialRectangle;html=1;whiteSpace=wrap;connectable=0;overflow=hidden;top=0;left=0;bottom=0;right=0;pointerEvents=1;fontSize=20;fontStyle=1;align=left;labelBackgroundColor=none;fillColor=none;strokeWidth=4;rounded=1;" parent="b_YgQPZzb7EBVGGCqiWG-216" vertex="1">
          <mxGeometry width="204" height="39" as="geometry">
            <mxRectangle width="204" height="39" as="alternateBounds" />
          </mxGeometry>
        </mxCell>
        <mxCell id="b_YgQPZzb7EBVGGCqiWG-218" style="shape=tableRow;horizontal=0;startSize=0;swimlaneHead=0;swimlaneBody=0;top=0;left=0;bottom=0;right=0;collapsible=0;dropTarget=0;fillColor=none;points=[[0,0.5],[1,0.5]];portConstraint=eastwest;fontSize=20;fontStyle=1;align=left;labelBackgroundColor=none;strokeWidth=4;rounded=1;" parent="b_YgQPZzb7EBVGGCqiWG-213" vertex="1">
          <mxGeometry y="108" width="204" height="39" as="geometry" />
        </mxCell>
        <mxCell id="b_YgQPZzb7EBVGGCqiWG-219" value="Category" style="shape=partialRectangle;html=1;whiteSpace=wrap;connectable=0;overflow=hidden;top=0;left=0;bottom=0;right=0;pointerEvents=1;fontSize=20;fontStyle=1;align=left;labelBackgroundColor=none;fillColor=none;strokeWidth=4;rounded=1;" parent="b_YgQPZzb7EBVGGCqiWG-218" vertex="1">
          <mxGeometry width="204" height="39" as="geometry">
            <mxRectangle width="204" height="39" as="alternateBounds" />
          </mxGeometry>
        </mxCell>
        <mxCell id="xN6irTRVzxP0yP95KQgn-5" style="shape=tableRow;horizontal=0;startSize=0;swimlaneHead=0;swimlaneBody=0;top=0;left=0;bottom=0;right=0;collapsible=0;dropTarget=0;fillColor=none;points=[[0,0.5],[1,0.5]];portConstraint=eastwest;fontSize=20;fontStyle=1;align=left;labelBackgroundColor=none;strokeWidth=4;rounded=1;" parent="b_YgQPZzb7EBVGGCqiWG-213" vertex="1">
          <mxGeometry y="147" width="204" height="39" as="geometry" />
        </mxCell>
        <mxCell id="xN6irTRVzxP0yP95KQgn-6" value="Slogen" style="shape=partialRectangle;html=1;whiteSpace=wrap;connectable=0;overflow=hidden;top=0;left=0;bottom=0;right=0;pointerEvents=1;fontSize=20;fontStyle=1;align=left;labelBackgroundColor=none;fillColor=none;strokeWidth=4;rounded=1;" parent="xN6irTRVzxP0yP95KQgn-5" vertex="1">
          <mxGeometry width="204" height="39" as="geometry">
            <mxRectangle width="204" height="39" as="alternateBounds" />
          </mxGeometry>
        </mxCell>
        <mxCell id="W14kpQmKhAgQ3yxK0qM7-34" style="edgeStyle=orthogonalEdgeStyle;rounded=1;orthogonalLoop=1;jettySize=auto;html=1;exitX=1;exitY=0.25;exitDx=0;exitDy=0;entryX=0;entryY=0.5;entryDx=0;entryDy=0;strokeColor=#457B9D;fontColor=#1D3557;fillColor=#A8DADC;strokeWidth=4;jumpStyle=arc;" parent="1" source="b_YgQPZzb7EBVGGCqiWG-222" target="b_YgQPZzb7EBVGGCqiWG-160" edge="1">
          <mxGeometry relative="1" as="geometry" />
        </mxCell>
        <mxCell id="b_YgQPZzb7EBVGGCqiWG-222" value="Booking" style="shape=table;startSize=30;container=1;collapsible=0;childLayout=tableLayout;fontSize=20;fontStyle=1;align=center;labelBackgroundColor=none;fillColor=#A9C4EB;strokeWidth=4;rounded=1;" parent="1" vertex="1">
          <mxGeometry x="973.3900000000001" y="2461.8" width="204" height="341" as="geometry" />
        </mxCell>
        <mxCell id="b_YgQPZzb7EBVGGCqiWG-223" value="" style="shape=tableRow;horizontal=0;startSize=0;swimlaneHead=0;swimlaneBody=0;top=0;left=0;bottom=0;right=0;collapsible=0;dropTarget=0;fillColor=none;points=[[0,0.5],[1,0.5]];portConstraint=eastwest;fontSize=20;fontStyle=1;align=left;labelBackgroundColor=none;strokeWidth=4;rounded=1;" parent="b_YgQPZzb7EBVGGCqiWG-222" vertex="1">
          <mxGeometry y="30" width="204" height="39" as="geometry" />
        </mxCell>
        <mxCell id="b_YgQPZzb7EBVGGCqiWG-224" value="&lt;u&gt;Id&lt;/u&gt;" style="shape=partialRectangle;html=1;whiteSpace=wrap;connectable=0;overflow=hidden;top=0;left=0;bottom=0;right=0;pointerEvents=1;fontSize=20;fontStyle=1;align=left;labelBackgroundColor=none;fillColor=#99FFCC;strokeWidth=4;rounded=1;" parent="b_YgQPZzb7EBVGGCqiWG-223" vertex="1">
          <mxGeometry width="204" height="39" as="geometry">
            <mxRectangle width="204" height="39" as="alternateBounds" />
          </mxGeometry>
        </mxCell>
        <mxCell id="b_YgQPZzb7EBVGGCqiWG-225" value="" style="shape=tableRow;horizontal=0;startSize=0;swimlaneHead=0;swimlaneBody=0;top=0;left=0;bottom=0;right=0;collapsible=0;dropTarget=0;fillColor=none;points=[[0,0.5],[1,0.5]];portConstraint=eastwest;fontSize=20;fontStyle=1;align=left;labelBackgroundColor=none;strokeWidth=4;rounded=1;" parent="b_YgQPZzb7EBVGGCqiWG-222" vertex="1">
          <mxGeometry y="69" width="204" height="39" as="geometry" />
        </mxCell>
        <mxCell id="b_YgQPZzb7EBVGGCqiWG-226" value="VehicleId" style="shape=partialRectangle;html=1;whiteSpace=wrap;connectable=0;overflow=hidden;fillColor=#FFCCFF;top=0;left=0;bottom=0;right=0;pointerEvents=1;fontSize=20;fontStyle=1;align=left;labelBackgroundColor=none;strokeWidth=4;rounded=1;" parent="b_YgQPZzb7EBVGGCqiWG-225" vertex="1">
          <mxGeometry width="204" height="39" as="geometry">
            <mxRectangle width="204" height="39" as="alternateBounds" />
          </mxGeometry>
        </mxCell>
        <mxCell id="b_YgQPZzb7EBVGGCqiWG-227" value="" style="shape=tableRow;horizontal=0;startSize=0;swimlaneHead=0;swimlaneBody=0;top=0;left=0;bottom=0;right=0;collapsible=0;dropTarget=0;fillColor=none;points=[[0,0.5],[1,0.5]];portConstraint=eastwest;fontSize=20;fontStyle=1;align=left;labelBackgroundColor=none;strokeWidth=4;rounded=1;" parent="b_YgQPZzb7EBVGGCqiWG-222" vertex="1">
          <mxGeometry y="108" width="204" height="39" as="geometry" />
        </mxCell>
        <mxCell id="b_YgQPZzb7EBVGGCqiWG-228" value="CustomerId" style="shape=partialRectangle;html=1;whiteSpace=wrap;connectable=0;overflow=hidden;fillColor=#FFCCFF;top=0;left=0;bottom=0;right=0;pointerEvents=1;fontSize=20;fontStyle=1;align=left;labelBackgroundColor=none;strokeWidth=4;rounded=1;" parent="b_YgQPZzb7EBVGGCqiWG-227" vertex="1">
          <mxGeometry width="204" height="39" as="geometry">
            <mxRectangle width="204" height="39" as="alternateBounds" />
          </mxGeometry>
        </mxCell>
        <mxCell id="b_YgQPZzb7EBVGGCqiWG-237" value="" style="shape=tableRow;horizontal=0;startSize=0;swimlaneHead=0;swimlaneBody=0;top=0;left=0;bottom=0;right=0;collapsible=0;dropTarget=0;fillColor=none;points=[[0,0.5],[1,0.5]];portConstraint=eastwest;fontSize=20;fontStyle=1;align=left;labelBackgroundColor=none;strokeWidth=4;rounded=1;" parent="b_YgQPZzb7EBVGGCqiWG-222" vertex="1">
          <mxGeometry y="147" width="204" height="39" as="geometry" />
        </mxCell>
        <mxCell id="b_YgQPZzb7EBVGGCqiWG-238" value="CreatedAt" style="shape=partialRectangle;html=1;whiteSpace=wrap;connectable=0;overflow=hidden;fillColor=none;top=0;left=0;bottom=0;right=0;pointerEvents=1;fontSize=20;fontStyle=1;align=left;labelBackgroundColor=none;strokeWidth=4;rounded=1;" parent="b_YgQPZzb7EBVGGCqiWG-237" vertex="1">
          <mxGeometry width="204" height="39" as="geometry">
            <mxRectangle width="204" height="39" as="alternateBounds" />
          </mxGeometry>
        </mxCell>
        <mxCell id="b_YgQPZzb7EBVGGCqiWG-229" value="" style="shape=tableRow;horizontal=0;startSize=0;swimlaneHead=0;swimlaneBody=0;top=0;left=0;bottom=0;right=0;collapsible=0;dropTarget=0;fillColor=none;points=[[0,0.5],[1,0.5]];portConstraint=eastwest;fontSize=20;fontStyle=1;align=left;labelBackgroundColor=none;strokeWidth=4;rounded=1;" parent="b_YgQPZzb7EBVGGCqiWG-222" vertex="1">
          <mxGeometry y="186" width="204" height="38" as="geometry" />
        </mxCell>
        <mxCell id="b_YgQPZzb7EBVGGCqiWG-230" value="StartDate" style="shape=partialRectangle;html=1;whiteSpace=wrap;connectable=0;overflow=hidden;fillColor=none;top=0;left=0;bottom=0;right=0;pointerEvents=1;fontSize=20;fontStyle=1;align=left;labelBackgroundColor=none;strokeWidth=4;rounded=1;" parent="b_YgQPZzb7EBVGGCqiWG-229" vertex="1">
          <mxGeometry width="204" height="38" as="geometry">
            <mxRectangle width="204" height="38" as="alternateBounds" />
          </mxGeometry>
        </mxCell>
        <mxCell id="b_YgQPZzb7EBVGGCqiWG-231" style="shape=tableRow;horizontal=0;startSize=0;swimlaneHead=0;swimlaneBody=0;top=0;left=0;bottom=0;right=0;collapsible=0;dropTarget=0;fillColor=none;points=[[0,0.5],[1,0.5]];portConstraint=eastwest;fontSize=20;fontStyle=1;align=left;labelBackgroundColor=none;strokeWidth=4;rounded=1;" parent="b_YgQPZzb7EBVGGCqiWG-222" vertex="1">
          <mxGeometry y="224" width="204" height="39" as="geometry" />
        </mxCell>
        <mxCell id="b_YgQPZzb7EBVGGCqiWG-232" value="EndDate" style="shape=partialRectangle;html=1;whiteSpace=wrap;connectable=0;overflow=hidden;fillColor=none;top=0;left=0;bottom=0;right=0;pointerEvents=1;fontSize=20;fontStyle=1;align=left;labelBackgroundColor=none;strokeWidth=4;rounded=1;" parent="b_YgQPZzb7EBVGGCqiWG-231" vertex="1">
          <mxGeometry width="204" height="39" as="geometry">
            <mxRectangle width="204" height="39" as="alternateBounds" />
          </mxGeometry>
        </mxCell>
        <mxCell id="b_YgQPZzb7EBVGGCqiWG-233" value="" style="shape=tableRow;horizontal=0;startSize=0;swimlaneHead=0;swimlaneBody=0;top=0;left=0;bottom=0;right=0;collapsible=0;dropTarget=0;fillColor=none;points=[[0,0.5],[1,0.5]];portConstraint=eastwest;fontSize=20;fontStyle=1;align=left;labelBackgroundColor=none;strokeWidth=4;rounded=1;" parent="b_YgQPZzb7EBVGGCqiWG-222" vertex="1">
          <mxGeometry y="263" width="204" height="39" as="geometry" />
        </mxCell>
        <mxCell id="b_YgQPZzb7EBVGGCqiWG-234" value="Price" style="shape=partialRectangle;html=1;whiteSpace=wrap;connectable=0;overflow=hidden;fillColor=none;top=0;left=0;bottom=0;right=0;pointerEvents=1;fontSize=20;fontStyle=1;align=left;labelBackgroundColor=none;strokeWidth=4;rounded=1;" parent="b_YgQPZzb7EBVGGCqiWG-233" vertex="1">
          <mxGeometry width="204" height="39" as="geometry">
            <mxRectangle width="204" height="39" as="alternateBounds" />
          </mxGeometry>
        </mxCell>
        <mxCell id="b_YgQPZzb7EBVGGCqiWG-235" value="" style="shape=tableRow;horizontal=0;startSize=0;swimlaneHead=0;swimlaneBody=0;top=0;left=0;bottom=0;right=0;collapsible=0;dropTarget=0;fillColor=none;points=[[0,0.5],[1,0.5]];portConstraint=eastwest;fontSize=20;fontStyle=1;align=left;labelBackgroundColor=none;strokeWidth=4;rounded=1;" parent="b_YgQPZzb7EBVGGCqiWG-222" vertex="1">
          <mxGeometry y="302" width="204" height="39" as="geometry" />
        </mxCell>
        <mxCell id="b_YgQPZzb7EBVGGCqiWG-236" value="Status" style="shape=partialRectangle;html=1;whiteSpace=wrap;connectable=0;overflow=hidden;fillColor=none;top=0;left=0;bottom=0;right=0;pointerEvents=1;fontSize=20;fontStyle=1;align=left;labelBackgroundColor=none;strokeWidth=4;rounded=1;" parent="b_YgQPZzb7EBVGGCqiWG-235" vertex="1">
          <mxGeometry width="204" height="39" as="geometry">
            <mxRectangle width="204" height="39" as="alternateBounds" />
          </mxGeometry>
        </mxCell>
        <mxCell id="PkPG3WxuKsKkiC19nM9B-9" value="Message" style="shape=table;startSize=30;container=1;collapsible=0;childLayout=tableLayout;fontSize=20;fontStyle=1;align=center;labelBackgroundColor=none;fillColor=#A9C4EB;strokeWidth=4;rounded=1;" parent="1" vertex="1">
          <mxGeometry x="596.4" y="597.8" width="204" height="302" as="geometry" />
        </mxCell>
        <mxCell id="PkPG3WxuKsKkiC19nM9B-10" value="" style="shape=tableRow;horizontal=0;startSize=0;swimlaneHead=0;swimlaneBody=0;top=0;left=0;bottom=0;right=0;collapsible=0;dropTarget=0;fillColor=none;points=[[0,0.5],[1,0.5]];portConstraint=eastwest;fontSize=20;fontStyle=1;align=left;labelBackgroundColor=none;strokeWidth=4;rounded=1;" parent="PkPG3WxuKsKkiC19nM9B-9" vertex="1">
          <mxGeometry y="30" width="204" height="39" as="geometry" />
        </mxCell>
        <mxCell id="PkPG3WxuKsKkiC19nM9B-11" value="&lt;u&gt;Id&lt;/u&gt;" style="shape=partialRectangle;html=1;whiteSpace=wrap;connectable=0;overflow=hidden;top=0;left=0;bottom=0;right=0;pointerEvents=1;fontSize=20;fontStyle=1;align=left;labelBackgroundColor=none;fillColor=#99FFCC;strokeWidth=4;rounded=1;" parent="PkPG3WxuKsKkiC19nM9B-10" vertex="1">
          <mxGeometry width="204" height="39" as="geometry">
            <mxRectangle width="204" height="39" as="alternateBounds" />
          </mxGeometry>
        </mxCell>
        <mxCell id="PkPG3WxuKsKkiC19nM9B-12" value="" style="shape=tableRow;horizontal=0;startSize=0;swimlaneHead=0;swimlaneBody=0;top=0;left=0;bottom=0;right=0;collapsible=0;dropTarget=0;fillColor=none;points=[[0,0.5],[1,0.5]];portConstraint=eastwest;fontSize=20;fontStyle=1;align=left;labelBackgroundColor=none;strokeWidth=4;rounded=1;" parent="PkPG3WxuKsKkiC19nM9B-9" vertex="1">
          <mxGeometry y="69" width="204" height="39" as="geometry" />
        </mxCell>
        <mxCell id="PkPG3WxuKsKkiC19nM9B-13" value="SenderId" style="shape=partialRectangle;html=1;whiteSpace=wrap;connectable=0;overflow=hidden;fillColor=#FFCCFF;top=0;left=0;bottom=0;right=0;pointerEvents=1;fontSize=20;fontStyle=1;align=left;labelBackgroundColor=none;strokeWidth=4;rounded=1;" parent="PkPG3WxuKsKkiC19nM9B-12" vertex="1">
          <mxGeometry width="204" height="39" as="geometry">
            <mxRectangle width="204" height="39" as="alternateBounds" />
          </mxGeometry>
        </mxCell>
        <mxCell id="PkPG3WxuKsKkiC19nM9B-14" value="" style="shape=tableRow;horizontal=0;startSize=0;swimlaneHead=0;swimlaneBody=0;top=0;left=0;bottom=0;right=0;collapsible=0;dropTarget=0;fillColor=none;points=[[0,0.5],[1,0.5]];portConstraint=eastwest;fontSize=20;fontStyle=1;align=left;labelBackgroundColor=none;strokeWidth=4;rounded=1;" parent="PkPG3WxuKsKkiC19nM9B-9" vertex="1">
          <mxGeometry y="108" width="204" height="39" as="geometry" />
        </mxCell>
        <mxCell id="PkPG3WxuKsKkiC19nM9B-15" value="ReceiverId" style="shape=partialRectangle;html=1;whiteSpace=wrap;connectable=0;overflow=hidden;fillColor=#FFCCFF;top=0;left=0;bottom=0;right=0;pointerEvents=1;fontSize=20;fontStyle=1;align=left;labelBackgroundColor=none;strokeWidth=4;rounded=1;" parent="PkPG3WxuKsKkiC19nM9B-14" vertex="1">
          <mxGeometry width="204" height="39" as="geometry">
            <mxRectangle width="204" height="39" as="alternateBounds" />
          </mxGeometry>
        </mxCell>
        <mxCell id="PkPG3WxuKsKkiC19nM9B-16" value="" style="shape=tableRow;horizontal=0;startSize=0;swimlaneHead=0;swimlaneBody=0;top=0;left=0;bottom=0;right=0;collapsible=0;dropTarget=0;fillColor=none;points=[[0,0.5],[1,0.5]];portConstraint=eastwest;fontSize=20;fontStyle=1;align=left;labelBackgroundColor=none;strokeWidth=4;rounded=1;" parent="PkPG3WxuKsKkiC19nM9B-9" vertex="1">
          <mxGeometry y="147" width="204" height="39" as="geometry" />
        </mxCell>
        <mxCell id="PkPG3WxuKsKkiC19nM9B-17" value="SentAt" style="shape=partialRectangle;html=1;whiteSpace=wrap;connectable=0;overflow=hidden;fillColor=none;top=0;left=0;bottom=0;right=0;pointerEvents=1;fontSize=20;fontStyle=1;align=left;labelBackgroundColor=none;strokeWidth=4;rounded=1;" parent="PkPG3WxuKsKkiC19nM9B-16" vertex="1">
          <mxGeometry width="204" height="39" as="geometry">
            <mxRectangle width="204" height="39" as="alternateBounds" />
          </mxGeometry>
        </mxCell>
        <mxCell id="PkPG3WxuKsKkiC19nM9B-18" value="" style="shape=tableRow;horizontal=0;startSize=0;swimlaneHead=0;swimlaneBody=0;top=0;left=0;bottom=0;right=0;collapsible=0;dropTarget=0;fillColor=none;points=[[0,0.5],[1,0.5]];portConstraint=eastwest;fontSize=20;fontStyle=1;align=left;labelBackgroundColor=none;strokeWidth=4;rounded=1;" parent="PkPG3WxuKsKkiC19nM9B-9" vertex="1">
          <mxGeometry y="186" width="204" height="38" as="geometry" />
        </mxCell>
        <mxCell id="PkPG3WxuKsKkiC19nM9B-19" value="Content" style="shape=partialRectangle;html=1;whiteSpace=wrap;connectable=0;overflow=hidden;fillColor=none;top=0;left=0;bottom=0;right=0;pointerEvents=1;fontSize=20;fontStyle=1;align=left;labelBackgroundColor=none;strokeWidth=4;rounded=1;" parent="PkPG3WxuKsKkiC19nM9B-18" vertex="1">
          <mxGeometry width="204" height="38" as="geometry">
            <mxRectangle width="204" height="38" as="alternateBounds" />
          </mxGeometry>
        </mxCell>
        <mxCell id="PkPG3WxuKsKkiC19nM9B-20" style="shape=tableRow;horizontal=0;startSize=0;swimlaneHead=0;swimlaneBody=0;top=0;left=0;bottom=0;right=0;collapsible=0;dropTarget=0;fillColor=none;points=[[0,0.5],[1,0.5]];portConstraint=eastwest;fontSize=20;fontStyle=1;align=left;labelBackgroundColor=none;strokeWidth=4;rounded=1;" parent="PkPG3WxuKsKkiC19nM9B-9" vertex="1">
          <mxGeometry y="224" width="204" height="39" as="geometry" />
        </mxCell>
        <mxCell id="PkPG3WxuKsKkiC19nM9B-21" value="Attachment" style="shape=partialRectangle;html=1;whiteSpace=wrap;connectable=0;overflow=hidden;fillColor=none;top=0;left=0;bottom=0;right=0;pointerEvents=1;fontSize=20;fontStyle=1;align=left;labelBackgroundColor=none;strokeWidth=4;rounded=1;" parent="PkPG3WxuKsKkiC19nM9B-20" vertex="1">
          <mxGeometry width="204" height="39" as="geometry">
            <mxRectangle width="204" height="39" as="alternateBounds" />
          </mxGeometry>
        </mxCell>
        <mxCell id="WPOkwvO6X90YhL0vEpwH-35" style="shape=tableRow;horizontal=0;startSize=0;swimlaneHead=0;swimlaneBody=0;top=0;left=0;bottom=0;right=0;collapsible=0;dropTarget=0;fillColor=none;points=[[0,0.5],[1,0.5]];portConstraint=eastwest;fontSize=20;fontStyle=1;align=left;labelBackgroundColor=none;strokeWidth=4;rounded=1;" parent="PkPG3WxuKsKkiC19nM9B-9" vertex="1">
          <mxGeometry y="263" width="204" height="39" as="geometry" />
        </mxCell>
        <mxCell id="WPOkwvO6X90YhL0vEpwH-36" value="Seen" style="shape=partialRectangle;html=1;whiteSpace=wrap;connectable=0;overflow=hidden;fillColor=none;top=0;left=0;bottom=0;right=0;pointerEvents=1;fontSize=20;fontStyle=1;align=left;labelBackgroundColor=none;strokeWidth=4;rounded=1;" parent="WPOkwvO6X90YhL0vEpwH-35" vertex="1">
          <mxGeometry width="204" height="39" as="geometry">
            <mxRectangle width="204" height="39" as="alternateBounds" />
          </mxGeometry>
        </mxCell>
        <mxCell id="b_YgQPZzb7EBVGGCqiWG-255" value="Rental" style="shape=table;startSize=30;container=1;collapsible=0;childLayout=tableLayout;fontSize=20;fontStyle=1;align=center;labelBackgroundColor=none;fillColor=#A9C4EB;strokeWidth=4;rounded=1;" parent="1" vertex="1">
          <mxGeometry x="851.4000000000001" y="3025.8" width="204" height="186" as="geometry" />
        </mxCell>
        <mxCell id="b_YgQPZzb7EBVGGCqiWG-256" value="" style="shape=tableRow;horizontal=0;startSize=0;swimlaneHead=0;swimlaneBody=0;top=0;left=0;bottom=0;right=0;collapsible=0;dropTarget=0;fillColor=#FFCCFF;points=[[0,0.5],[1,0.5]];portConstraint=eastwest;fontSize=20;fontStyle=1;align=left;labelBackgroundColor=none;strokeWidth=4;rounded=1;" parent="b_YgQPZzb7EBVGGCqiWG-255" vertex="1">
          <mxGeometry y="30" width="204" height="39" as="geometry" />
        </mxCell>
        <mxCell id="b_YgQPZzb7EBVGGCqiWG-257" value="&lt;u&gt;Id&lt;/u&gt;" style="shape=partialRectangle;html=1;whiteSpace=wrap;connectable=0;overflow=hidden;top=0;left=0;bottom=0;right=0;pointerEvents=1;fontSize=20;fontStyle=1;align=left;labelBackgroundColor=none;fillColor=#99FFCC;strokeWidth=4;rounded=1;" parent="b_YgQPZzb7EBVGGCqiWG-256" vertex="1">
          <mxGeometry width="204" height="39" as="geometry">
            <mxRectangle width="204" height="39" as="alternateBounds" />
          </mxGeometry>
        </mxCell>
        <mxCell id="b_YgQPZzb7EBVGGCqiWG-258" style="shape=tableRow;horizontal=0;startSize=0;swimlaneHead=0;swimlaneBody=0;top=0;left=0;bottom=0;right=0;collapsible=0;dropTarget=0;fillColor=none;points=[[0,0.5],[1,0.5]];portConstraint=eastwest;fontSize=20;fontStyle=1;align=left;labelBackgroundColor=none;strokeWidth=4;rounded=1;" parent="b_YgQPZzb7EBVGGCqiWG-255" vertex="1">
          <mxGeometry y="69" width="204" height="39" as="geometry" />
        </mxCell>
        <mxCell id="b_YgQPZzb7EBVGGCqiWG-259" value="BookingId" style="shape=partialRectangle;html=1;whiteSpace=wrap;connectable=0;overflow=hidden;top=0;left=0;bottom=0;right=0;pointerEvents=1;fontSize=20;fontStyle=1;align=left;labelBackgroundColor=none;fillColor=#FFCCFF;strokeWidth=4;rounded=1;" parent="b_YgQPZzb7EBVGGCqiWG-258" vertex="1">
          <mxGeometry width="204" height="39" as="geometry">
            <mxRectangle width="204" height="39" as="alternateBounds" />
          </mxGeometry>
        </mxCell>
        <mxCell id="b_YgQPZzb7EBVGGCqiWG-264" style="shape=tableRow;horizontal=0;startSize=0;swimlaneHead=0;swimlaneBody=0;top=0;left=0;bottom=0;right=0;collapsible=0;dropTarget=0;fillColor=none;points=[[0,0.5],[1,0.5]];portConstraint=eastwest;fontSize=20;fontStyle=1;align=left;labelBackgroundColor=none;strokeWidth=4;rounded=1;" parent="b_YgQPZzb7EBVGGCqiWG-255" vertex="1">
          <mxGeometry y="108" width="204" height="39" as="geometry" />
        </mxCell>
        <mxCell id="b_YgQPZzb7EBVGGCqiWG-265" value="CustomerReveiwId" style="shape=partialRectangle;html=1;whiteSpace=wrap;connectable=0;overflow=hidden;top=0;left=0;bottom=0;right=0;pointerEvents=1;fontSize=20;fontStyle=1;align=left;labelBackgroundColor=none;fillColor=#FFCCFF;strokeWidth=4;rounded=1;" parent="b_YgQPZzb7EBVGGCqiWG-264" vertex="1">
          <mxGeometry width="204" height="39" as="geometry">
            <mxRectangle width="204" height="39" as="alternateBounds" />
          </mxGeometry>
        </mxCell>
        <mxCell id="b_YgQPZzb7EBVGGCqiWG-266" style="shape=tableRow;horizontal=0;startSize=0;swimlaneHead=0;swimlaneBody=0;top=0;left=0;bottom=0;right=0;collapsible=0;dropTarget=0;fillColor=#FFCCFF;points=[[0,0.5],[1,0.5]];portConstraint=eastwest;fontSize=20;fontStyle=1;align=left;labelBackgroundColor=none;strokeWidth=4;rounded=1;" parent="b_YgQPZzb7EBVGGCqiWG-255" vertex="1">
          <mxGeometry y="147" width="204" height="39" as="geometry" />
        </mxCell>
        <mxCell id="b_YgQPZzb7EBVGGCqiWG-267" value="RenterReviewId" style="shape=partialRectangle;html=1;whiteSpace=wrap;connectable=0;overflow=hidden;top=0;left=0;bottom=0;right=0;pointerEvents=1;fontSize=20;fontStyle=1;align=left;labelBackgroundColor=none;fillColor=none;strokeWidth=4;rounded=1;" parent="b_YgQPZzb7EBVGGCqiWG-266" vertex="1">
          <mxGeometry width="204" height="39" as="geometry">
            <mxRectangle width="204" height="39" as="alternateBounds" />
          </mxGeometry>
        </mxCell>
        <mxCell id="PkPG3WxuKsKkiC19nM9B-53" value="Review" style="shape=table;startSize=30;container=1;collapsible=0;childLayout=tableLayout;fontSize=20;fontStyle=1;align=center;labelBackgroundColor=none;fillColor=#A9C4EB;strokeWidth=4;rounded=1;" parent="1" vertex="1">
          <mxGeometry x="375.40000000000003" y="3147.8" width="204" height="264" as="geometry" />
        </mxCell>
        <mxCell id="PkPG3WxuKsKkiC19nM9B-54" value="" style="shape=tableRow;horizontal=0;startSize=0;swimlaneHead=0;swimlaneBody=0;top=0;left=0;bottom=0;right=0;collapsible=0;dropTarget=0;fillColor=#FFCCFF;points=[[0,0.5],[1,0.5]];portConstraint=eastwest;fontSize=20;fontStyle=1;align=left;labelBackgroundColor=none;strokeWidth=4;rounded=1;" parent="PkPG3WxuKsKkiC19nM9B-53" vertex="1">
          <mxGeometry y="30" width="204" height="39" as="geometry" />
        </mxCell>
        <mxCell id="PkPG3WxuKsKkiC19nM9B-55" value="&lt;u&gt;Id&lt;/u&gt;" style="shape=partialRectangle;html=1;whiteSpace=wrap;connectable=0;overflow=hidden;top=0;left=0;bottom=0;right=0;pointerEvents=1;fontSize=20;fontStyle=1;align=left;labelBackgroundColor=none;fillColor=#99FFCC;strokeWidth=4;rounded=1;" parent="PkPG3WxuKsKkiC19nM9B-54" vertex="1">
          <mxGeometry width="204" height="39" as="geometry">
            <mxRectangle width="204" height="39" as="alternateBounds" />
          </mxGeometry>
        </mxCell>
        <mxCell id="PkPG3WxuKsKkiC19nM9B-56" style="shape=tableRow;horizontal=0;startSize=0;swimlaneHead=0;swimlaneBody=0;top=0;left=0;bottom=0;right=0;collapsible=0;dropTarget=0;fillColor=none;points=[[0,0.5],[1,0.5]];portConstraint=eastwest;fontSize=20;fontStyle=1;align=left;labelBackgroundColor=none;strokeWidth=4;rounded=1;" parent="PkPG3WxuKsKkiC19nM9B-53" vertex="1">
          <mxGeometry y="69" width="204" height="39" as="geometry" />
        </mxCell>
        <mxCell id="PkPG3WxuKsKkiC19nM9B-57" value="RentalId" style="shape=partialRectangle;html=1;whiteSpace=wrap;connectable=0;overflow=hidden;top=0;left=0;bottom=0;right=0;pointerEvents=1;fontSize=20;fontStyle=1;align=left;labelBackgroundColor=none;fillColor=#FFCCFF;strokeWidth=4;rounded=1;" parent="PkPG3WxuKsKkiC19nM9B-56" vertex="1">
          <mxGeometry width="204" height="39" as="geometry">
            <mxRectangle width="204" height="39" as="alternateBounds" />
          </mxGeometry>
        </mxCell>
        <mxCell id="PkPG3WxuKsKkiC19nM9B-58" style="shape=tableRow;horizontal=0;startSize=0;swimlaneHead=0;swimlaneBody=0;top=0;left=0;bottom=0;right=0;collapsible=0;dropTarget=0;fillColor=none;points=[[0,0.5],[1,0.5]];portConstraint=eastwest;fontSize=20;fontStyle=1;align=left;labelBackgroundColor=none;strokeWidth=4;rounded=1;" parent="PkPG3WxuKsKkiC19nM9B-53" vertex="1">
          <mxGeometry y="108" width="204" height="39" as="geometry" />
        </mxCell>
        <mxCell id="PkPG3WxuKsKkiC19nM9B-59" value="CreatedAt" style="shape=partialRectangle;html=1;whiteSpace=wrap;connectable=0;overflow=hidden;top=0;left=0;bottom=0;right=0;pointerEvents=1;fontSize=20;fontStyle=1;align=left;labelBackgroundColor=none;fillColor=none;strokeWidth=4;rounded=1;" parent="PkPG3WxuKsKkiC19nM9B-58" vertex="1">
          <mxGeometry width="204" height="39" as="geometry">
            <mxRectangle width="204" height="39" as="alternateBounds" />
          </mxGeometry>
        </mxCell>
        <mxCell id="PkPG3WxuKsKkiC19nM9B-60" style="shape=tableRow;horizontal=0;startSize=0;swimlaneHead=0;swimlaneBody=0;top=0;left=0;bottom=0;right=0;collapsible=0;dropTarget=0;fillColor=none;points=[[0,0.5],[1,0.5]];portConstraint=eastwest;fontSize=20;fontStyle=1;align=left;labelBackgroundColor=none;strokeWidth=4;rounded=1;" parent="PkPG3WxuKsKkiC19nM9B-53" vertex="1">
          <mxGeometry y="147" width="204" height="39" as="geometry" />
        </mxCell>
        <mxCell id="PkPG3WxuKsKkiC19nM9B-61" value="Rate" style="shape=partialRectangle;html=1;whiteSpace=wrap;connectable=0;overflow=hidden;top=0;left=0;bottom=0;right=0;pointerEvents=1;fontSize=20;fontStyle=1;align=left;labelBackgroundColor=none;fillColor=none;strokeWidth=4;rounded=1;" parent="PkPG3WxuKsKkiC19nM9B-60" vertex="1">
          <mxGeometry width="204" height="39" as="geometry">
            <mxRectangle width="204" height="39" as="alternateBounds" />
          </mxGeometry>
        </mxCell>
        <mxCell id="PkPG3WxuKsKkiC19nM9B-64" style="shape=tableRow;horizontal=0;startSize=0;swimlaneHead=0;swimlaneBody=0;top=0;left=0;bottom=0;right=0;collapsible=0;dropTarget=0;fillColor=none;points=[[0,0.5],[1,0.5]];portConstraint=eastwest;fontSize=20;fontStyle=1;align=left;labelBackgroundColor=none;strokeWidth=4;rounded=1;" parent="PkPG3WxuKsKkiC19nM9B-53" vertex="1">
          <mxGeometry y="186" width="204" height="39" as="geometry" />
        </mxCell>
        <mxCell id="PkPG3WxuKsKkiC19nM9B-65" value="Punctuality" style="shape=partialRectangle;html=1;whiteSpace=wrap;connectable=0;overflow=hidden;top=0;left=0;bottom=0;right=0;pointerEvents=1;fontSize=20;fontStyle=1;align=left;labelBackgroundColor=none;fillColor=none;strokeWidth=4;rounded=1;" parent="PkPG3WxuKsKkiC19nM9B-64" vertex="1">
          <mxGeometry width="204" height="39" as="geometry">
            <mxRectangle width="204" height="39" as="alternateBounds" />
          </mxGeometry>
        </mxCell>
        <mxCell id="PkPG3WxuKsKkiC19nM9B-66" style="shape=tableRow;horizontal=0;startSize=0;swimlaneHead=0;swimlaneBody=0;top=0;left=0;bottom=0;right=0;collapsible=0;dropTarget=0;fillColor=none;points=[[0,0.5],[1,0.5]];portConstraint=eastwest;fontSize=20;fontStyle=1;align=left;labelBackgroundColor=none;strokeWidth=4;rounded=1;" parent="PkPG3WxuKsKkiC19nM9B-53" vertex="1">
          <mxGeometry y="225" width="204" height="39" as="geometry" />
        </mxCell>
        <mxCell id="PkPG3WxuKsKkiC19nM9B-67" value="Behavior" style="shape=partialRectangle;html=1;whiteSpace=wrap;connectable=0;overflow=hidden;top=0;left=0;bottom=0;right=0;pointerEvents=1;fontSize=20;fontStyle=1;align=left;labelBackgroundColor=none;fillColor=none;strokeWidth=4;rounded=1;" parent="PkPG3WxuKsKkiC19nM9B-66" vertex="1">
          <mxGeometry width="204" height="39" as="geometry">
            <mxRectangle width="204" height="39" as="alternateBounds" />
          </mxGeometry>
        </mxCell>
        <mxCell id="PkPG3WxuKsKkiC19nM9B-68" value="RenterReview" style="shape=table;startSize=30;container=1;collapsible=0;childLayout=tableLayout;fontSize=20;fontStyle=1;align=center;labelBackgroundColor=none;fillColor=#A9C4EB;strokeWidth=4;rounded=1;" parent="1" vertex="1">
          <mxGeometry x="477.40000000000003" y="2790.8" width="204" height="108" as="geometry" />
        </mxCell>
        <mxCell id="W14kpQmKhAgQ3yxK0qM7-63" style="shape=tableRow;horizontal=0;startSize=0;swimlaneHead=0;swimlaneBody=0;top=0;left=0;bottom=0;right=0;collapsible=0;dropTarget=0;fillColor=none;points=[[0,0.5],[1,0.5]];portConstraint=eastwest;fontSize=20;fontStyle=1;align=left;labelBackgroundColor=none;strokeWidth=4;rounded=1;" parent="PkPG3WxuKsKkiC19nM9B-68" vertex="1">
          <mxGeometry y="30" width="204" height="39" as="geometry" />
        </mxCell>
        <mxCell id="W14kpQmKhAgQ3yxK0qM7-64" value="RenterId" style="shape=partialRectangle;html=1;whiteSpace=wrap;connectable=0;overflow=hidden;top=0;left=0;bottom=0;right=0;pointerEvents=1;fontSize=20;fontStyle=1;align=left;labelBackgroundColor=none;fillColor=#FFCCFF;strokeWidth=4;rounded=1;" parent="W14kpQmKhAgQ3yxK0qM7-63" vertex="1">
          <mxGeometry width="204" height="39" as="geometry">
            <mxRectangle width="204" height="39" as="alternateBounds" />
          </mxGeometry>
        </mxCell>
        <mxCell id="PkPG3WxuKsKkiC19nM9B-74" style="shape=tableRow;horizontal=0;startSize=0;swimlaneHead=0;swimlaneBody=0;top=0;left=0;bottom=0;right=0;collapsible=0;dropTarget=0;fillColor=none;points=[[0,0.5],[1,0.5]];portConstraint=eastwest;fontSize=20;fontStyle=1;align=left;labelBackgroundColor=none;strokeWidth=4;rounded=1;" parent="PkPG3WxuKsKkiC19nM9B-68" vertex="1">
          <mxGeometry y="69" width="204" height="39" as="geometry" />
        </mxCell>
        <mxCell id="PkPG3WxuKsKkiC19nM9B-75" value="Care" style="shape=partialRectangle;html=1;whiteSpace=wrap;connectable=0;overflow=hidden;top=0;left=0;bottom=0;right=0;pointerEvents=1;fontSize=20;fontStyle=1;align=left;labelBackgroundColor=none;fillColor=none;strokeWidth=4;rounded=1;" parent="PkPG3WxuKsKkiC19nM9B-74" vertex="1">
          <mxGeometry width="204" height="39" as="geometry">
            <mxRectangle width="204" height="39" as="alternateBounds" />
          </mxGeometry>
        </mxCell>
        <mxCell id="PkPG3WxuKsKkiC19nM9B-71" value="CustomerReview" style="shape=table;startSize=30;container=1;collapsible=0;childLayout=tableLayout;fontSize=20;fontStyle=1;align=center;labelBackgroundColor=none;fillColor=#A9C4EB;strokeWidth=4;rounded=1;" parent="1" vertex="1">
          <mxGeometry x="239.40000000000003" y="2790.8" width="204" height="108" as="geometry" />
        </mxCell>
        <mxCell id="W14kpQmKhAgQ3yxK0qM7-68" style="shape=tableRow;horizontal=0;startSize=0;swimlaneHead=0;swimlaneBody=0;top=0;left=0;bottom=0;right=0;collapsible=0;dropTarget=0;fillColor=none;points=[[0,0.5],[1,0.5]];portConstraint=eastwest;fontSize=20;fontStyle=1;align=left;labelBackgroundColor=none;strokeWidth=4;rounded=1;" parent="PkPG3WxuKsKkiC19nM9B-71" vertex="1">
          <mxGeometry y="30" width="204" height="39" as="geometry" />
        </mxCell>
        <mxCell id="W14kpQmKhAgQ3yxK0qM7-69" value="CustomerId" style="shape=partialRectangle;html=1;whiteSpace=wrap;connectable=0;overflow=hidden;top=0;left=0;bottom=0;right=0;pointerEvents=1;fontSize=20;fontStyle=1;align=left;labelBackgroundColor=none;fillColor=#FFCCFF;strokeWidth=4;rounded=1;" parent="W14kpQmKhAgQ3yxK0qM7-68" vertex="1">
          <mxGeometry width="204" height="39" as="geometry">
            <mxRectangle width="204" height="39" as="alternateBounds" />
          </mxGeometry>
        </mxCell>
        <mxCell id="PkPG3WxuKsKkiC19nM9B-76" style="shape=tableRow;horizontal=0;startSize=0;swimlaneHead=0;swimlaneBody=0;top=0;left=0;bottom=0;right=0;collapsible=0;dropTarget=0;fillColor=none;points=[[0,0.5],[1,0.5]];portConstraint=eastwest;fontSize=20;fontStyle=1;align=left;labelBackgroundColor=none;strokeWidth=4;rounded=1;" parent="PkPG3WxuKsKkiC19nM9B-71" vertex="1">
          <mxGeometry y="69" width="204" height="39" as="geometry" />
        </mxCell>
        <mxCell id="PkPG3WxuKsKkiC19nM9B-77" value="Truthfulness" style="shape=partialRectangle;html=1;whiteSpace=wrap;connectable=0;overflow=hidden;top=0;left=0;bottom=0;right=0;pointerEvents=1;fontSize=20;fontStyle=1;align=left;labelBackgroundColor=none;fillColor=none;strokeWidth=4;rounded=1;" parent="PkPG3WxuKsKkiC19nM9B-76" vertex="1">
          <mxGeometry width="204" height="39" as="geometry">
            <mxRectangle width="204" height="39" as="alternateBounds" />
          </mxGeometry>
        </mxCell>
        <mxCell id="PkPG3WxuKsKkiC19nM9B-84" value="Report" style="shape=table;startSize=30;container=1;collapsible=0;childLayout=tableLayout;fontSize=20;fontStyle=1;align=center;labelBackgroundColor=none;fillColor=#A9C4EB;strokeWidth=4;rounded=1;" parent="1" vertex="1">
          <mxGeometry x="171.40000000000003" y="2042.8" width="204" height="342" as="geometry" />
        </mxCell>
        <mxCell id="PkPG3WxuKsKkiC19nM9B-85" value="" style="shape=tableRow;horizontal=0;startSize=0;swimlaneHead=0;swimlaneBody=0;top=0;left=0;bottom=0;right=0;collapsible=0;dropTarget=0;fillColor=#FFCCFF;points=[[0,0.5],[1,0.5]];portConstraint=eastwest;fontSize=20;fontStyle=1;align=left;labelBackgroundColor=none;strokeWidth=4;rounded=1;" parent="PkPG3WxuKsKkiC19nM9B-84" vertex="1">
          <mxGeometry y="30" width="204" height="39" as="geometry" />
        </mxCell>
        <mxCell id="PkPG3WxuKsKkiC19nM9B-86" value="&lt;u&gt;Id&lt;/u&gt;" style="shape=partialRectangle;html=1;whiteSpace=wrap;connectable=0;overflow=hidden;top=0;left=0;bottom=0;right=0;pointerEvents=1;fontSize=20;fontStyle=1;align=left;labelBackgroundColor=none;fillColor=#99FFCC;strokeWidth=4;rounded=1;" parent="PkPG3WxuKsKkiC19nM9B-85" vertex="1">
          <mxGeometry width="204" height="39" as="geometry">
            <mxRectangle width="204" height="39" as="alternateBounds" />
          </mxGeometry>
        </mxCell>
        <mxCell id="PkPG3WxuKsKkiC19nM9B-87" style="shape=tableRow;horizontal=0;startSize=0;swimlaneHead=0;swimlaneBody=0;top=0;left=0;bottom=0;right=0;collapsible=0;dropTarget=0;fillColor=none;points=[[0,0.5],[1,0.5]];portConstraint=eastwest;fontSize=20;fontStyle=1;align=left;labelBackgroundColor=none;strokeWidth=4;rounded=1;" parent="PkPG3WxuKsKkiC19nM9B-84" vertex="1">
          <mxGeometry y="69" width="204" height="39" as="geometry" />
        </mxCell>
        <mxCell id="PkPG3WxuKsKkiC19nM9B-88" value="ReporterId" style="shape=partialRectangle;html=1;whiteSpace=wrap;connectable=0;overflow=hidden;top=0;left=0;bottom=0;right=0;pointerEvents=1;fontSize=20;fontStyle=1;align=left;labelBackgroundColor=none;fillColor=#FFCCFF;strokeWidth=4;rounded=1;" parent="PkPG3WxuKsKkiC19nM9B-87" vertex="1">
          <mxGeometry width="204" height="39" as="geometry">
            <mxRectangle width="204" height="39" as="alternateBounds" />
          </mxGeometry>
        </mxCell>
        <mxCell id="PkPG3WxuKsKkiC19nM9B-95" style="shape=tableRow;horizontal=0;startSize=0;swimlaneHead=0;swimlaneBody=0;top=0;left=0;bottom=0;right=0;collapsible=0;dropTarget=0;fillColor=none;points=[[0,0.5],[1,0.5]];portConstraint=eastwest;fontSize=20;fontStyle=1;align=left;labelBackgroundColor=none;strokeWidth=4;rounded=1;" parent="PkPG3WxuKsKkiC19nM9B-84" vertex="1">
          <mxGeometry y="108" width="204" height="39" as="geometry" />
        </mxCell>
        <mxCell id="PkPG3WxuKsKkiC19nM9B-96" value="TargetId" style="shape=partialRectangle;html=1;whiteSpace=wrap;connectable=0;overflow=hidden;top=0;left=0;bottom=0;right=0;pointerEvents=1;fontSize=20;fontStyle=1;align=left;labelBackgroundColor=none;fillColor=#FFCCFF;strokeWidth=4;rounded=1;" parent="PkPG3WxuKsKkiC19nM9B-95" vertex="1">
          <mxGeometry width="204" height="39" as="geometry">
            <mxRectangle width="204" height="39" as="alternateBounds" />
          </mxGeometry>
        </mxCell>
        <mxCell id="PkPG3WxuKsKkiC19nM9B-89" style="shape=tableRow;horizontal=0;startSize=0;swimlaneHead=0;swimlaneBody=0;top=0;left=0;bottom=0;right=0;collapsible=0;dropTarget=0;fillColor=none;points=[[0,0.5],[1,0.5]];portConstraint=eastwest;fontSize=20;fontStyle=1;align=left;labelBackgroundColor=none;strokeWidth=4;rounded=1;" parent="PkPG3WxuKsKkiC19nM9B-84" vertex="1">
          <mxGeometry y="147" width="204" height="39" as="geometry" />
        </mxCell>
        <mxCell id="PkPG3WxuKsKkiC19nM9B-90" value="CreatedAt" style="shape=partialRectangle;html=1;whiteSpace=wrap;connectable=0;overflow=hidden;top=0;left=0;bottom=0;right=0;pointerEvents=1;fontSize=20;fontStyle=1;align=left;labelBackgroundColor=none;fillColor=none;strokeWidth=4;rounded=1;" parent="PkPG3WxuKsKkiC19nM9B-89" vertex="1">
          <mxGeometry width="204" height="39" as="geometry">
            <mxRectangle width="204" height="39" as="alternateBounds" />
          </mxGeometry>
        </mxCell>
        <mxCell id="PkPG3WxuKsKkiC19nM9B-91" style="shape=tableRow;horizontal=0;startSize=0;swimlaneHead=0;swimlaneBody=0;top=0;left=0;bottom=0;right=0;collapsible=0;dropTarget=0;fillColor=none;points=[[0,0.5],[1,0.5]];portConstraint=eastwest;fontSize=20;fontStyle=1;align=left;labelBackgroundColor=none;strokeWidth=4;rounded=1;" parent="PkPG3WxuKsKkiC19nM9B-84" vertex="1">
          <mxGeometry y="186" width="204" height="39" as="geometry" />
        </mxCell>
        <mxCell id="PkPG3WxuKsKkiC19nM9B-92" value="Description" style="shape=partialRectangle;html=1;whiteSpace=wrap;connectable=0;overflow=hidden;top=0;left=0;bottom=0;right=0;pointerEvents=1;fontSize=20;fontStyle=1;align=left;labelBackgroundColor=none;fillColor=none;strokeWidth=4;rounded=1;" parent="PkPG3WxuKsKkiC19nM9B-91" vertex="1">
          <mxGeometry width="204" height="39" as="geometry">
            <mxRectangle width="204" height="39" as="alternateBounds" />
          </mxGeometry>
        </mxCell>
        <mxCell id="PkPG3WxuKsKkiC19nM9B-93" style="shape=tableRow;horizontal=0;startSize=0;swimlaneHead=0;swimlaneBody=0;top=0;left=0;bottom=0;right=0;collapsible=0;dropTarget=0;fillColor=none;points=[[0,0.5],[1,0.5]];portConstraint=eastwest;fontSize=20;fontStyle=1;align=left;labelBackgroundColor=none;strokeWidth=4;rounded=1;" parent="PkPG3WxuKsKkiC19nM9B-84" vertex="1">
          <mxGeometry y="225" width="204" height="39" as="geometry" />
        </mxCell>
        <mxCell id="PkPG3WxuKsKkiC19nM9B-94" value="Attachment" style="shape=partialRectangle;html=1;whiteSpace=wrap;connectable=0;overflow=hidden;top=0;left=0;bottom=0;right=0;pointerEvents=1;fontSize=20;fontStyle=1;align=left;labelBackgroundColor=none;fillColor=none;strokeWidth=4;rounded=1;" parent="PkPG3WxuKsKkiC19nM9B-93" vertex="1">
          <mxGeometry width="204" height="39" as="geometry">
            <mxRectangle width="204" height="39" as="alternateBounds" />
          </mxGeometry>
        </mxCell>
        <mxCell id="PkPG3WxuKsKkiC19nM9B-99" style="shape=tableRow;horizontal=0;startSize=0;swimlaneHead=0;swimlaneBody=0;top=0;left=0;bottom=0;right=0;collapsible=0;dropTarget=0;fillColor=none;points=[[0,0.5],[1,0.5]];portConstraint=eastwest;fontSize=20;fontStyle=1;align=left;labelBackgroundColor=none;strokeWidth=4;rounded=1;" parent="PkPG3WxuKsKkiC19nM9B-84" vertex="1">
          <mxGeometry y="264" width="204" height="39" as="geometry" />
        </mxCell>
        <mxCell id="PkPG3WxuKsKkiC19nM9B-100" value="Status" style="shape=partialRectangle;html=1;whiteSpace=wrap;connectable=0;overflow=hidden;top=0;left=0;bottom=0;right=0;pointerEvents=1;fontSize=20;fontStyle=1;align=left;labelBackgroundColor=none;fillColor=none;strokeWidth=4;rounded=1;" parent="PkPG3WxuKsKkiC19nM9B-99" vertex="1">
          <mxGeometry width="204" height="39" as="geometry">
            <mxRectangle width="204" height="39" as="alternateBounds" />
          </mxGeometry>
        </mxCell>
        <mxCell id="PkPG3WxuKsKkiC19nM9B-101" style="shape=tableRow;horizontal=0;startSize=0;swimlaneHead=0;swimlaneBody=0;top=0;left=0;bottom=0;right=0;collapsible=0;dropTarget=0;fillColor=none;points=[[0,0.5],[1,0.5]];portConstraint=eastwest;fontSize=20;fontStyle=1;align=left;labelBackgroundColor=none;strokeWidth=4;rounded=1;" parent="PkPG3WxuKsKkiC19nM9B-84" vertex="1">
          <mxGeometry y="303" width="204" height="39" as="geometry" />
        </mxCell>
        <mxCell id="PkPG3WxuKsKkiC19nM9B-102" value="Type" style="shape=partialRectangle;html=1;whiteSpace=wrap;connectable=0;overflow=hidden;top=0;left=0;bottom=0;right=0;pointerEvents=1;fontSize=20;fontStyle=1;align=left;labelBackgroundColor=none;fillColor=none;strokeWidth=4;rounded=1;" parent="PkPG3WxuKsKkiC19nM9B-101" vertex="1">
          <mxGeometry width="204" height="39" as="geometry">
            <mxRectangle width="204" height="39" as="alternateBounds" />
          </mxGeometry>
        </mxCell>
        <mxCell id="PkPG3WxuKsKkiC19nM9B-179" value="Notification" style="shape=table;startSize=30;container=1;collapsible=0;childLayout=tableLayout;fontSize=20;fontStyle=1;align=center;labelBackgroundColor=none;fillColor=#A9C4EB;strokeWidth=4;rounded=1;" parent="1" vertex="1">
          <mxGeometry x="171.40000000000003" y="1011.8" width="204" height="303" as="geometry" />
        </mxCell>
        <mxCell id="PkPG3WxuKsKkiC19nM9B-180" value="" style="shape=tableRow;horizontal=0;startSize=0;swimlaneHead=0;swimlaneBody=0;top=0;left=0;bottom=0;right=0;collapsible=0;dropTarget=0;fillColor=#FFCCFF;points=[[0,0.5],[1,0.5]];portConstraint=eastwest;fontSize=20;fontStyle=1;align=left;labelBackgroundColor=none;strokeWidth=4;rounded=1;" parent="PkPG3WxuKsKkiC19nM9B-179" vertex="1">
          <mxGeometry y="30" width="204" height="39" as="geometry" />
        </mxCell>
        <mxCell id="PkPG3WxuKsKkiC19nM9B-181" value="&lt;u&gt;Id&lt;/u&gt;" style="shape=partialRectangle;html=1;whiteSpace=wrap;connectable=0;overflow=hidden;top=0;left=0;bottom=0;right=0;pointerEvents=1;fontSize=20;fontStyle=1;align=left;labelBackgroundColor=none;fillColor=#99FFCC;strokeWidth=4;rounded=1;" parent="PkPG3WxuKsKkiC19nM9B-180" vertex="1">
          <mxGeometry width="204" height="39" as="geometry">
            <mxRectangle width="204" height="39" as="alternateBounds" />
          </mxGeometry>
        </mxCell>
        <mxCell id="PkPG3WxuKsKkiC19nM9B-182" style="shape=tableRow;horizontal=0;startSize=0;swimlaneHead=0;swimlaneBody=0;top=0;left=0;bottom=0;right=0;collapsible=0;dropTarget=0;fillColor=none;points=[[0,0.5],[1,0.5]];portConstraint=eastwest;fontSize=20;fontStyle=1;align=left;labelBackgroundColor=none;strokeWidth=4;rounded=1;" parent="PkPG3WxuKsKkiC19nM9B-179" vertex="1">
          <mxGeometry y="69" width="204" height="39" as="geometry" />
        </mxCell>
        <mxCell id="PkPG3WxuKsKkiC19nM9B-183" value="ReciverId" style="shape=partialRectangle;html=1;whiteSpace=wrap;connectable=0;overflow=hidden;top=0;left=0;bottom=0;right=0;pointerEvents=1;fontSize=20;fontStyle=1;align=left;labelBackgroundColor=none;fillColor=#FFCCFF;strokeWidth=4;rounded=1;" parent="PkPG3WxuKsKkiC19nM9B-182" vertex="1">
          <mxGeometry width="204" height="39" as="geometry">
            <mxRectangle width="204" height="39" as="alternateBounds" />
          </mxGeometry>
        </mxCell>
        <mxCell id="PkPG3WxuKsKkiC19nM9B-186" style="shape=tableRow;horizontal=0;startSize=0;swimlaneHead=0;swimlaneBody=0;top=0;left=0;bottom=0;right=0;collapsible=0;dropTarget=0;fillColor=none;points=[[0,0.5],[1,0.5]];portConstraint=eastwest;fontSize=20;fontStyle=1;align=left;labelBackgroundColor=none;strokeWidth=4;rounded=1;" parent="PkPG3WxuKsKkiC19nM9B-179" vertex="1">
          <mxGeometry y="108" width="204" height="39" as="geometry" />
        </mxCell>
        <mxCell id="PkPG3WxuKsKkiC19nM9B-187" value="TargetId" style="shape=partialRectangle;html=1;whiteSpace=wrap;connectable=0;overflow=hidden;top=0;left=0;bottom=0;right=0;pointerEvents=1;fontSize=20;fontStyle=1;align=left;labelBackgroundColor=none;fillColor=#FFCCFF;strokeWidth=4;rounded=1;" parent="PkPG3WxuKsKkiC19nM9B-186" vertex="1">
          <mxGeometry width="204" height="39" as="geometry">
            <mxRectangle width="204" height="39" as="alternateBounds" />
          </mxGeometry>
        </mxCell>
        <mxCell id="PkPG3WxuKsKkiC19nM9B-198" style="shape=tableRow;horizontal=0;startSize=0;swimlaneHead=0;swimlaneBody=0;top=0;left=0;bottom=0;right=0;collapsible=0;dropTarget=0;fillColor=none;points=[[0,0.5],[1,0.5]];portConstraint=eastwest;fontSize=20;fontStyle=1;align=left;labelBackgroundColor=none;strokeWidth=4;rounded=1;" parent="PkPG3WxuKsKkiC19nM9B-179" vertex="1">
          <mxGeometry y="147" width="204" height="39" as="geometry" />
        </mxCell>
        <mxCell id="PkPG3WxuKsKkiC19nM9B-199" value="Type" style="shape=partialRectangle;html=1;whiteSpace=wrap;connectable=0;overflow=hidden;top=0;left=0;bottom=0;right=0;pointerEvents=1;fontSize=20;fontStyle=1;align=left;labelBackgroundColor=none;fillColor=none;strokeWidth=4;rounded=1;" parent="PkPG3WxuKsKkiC19nM9B-198" vertex="1">
          <mxGeometry width="204" height="39" as="geometry">
            <mxRectangle width="204" height="39" as="alternateBounds" />
          </mxGeometry>
        </mxCell>
        <mxCell id="PkPG3WxuKsKkiC19nM9B-188" style="shape=tableRow;horizontal=0;startSize=0;swimlaneHead=0;swimlaneBody=0;top=0;left=0;bottom=0;right=0;collapsible=0;dropTarget=0;fillColor=none;points=[[0,0.5],[1,0.5]];portConstraint=eastwest;fontSize=20;fontStyle=1;align=left;labelBackgroundColor=none;strokeWidth=4;rounded=1;" parent="PkPG3WxuKsKkiC19nM9B-179" vertex="1">
          <mxGeometry y="186" width="204" height="39" as="geometry" />
        </mxCell>
        <mxCell id="PkPG3WxuKsKkiC19nM9B-189" value="SentAt" style="shape=partialRectangle;html=1;whiteSpace=wrap;connectable=0;overflow=hidden;top=0;left=0;bottom=0;right=0;pointerEvents=1;fontSize=20;fontStyle=1;align=left;labelBackgroundColor=none;fillColor=none;strokeWidth=4;rounded=1;" parent="PkPG3WxuKsKkiC19nM9B-188" vertex="1">
          <mxGeometry width="204" height="39" as="geometry">
            <mxRectangle width="204" height="39" as="alternateBounds" />
          </mxGeometry>
        </mxCell>
        <mxCell id="PkPG3WxuKsKkiC19nM9B-190" style="shape=tableRow;horizontal=0;startSize=0;swimlaneHead=0;swimlaneBody=0;top=0;left=0;bottom=0;right=0;collapsible=0;dropTarget=0;fillColor=none;points=[[0,0.5],[1,0.5]];portConstraint=eastwest;fontSize=20;fontStyle=1;align=left;labelBackgroundColor=none;strokeWidth=4;rounded=1;" parent="PkPG3WxuKsKkiC19nM9B-179" vertex="1">
          <mxGeometry y="225" width="204" height="39" as="geometry" />
        </mxCell>
        <mxCell id="PkPG3WxuKsKkiC19nM9B-191" value="seen" style="shape=partialRectangle;html=1;whiteSpace=wrap;connectable=0;overflow=hidden;top=0;left=0;bottom=0;right=0;pointerEvents=1;fontSize=20;fontStyle=1;align=left;labelBackgroundColor=none;fillColor=none;strokeWidth=4;rounded=1;" parent="PkPG3WxuKsKkiC19nM9B-190" vertex="1">
          <mxGeometry width="204" height="39" as="geometry">
            <mxRectangle width="204" height="39" as="alternateBounds" />
          </mxGeometry>
        </mxCell>
        <mxCell id="PkPG3WxuKsKkiC19nM9B-192" style="shape=tableRow;horizontal=0;startSize=0;swimlaneHead=0;swimlaneBody=0;top=0;left=0;bottom=0;right=0;collapsible=0;dropTarget=0;fillColor=none;points=[[0,0.5],[1,0.5]];portConstraint=eastwest;fontSize=20;fontStyle=1;align=left;labelBackgroundColor=none;strokeWidth=4;rounded=1;" parent="PkPG3WxuKsKkiC19nM9B-179" vertex="1">
          <mxGeometry y="264" width="204" height="39" as="geometry" />
        </mxCell>
        <mxCell id="PkPG3WxuKsKkiC19nM9B-193" value="Content" style="shape=partialRectangle;html=1;whiteSpace=wrap;connectable=0;overflow=hidden;top=0;left=0;bottom=0;right=0;pointerEvents=1;fontSize=20;fontStyle=1;align=left;labelBackgroundColor=none;fillColor=none;strokeWidth=4;rounded=1;" parent="PkPG3WxuKsKkiC19nM9B-192" vertex="1">
          <mxGeometry width="204" height="39" as="geometry">
            <mxRectangle width="204" height="39" as="alternateBounds" />
          </mxGeometry>
        </mxCell>
        <mxCell id="b_YgQPZzb7EBVGGCqiWG-125" value="Address" style="shape=table;startSize=30;container=1;collapsible=0;childLayout=tableLayout;fontSize=20;fontStyle=1;align=center;labelBackgroundColor=none;fillColor=#A9C4EB;strokeWidth=4;rounded=1;" parent="1" vertex="1">
          <mxGeometry x="1314.9499999999998" y="597.8" width="203.99999999999955" height="186" as="geometry" />
        </mxCell>
        <mxCell id="xN6irTRVzxP0yP95KQgn-1" style="shape=tableRow;horizontal=0;startSize=0;swimlaneHead=0;swimlaneBody=0;top=0;left=0;bottom=0;right=0;collapsible=0;dropTarget=0;fillColor=none;points=[[0,0.5],[1,0.5]];portConstraint=eastwest;fontSize=20;fontStyle=1;align=left;labelBackgroundColor=none;strokeWidth=4;rounded=1;" parent="b_YgQPZzb7EBVGGCqiWG-125" vertex="1">
          <mxGeometry y="30" width="203.99999999999955" height="39" as="geometry" />
        </mxCell>
        <mxCell id="xN6irTRVzxP0yP95KQgn-2" value="Country" style="shape=partialRectangle;html=1;whiteSpace=wrap;connectable=0;overflow=hidden;top=0;left=0;bottom=0;right=0;pointerEvents=1;fontSize=20;fontStyle=1;align=left;labelBackgroundColor=none;fillColor=none;strokeWidth=4;rounded=1;" parent="xN6irTRVzxP0yP95KQgn-1" vertex="1">
          <mxGeometry width="204" height="39" as="geometry">
            <mxRectangle width="204" height="39" as="alternateBounds" />
          </mxGeometry>
        </mxCell>
        <mxCell id="W14kpQmKhAgQ3yxK0qM7-2" style="shape=tableRow;horizontal=0;startSize=0;swimlaneHead=0;swimlaneBody=0;top=0;left=0;bottom=0;right=0;collapsible=0;dropTarget=0;fillColor=none;points=[[0,0.5],[1,0.5]];portConstraint=eastwest;fontSize=20;fontStyle=1;align=left;labelBackgroundColor=none;strokeWidth=4;rounded=1;" parent="b_YgQPZzb7EBVGGCqiWG-125" vertex="1">
          <mxGeometry y="69" width="203.99999999999955" height="39" as="geometry" />
        </mxCell>
        <mxCell id="W14kpQmKhAgQ3yxK0qM7-3" value="Governorate" style="shape=partialRectangle;html=1;whiteSpace=wrap;connectable=0;overflow=hidden;top=0;left=0;bottom=0;right=0;pointerEvents=1;fontSize=20;fontStyle=1;align=left;labelBackgroundColor=none;fillColor=none;strokeWidth=4;rounded=1;" parent="W14kpQmKhAgQ3yxK0qM7-2" vertex="1">
          <mxGeometry width="204" height="39" as="geometry">
            <mxRectangle width="204" height="39" as="alternateBounds" />
          </mxGeometry>
        </mxCell>
        <mxCell id="b_YgQPZzb7EBVGGCqiWG-128" style="shape=tableRow;horizontal=0;startSize=0;swimlaneHead=0;swimlaneBody=0;top=0;left=0;bottom=0;right=0;collapsible=0;dropTarget=0;fillColor=none;points=[[0,0.5],[1,0.5]];portConstraint=eastwest;fontSize=20;fontStyle=1;align=left;labelBackgroundColor=none;strokeWidth=4;rounded=1;" parent="b_YgQPZzb7EBVGGCqiWG-125" vertex="1">
          <mxGeometry y="108" width="203.99999999999955" height="39" as="geometry" />
        </mxCell>
        <mxCell id="b_YgQPZzb7EBVGGCqiWG-129" value="City" style="shape=partialRectangle;html=1;whiteSpace=wrap;connectable=0;overflow=hidden;top=0;left=0;bottom=0;right=0;pointerEvents=1;fontSize=20;fontStyle=1;align=left;labelBackgroundColor=none;fillColor=none;strokeWidth=4;rounded=1;" parent="b_YgQPZzb7EBVGGCqiWG-128" vertex="1">
          <mxGeometry width="204" height="39" as="geometry">
            <mxRectangle width="204" height="39" as="alternateBounds" />
          </mxGeometry>
        </mxCell>
        <mxCell id="b_YgQPZzb7EBVGGCqiWG-132" style="shape=tableRow;horizontal=0;startSize=0;swimlaneHead=0;swimlaneBody=0;top=0;left=0;bottom=0;right=0;collapsible=0;dropTarget=0;fillColor=none;points=[[0,0.5],[1,0.5]];portConstraint=eastwest;fontSize=20;fontStyle=1;align=left;labelBackgroundColor=none;strokeWidth=4;rounded=1;" parent="b_YgQPZzb7EBVGGCqiWG-125" vertex="1">
          <mxGeometry y="147" width="203.99999999999955" height="39" as="geometry" />
        </mxCell>
        <mxCell id="b_YgQPZzb7EBVGGCqiWG-133" value="Street" style="shape=partialRectangle;html=1;whiteSpace=wrap;connectable=0;overflow=hidden;top=0;left=0;bottom=0;right=0;pointerEvents=1;fontSize=20;fontStyle=1;align=left;labelBackgroundColor=none;fillColor=none;strokeWidth=4;rounded=1;" parent="b_YgQPZzb7EBVGGCqiWG-132" vertex="1">
          <mxGeometry width="204" height="39" as="geometry">
            <mxRectangle width="204" height="39" as="alternateBounds" />
          </mxGeometry>
        </mxCell>
        <mxCell id="W14kpQmKhAgQ3yxK0qM7-33" style="edgeStyle=orthogonalEdgeStyle;rounded=1;orthogonalLoop=1;jettySize=auto;html=1;exitX=1;exitY=0.75;exitDx=0;exitDy=0;strokeColor=#457B9D;fontColor=#1D3557;fillColor=#A8DADC;strokeWidth=4;" parent="1" source="W14kpQmKhAgQ3yxK0qM7-11" target="b_YgQPZzb7EBVGGCqiWG-160" edge="1">
          <mxGeometry relative="1" as="geometry" />
        </mxCell>
        <mxCell id="W14kpQmKhAgQ3yxK0qM7-11" value="FavoriteVehicles" style="shape=table;startSize=30;container=1;collapsible=0;childLayout=tableLayout;fontSize=20;fontStyle=1;align=center;labelBackgroundColor=none;fillColor=#A9C4EB;strokeWidth=4;rounded=1;" parent="1" vertex="1">
          <mxGeometry x="1076.95" y="1991.8" width="238" height="111" as="geometry" />
        </mxCell>
        <mxCell id="W14kpQmKhAgQ3yxK0qM7-12" value="" style="shape=tableRow;horizontal=0;startSize=0;swimlaneHead=0;swimlaneBody=0;top=0;left=0;bottom=0;right=0;collapsible=0;dropTarget=0;fillColor=#FFCCFF;points=[[0,0.5],[1,0.5]];portConstraint=eastwest;fontSize=20;fontStyle=1;align=left;labelBackgroundColor=none;strokeWidth=4;rounded=1;" parent="W14kpQmKhAgQ3yxK0qM7-11" vertex="1">
          <mxGeometry y="30" width="238" height="40" as="geometry" />
        </mxCell>
        <mxCell id="W14kpQmKhAgQ3yxK0qM7-13" value="&lt;u&gt;CustomerId&lt;/u&gt;" style="shape=partialRectangle;html=1;whiteSpace=wrap;connectable=0;overflow=hidden;top=0;left=0;bottom=0;right=0;pointerEvents=1;fontSize=20;fontStyle=1;align=left;labelBackgroundColor=none;fillColor=#FFCCFF;strokeWidth=4;rounded=1;" parent="W14kpQmKhAgQ3yxK0qM7-12" vertex="1">
          <mxGeometry width="238" height="40" as="geometry">
            <mxRectangle width="238" height="40" as="alternateBounds" />
          </mxGeometry>
        </mxCell>
        <mxCell id="W14kpQmKhAgQ3yxK0qM7-14" style="shape=tableRow;horizontal=0;startSize=0;swimlaneHead=0;swimlaneBody=0;top=0;left=0;bottom=0;right=0;collapsible=0;dropTarget=0;fillColor=none;points=[[0,0.5],[1,0.5]];portConstraint=eastwest;fontSize=20;fontStyle=1;align=left;labelBackgroundColor=none;strokeWidth=4;rounded=1;" parent="W14kpQmKhAgQ3yxK0qM7-11" vertex="1">
          <mxGeometry y="70" width="238" height="41" as="geometry" />
        </mxCell>
        <mxCell id="W14kpQmKhAgQ3yxK0qM7-15" value="&lt;u&gt;VehicleId&lt;/u&gt;" style="shape=partialRectangle;html=1;whiteSpace=wrap;connectable=0;overflow=hidden;top=0;left=0;bottom=0;right=0;pointerEvents=1;fontSize=20;fontStyle=1;align=left;labelBackgroundColor=none;fillColor=#FFCCFF;strokeWidth=4;rounded=1;" parent="W14kpQmKhAgQ3yxK0qM7-14" vertex="1">
          <mxGeometry width="238" height="41" as="geometry">
            <mxRectangle width="238" height="41" as="alternateBounds" />
          </mxGeometry>
        </mxCell>
        <mxCell id="W14kpQmKhAgQ3yxK0qM7-21" style="edgeStyle=orthogonalEdgeStyle;rounded=1;orthogonalLoop=1;jettySize=auto;html=1;exitX=1;exitY=0.5;exitDx=0;exitDy=0;entryX=0;entryY=0.25;entryDx=0;entryDy=0;strokeColor=#457B9D;fontColor=#1D3557;fillColor=#A8DADC;strokeWidth=4;jumpStyle=arc;" parent="1" source="b_YgQPZzb7EBVGGCqiWG-166" target="b_YgQPZzb7EBVGGCqiWG-200" edge="1">
          <mxGeometry relative="1" as="geometry" />
        </mxCell>
        <mxCell id="W14kpQmKhAgQ3yxK0qM7-22" style="edgeStyle=orthogonalEdgeStyle;rounded=1;orthogonalLoop=1;jettySize=auto;html=1;exitX=1;exitY=0.5;exitDx=0;exitDy=0;entryX=0;entryY=0.5;entryDx=0;entryDy=0;strokeColor=#457B9D;fontColor=#1D3557;fillColor=#A8DADC;strokeWidth=4;startArrow=none;startFill=0;jumpStyle=arc;" parent="1" source="b_YgQPZzb7EBVGGCqiWG-198" target="b_YgQPZzb7EBVGGCqiWG-214" edge="1">
          <mxGeometry relative="1" as="geometry" />
        </mxCell>
        <mxCell id="W14kpQmKhAgQ3yxK0qM7-27" style="edgeStyle=orthogonalEdgeStyle;rounded=1;orthogonalLoop=1;jettySize=auto;html=1;exitX=1;exitY=0.75;exitDx=0;exitDy=0;entryX=0;entryY=0.5;entryDx=0;entryDy=0;strokeColor=#457B9D;fontColor=#1D3557;fillColor=#A8DADC;strokeWidth=4;" parent="1" source="W14kpQmKhAgQ3yxK0qM7-23" target="b_YgQPZzb7EBVGGCqiWG-76" edge="1">
          <mxGeometry relative="1" as="geometry">
            <Array as="points">
              <mxPoint x="1123.4" y="868.8" />
            </Array>
          </mxGeometry>
        </mxCell>
        <mxCell id="W14kpQmKhAgQ3yxK0qM7-23" value="Admin" style="shape=table;startSize=30;container=1;collapsible=0;childLayout=tableLayout;fontSize=20;fontStyle=1;align=center;labelBackgroundColor=none;fillColor=#A9C4EB;strokeWidth=4;rounded=1;" parent="1" vertex="1">
          <mxGeometry x="902.4000000000001" y="1515.8" width="204" height="69" as="geometry" />
        </mxCell>
        <mxCell id="W14kpQmKhAgQ3yxK0qM7-24" value="" style="shape=tableRow;horizontal=0;startSize=0;swimlaneHead=0;swimlaneBody=0;top=0;left=0;bottom=0;right=0;collapsible=0;dropTarget=0;fillColor=#FFCCFF;points=[[0,0.5],[1,0.5]];portConstraint=eastwest;fontSize=20;fontStyle=1;align=left;labelBackgroundColor=none;strokeWidth=4;rounded=1;" parent="W14kpQmKhAgQ3yxK0qM7-23" vertex="1">
          <mxGeometry y="30" width="204" height="39" as="geometry" />
        </mxCell>
        <mxCell id="W14kpQmKhAgQ3yxK0qM7-25" value="UserId" style="shape=partialRectangle;html=1;whiteSpace=wrap;connectable=0;overflow=hidden;top=0;left=0;bottom=0;right=0;pointerEvents=1;fontSize=20;fontStyle=1;align=left;labelBackgroundColor=none;fillColor=#FFCCFF;strokeWidth=4;rounded=1;" parent="W14kpQmKhAgQ3yxK0qM7-24" vertex="1">
          <mxGeometry width="204" height="39" as="geometry">
            <mxRectangle width="204" height="39" as="alternateBounds" />
          </mxGeometry>
        </mxCell>
        <mxCell id="W14kpQmKhAgQ3yxK0qM7-29" style="edgeStyle=orthogonalEdgeStyle;rounded=1;orthogonalLoop=1;jettySize=auto;html=1;exitX=0;exitY=0.5;exitDx=0;exitDy=0;entryX=1;entryY=0.5;entryDx=0;entryDy=0;strokeColor=#457B9D;fontColor=#1D3557;fillColor=#A8DADC;strokeWidth=4;jumpStyle=arc;" parent="1" source="b_YgQPZzb7EBVGGCqiWG-189" target="b_YgQPZzb7EBVGGCqiWG-160" edge="1">
          <mxGeometry relative="1" as="geometry" />
        </mxCell>
        <mxCell id="W14kpQmKhAgQ3yxK0qM7-32" style="edgeStyle=orthogonalEdgeStyle;rounded=1;orthogonalLoop=1;jettySize=auto;html=1;exitX=1;exitY=0.5;exitDx=0;exitDy=0;entryX=0.5;entryY=1;entryDx=0;entryDy=0;strokeColor=#457B9D;fontColor=#1D3557;fillColor=#A8DADC;strokeWidth=4;jumpStyle=arc;" parent="1" source="W14kpQmKhAgQ3yxK0qM7-12" target="b_YgQPZzb7EBVGGCqiWG-93" edge="1">
          <mxGeometry relative="1" as="geometry">
            <Array as="points">
              <mxPoint x="1335" y="2042" />
              <mxPoint x="1335" y="1803" />
              <mxPoint x="1292" y="1803" />
              <mxPoint x="1292" y="1585" />
            </Array>
          </mxGeometry>
        </mxCell>
        <mxCell id="W14kpQmKhAgQ3yxK0qM7-35" style="edgeStyle=orthogonalEdgeStyle;rounded=1;orthogonalLoop=1;jettySize=auto;html=1;exitX=0;exitY=0.5;exitDx=0;exitDy=0;entryX=0.5;entryY=1;entryDx=0;entryDy=0;strokeColor=#10739e;fontColor=#1D3557;fillColor=#b1ddf0;strokeWidth=4;jumpStyle=arc;" parent="1" source="b_YgQPZzb7EBVGGCqiWG-227" target="b_YgQPZzb7EBVGGCqiWG-93" edge="1">
          <mxGeometry relative="1" as="geometry">
            <Array as="points">
              <mxPoint x="936" y="2589" />
              <mxPoint x="936" y="1771" />
              <mxPoint x="1258" y="1771" />
              <mxPoint x="1258" y="1585" />
            </Array>
          </mxGeometry>
        </mxCell>
        <mxCell id="W14kpQmKhAgQ3yxK0qM7-37" style="edgeStyle=orthogonalEdgeStyle;rounded=1;orthogonalLoop=1;jettySize=auto;html=1;exitX=1;exitY=0.5;exitDx=0;exitDy=0;entryX=1;entryY=0.5;entryDx=0;entryDy=0;strokeColor=#457B9D;fontColor=#1D3557;fillColor=#A8DADC;strokeWidth=4;jumpStyle=arc;" parent="1" source="b_YgQPZzb7EBVGGCqiWG-258" target="b_YgQPZzb7EBVGGCqiWG-223" edge="1">
          <mxGeometry relative="1" as="geometry" />
        </mxCell>
        <mxCell id="W14kpQmKhAgQ3yxK0qM7-40" style="edgeStyle=orthogonalEdgeStyle;rounded=1;orthogonalLoop=1;jettySize=auto;html=1;exitX=1;exitY=0.5;exitDx=0;exitDy=0;entryX=0.5;entryY=0;entryDx=0;entryDy=0;strokeColor=#457B9D;fontColor=#1D3557;fillColor=#A8DADC;strokeWidth=4;jumpStyle=arc;" parent="1" source="WPOkwvO6X90YhL0vEpwH-33" target="b_YgQPZzb7EBVGGCqiWG-125" edge="1">
          <mxGeometry relative="1" as="geometry">
            <Array as="points">
              <mxPoint x="1564" y="985" />
              <mxPoint x="1564" y="578" />
              <mxPoint x="1417" y="578" />
            </Array>
          </mxGeometry>
        </mxCell>
        <mxCell id="W14kpQmKhAgQ3yxK0qM7-43" style="edgeStyle=orthogonalEdgeStyle;rounded=1;orthogonalLoop=1;jettySize=auto;html=1;exitX=1;exitY=0.5;exitDx=0;exitDy=0;entryX=0;entryY=0.5;entryDx=0;entryDy=0;strokeColor=#457B9D;fontColor=#1D3557;fillColor=#A8DADC;strokeWidth=4;" parent="1" source="PkPG3WxuKsKkiC19nM9B-12" target="b_YgQPZzb7EBVGGCqiWG-76" edge="1">
          <mxGeometry relative="1" as="geometry">
            <Array as="points">
              <mxPoint x="1157.4" y="685.8" />
              <mxPoint x="1157.4" y="868.8" />
            </Array>
          </mxGeometry>
        </mxCell>
        <mxCell id="W14kpQmKhAgQ3yxK0qM7-44" style="edgeStyle=orthogonalEdgeStyle;rounded=1;orthogonalLoop=1;jettySize=auto;html=1;exitX=1;exitY=0.5;exitDx=0;exitDy=0;entryX=0;entryY=0.5;entryDx=0;entryDy=0;strokeColor=#457B9D;fontColor=#1D3557;fillColor=#A8DADC;strokeWidth=4;" parent="1" source="PkPG3WxuKsKkiC19nM9B-14" target="b_YgQPZzb7EBVGGCqiWG-76" edge="1">
          <mxGeometry relative="1" as="geometry">
            <Array as="points">
              <mxPoint x="1123.4" y="725.8" />
              <mxPoint x="1123.4" y="868.8" />
            </Array>
          </mxGeometry>
        </mxCell>
        <mxCell id="W14kpQmKhAgQ3yxK0qM7-45" style="edgeStyle=orthogonalEdgeStyle;rounded=1;orthogonalLoop=1;jettySize=auto;html=1;exitX=1;exitY=0.5;exitDx=0;exitDy=0;entryX=0;entryY=0.5;entryDx=0;entryDy=0;strokeColor=#457B9D;fontColor=#1D3557;fillColor=#A8DADC;strokeWidth=4;jumpStyle=arc;" parent="1" source="PkPG3WxuKsKkiC19nM9B-182" target="b_YgQPZzb7EBVGGCqiWG-76" edge="1">
          <mxGeometry relative="1" as="geometry">
            <Array as="points">
              <mxPoint x="1055.4" y="1100.8" />
              <mxPoint x="1055.4" y="868.8" />
            </Array>
          </mxGeometry>
        </mxCell>
        <mxCell id="W14kpQmKhAgQ3yxK0qM7-47" style="edgeStyle=orthogonalEdgeStyle;rounded=1;orthogonalLoop=1;jettySize=auto;html=1;exitX=0;exitY=0.5;exitDx=0;exitDy=0;strokeColor=#457B9D;fontColor=#1D3557;fillColor=#A8DADC;strokeWidth=4;" parent="1" source="PkPG3WxuKsKkiC19nM9B-186" target="PkPG3WxuKsKkiC19nM9B-10" edge="1">
          <mxGeometry relative="1" as="geometry" />
        </mxCell>
        <mxCell id="W14kpQmKhAgQ3yxK0qM7-50" style="edgeStyle=orthogonalEdgeStyle;rounded=1;orthogonalLoop=1;jettySize=auto;html=1;exitX=1;exitY=0.5;exitDx=0;exitDy=0;entryX=0;entryY=0.5;entryDx=0;entryDy=0;strokeColor=#457B9D;fontColor=#1D3557;fillColor=#A8DADC;strokeWidth=4;jumpStyle=arc;" parent="1" source="PkPG3WxuKsKkiC19nM9B-186" target="b_YgQPZzb7EBVGGCqiWG-223" edge="1">
          <mxGeometry relative="1" as="geometry">
            <Array as="points">
              <mxPoint x="732.4" y="1138.8" />
              <mxPoint x="732.4" y="2511.8" />
            </Array>
          </mxGeometry>
        </mxCell>
        <mxCell id="W14kpQmKhAgQ3yxK0qM7-53" style="edgeStyle=orthogonalEdgeStyle;rounded=1;orthogonalLoop=1;jettySize=auto;html=1;exitX=1;exitY=0.5;exitDx=0;exitDy=0;entryX=0;entryY=0.5;entryDx=0;entryDy=0;strokeColor=#457B9D;fontColor=#1D3557;fillColor=#A8DADC;strokeWidth=4;jumpStyle=arc;" parent="1" source="PkPG3WxuKsKkiC19nM9B-87" target="b_YgQPZzb7EBVGGCqiWG-76" edge="1">
          <mxGeometry relative="1" as="geometry">
            <Array as="points">
              <mxPoint x="800.4000000000001" y="2131.8" />
              <mxPoint x="800.4000000000001" y="971.8" />
              <mxPoint x="987.4000000000001" y="971.8" />
              <mxPoint x="987.4000000000001" y="868.8" />
            </Array>
          </mxGeometry>
        </mxCell>
        <mxCell id="W14kpQmKhAgQ3yxK0qM7-54" style="edgeStyle=orthogonalEdgeStyle;rounded=1;orthogonalLoop=1;jettySize=auto;html=1;exitX=1;exitY=0.5;exitDx=0;exitDy=0;entryX=0;entryY=0.5;entryDx=0;entryDy=0;strokeColor=#457B9D;fontColor=#1D3557;fillColor=#A8DADC;strokeWidth=4;jumpStyle=arc;" parent="1" source="PkPG3WxuKsKkiC19nM9B-95" target="b_YgQPZzb7EBVGGCqiWG-76" edge="1">
          <mxGeometry relative="1" as="geometry">
            <Array as="points">
              <mxPoint x="845.4000000000001" y="2170.8" />
              <mxPoint x="845.4000000000001" y="1005.8" />
              <mxPoint x="1021.4000000000001" y="1005.8" />
              <mxPoint x="1021.4000000000001" y="868.8" />
            </Array>
          </mxGeometry>
        </mxCell>
        <mxCell id="W14kpQmKhAgQ3yxK0qM7-55" style="edgeStyle=orthogonalEdgeStyle;rounded=1;orthogonalLoop=1;jettySize=auto;html=1;exitX=1;exitY=0.5;exitDx=0;exitDy=0;entryX=0;entryY=0.5;entryDx=0;entryDy=0;strokeColor=#457B9D;fontColor=#1D3557;fillColor=#A8DADC;strokeWidth=4;jumpStyle=arc;" parent="1" source="PkPG3WxuKsKkiC19nM9B-95" target="b_YgQPZzb7EBVGGCqiWG-160" edge="1">
          <mxGeometry relative="1" as="geometry">
            <Array as="points">
              <mxPoint x="850" y="2170" />
              <mxPoint x="850" y="2364" />
            </Array>
          </mxGeometry>
        </mxCell>
        <mxCell id="W14kpQmKhAgQ3yxK0qM7-70" style="edgeStyle=orthogonalEdgeStyle;rounded=1;orthogonalLoop=1;jettySize=auto;html=1;exitX=0;exitY=0.5;exitDx=0;exitDy=0;strokeColor=#457B9D;fontColor=#1D3557;fillColor=#A8DADC;strokeWidth=4;" parent="1" source="PkPG3WxuKsKkiC19nM9B-95" target="PkPG3WxuKsKkiC19nM9B-54" edge="1">
          <mxGeometry relative="1" as="geometry" />
        </mxCell>
        <mxCell id="W14kpQmKhAgQ3yxK0qM7-72" style="edgeStyle=orthogonalEdgeStyle;rounded=1;orthogonalLoop=1;jettySize=auto;html=1;exitX=0;exitY=0.5;exitDx=0;exitDy=0;entryX=0;entryY=0.5;entryDx=0;entryDy=0;strokeColor=#457B9D;fontColor=#1D3557;fillColor=#A8DADC;strokeWidth=4;" parent="1" target="PkPG3WxuKsKkiC19nM9B-54" edge="1">
          <mxGeometry relative="1" as="geometry">
            <mxPoint x="239.4000000000001" y="2840.3" as="sourcePoint" />
          </mxGeometry>
        </mxCell>
        <mxCell id="W14kpQmKhAgQ3yxK0qM7-73" style="edgeStyle=orthogonalEdgeStyle;rounded=1;orthogonalLoop=1;jettySize=auto;html=1;exitX=1;exitY=0.5;exitDx=0;exitDy=0;entryX=0;entryY=0.25;entryDx=0;entryDy=0;strokeColor=#457B9D;fontColor=#1D3557;fillColor=#A8DADC;strokeWidth=4;" parent="1" source="PkPG3WxuKsKkiC19nM9B-56" target="b_YgQPZzb7EBVGGCqiWG-255" edge="1">
          <mxGeometry relative="1" as="geometry">
            <Array as="points">
              <mxPoint x="748" y="3236" />
              <mxPoint x="748" y="3072" />
            </Array>
          </mxGeometry>
        </mxCell>
        <mxCell id="eTfC0ya8DMxi_Y5TJulB-1" style="edgeStyle=orthogonalEdgeStyle;rounded=1;orthogonalLoop=1;jettySize=auto;html=1;exitX=1;exitY=0.5;exitDx=0;exitDy=0;entryX=0.5;entryY=1;entryDx=0;entryDy=0;strokeWidth=4;fillColor=#b0e3e6;strokeColor=#457b9d;jumpStyle=arc;" parent="1" source="b_YgQPZzb7EBVGGCqiWG-162" target="b_YgQPZzb7EBVGGCqiWG-115" edge="1">
          <mxGeometry relative="1" as="geometry">
            <Array as="points">
              <mxPoint x="1632" y="2403" />
              <mxPoint x="1632" y="1983" />
              <mxPoint x="1518" y="1983" />
            </Array>
          </mxGeometry>
        </mxCell>
        <mxCell id="eTfC0ya8DMxi_Y5TJulB-2" style="edgeStyle=orthogonalEdgeStyle;rounded=1;orthogonalLoop=1;jettySize=auto;html=1;exitX=1;exitY=0.5;exitDx=0;exitDy=0;entryX=0.5;entryY=1;entryDx=0;entryDy=0;strokeWidth=4;fillColor=#b1ddf0;strokeColor=#10739e;jumpStyle=arc;" parent="1" source="W14kpQmKhAgQ3yxK0qM7-63" target="b_YgQPZzb7EBVGGCqiWG-115" edge="1">
          <mxGeometry relative="1" as="geometry">
            <Array as="points">
              <mxPoint x="816" y="2879" />
              <mxPoint x="816" y="1717" />
              <mxPoint x="1517" y="1717" />
            </Array>
          </mxGeometry>
        </mxCell>
        <mxCell id="eTfC0ya8DMxi_Y5TJulB-3" style="edgeStyle=orthogonalEdgeStyle;rounded=1;orthogonalLoop=1;jettySize=auto;html=1;exitX=0;exitY=0.5;exitDx=0;exitDy=0;entryX=0.25;entryY=1;entryDx=0;entryDy=0;strokeWidth=4;fillColor=#b1ddf0;strokeColor=#10739e;jumpStyle=arc;" parent="1" source="W14kpQmKhAgQ3yxK0qM7-68" target="b_YgQPZzb7EBVGGCqiWG-93" edge="1">
          <mxGeometry relative="1" as="geometry">
            <Array as="points">
              <mxPoint x="204" y="2879" />
              <mxPoint x="204" y="2533" />
              <mxPoint x="408" y="2533" />
              <mxPoint x="408" y="2222" />
              <mxPoint x="901" y="2222" />
              <mxPoint x="901" y="1683" />
              <mxPoint x="1228" y="1683" />
            </Array>
          </mxGeometry>
        </mxCell>
        <mxCell id="Kv3ytvrTS9uMGBVqegZB-1" style="edgeStyle=orthogonalEdgeStyle;rounded=1;orthogonalLoop=1;jettySize=auto;html=1;exitX=0;exitY=0.5;exitDx=0;exitDy=0;strokeWidth=4;fillColor=#b1ddf0;strokeColor=#10739e;jumpStyle=arc;" parent="1" source="PkPG3WxuKsKkiC19nM9B-95" target="PkPG3WxuKsKkiC19nM9B-10" edge="1">
          <mxGeometry relative="1" as="geometry">
            <Array as="points">
              <mxPoint x="119" y="2170" />
              <mxPoint x="119" y="647" />
            </Array>
          </mxGeometry>
        </mxCell>
        <mxCell id="Kmz9HQtDaQyBAlWA55V5-1" style="edgeStyle=orthogonalEdgeStyle;rounded=1;orthogonalLoop=1;jettySize=auto;html=1;exitX=0;exitY=0.5;exitDx=0;exitDy=0;entryX=0;entryY=0.5;entryDx=0;entryDy=0;strokeColor=#457B9D;fontColor=#1D3557;fillColor=#A8DADC;strokeWidth=4;jumpStyle=arc;" parent="1" source="PkPG3WxuKsKkiC19nM9B-186" target="PkPG3WxuKsKkiC19nM9B-54" edge="1">
          <mxGeometry relative="1" as="geometry">
            <Array as="points">
              <mxPoint x="85" y="1139" />
              <mxPoint x="85" y="3197" />
            </Array>
          </mxGeometry>
        </mxCell>
        <mxCell id="0fzRSQPY-SoWT4IcMq6x-5" value="" style="endArrow=open;endFill=1;endSize=12;html=1;rounded=0;strokeColor=#457b9d;strokeWidth=4;exitX=0.431;exitY=0.997;exitDx=0;exitDy=0;exitPerimeter=0;entryX=0.5;entryY=0;entryDx=0;entryDy=0;edgeStyle=orthogonalEdgeStyle;" parent="1" source="PkPG3WxuKsKkiC19nM9B-74" target="PkPG3WxuKsKkiC19nM9B-53" edge="1">
          <mxGeometry width="160" relative="1" as="geometry">
            <mxPoint x="714" y="2958" as="sourcePoint" />
            <mxPoint x="874" y="2958" as="targetPoint" />
            <Array as="points">
              <mxPoint x="565" y="2958" />
              <mxPoint x="565" y="2958" />
              <mxPoint x="565" y="3026" />
              <mxPoint x="477" y="3026" />
            </Array>
          </mxGeometry>
        </mxCell>
        <mxCell id="0fzRSQPY-SoWT4IcMq6x-6" value="" style="endArrow=open;endFill=1;endSize=12;html=1;rounded=0;strokeColor=#457b9d;strokeWidth=4;exitX=0.514;exitY=1.065;exitDx=0;exitDy=0;exitPerimeter=0;edgeStyle=orthogonalEdgeStyle;entryX=0.5;entryY=0;entryDx=0;entryDy=0;" parent="1" source="PkPG3WxuKsKkiC19nM9B-76" target="PkPG3WxuKsKkiC19nM9B-53" edge="1">
          <mxGeometry width="160" relative="1" as="geometry">
            <mxPoint x="582" y="2916" as="sourcePoint" />
            <mxPoint x="476" y="3145" as="targetPoint" />
            <Array as="points">
              <mxPoint x="341" y="2901" />
              <mxPoint x="341" y="3026" />
              <mxPoint x="476" y="3026" />
              <mxPoint x="476" y="3145" />
              <mxPoint x="477" y="3145" />
            </Array>
          </mxGeometry>
        </mxCell>
        <mxCell id="CjuFXL-HoM3eAUFVXLad-14" value="StripeAccounts" style="shape=table;startSize=30;container=1;collapsible=0;childLayout=tableLayout;fontSize=20;fontStyle=1;align=center;labelBackgroundColor=none;fillColor=#A9C4EB;strokeWidth=4;rounded=1;" parent="1" vertex="1">
          <mxGeometry x="1803.3999999999999" y="597.8" width="203.99999999999955" height="108" as="geometry" />
        </mxCell>
        <mxCell id="CjuFXL-HoM3eAUFVXLad-15" style="shape=tableRow;horizontal=0;startSize=0;swimlaneHead=0;swimlaneBody=0;top=0;left=0;bottom=0;right=0;collapsible=0;dropTarget=0;fillColor=none;points=[[0,0.5],[1,0.5]];portConstraint=eastwest;fontSize=20;fontStyle=1;align=left;labelBackgroundColor=none;strokeWidth=4;rounded=1;" parent="CjuFXL-HoM3eAUFVXLad-14" vertex="1">
          <mxGeometry y="30" width="203.99999999999955" height="39" as="geometry" />
        </mxCell>
        <mxCell id="CjuFXL-HoM3eAUFVXLad-16" value="StripeAccountId" style="shape=partialRectangle;html=1;whiteSpace=wrap;connectable=0;overflow=hidden;top=0;left=0;bottom=0;right=0;pointerEvents=1;fontSize=20;fontStyle=1;align=left;labelBackgroundColor=none;fillColor=#F1FAFF;strokeWidth=4;rounded=1;" parent="CjuFXL-HoM3eAUFVXLad-15" vertex="1">
          <mxGeometry width="204" height="39" as="geometry">
            <mxRectangle width="204" height="39" as="alternateBounds" />
          </mxGeometry>
        </mxCell>
        <mxCell id="CjuFXL-HoM3eAUFVXLad-17" style="shape=tableRow;horizontal=0;startSize=0;swimlaneHead=0;swimlaneBody=0;top=0;left=0;bottom=0;right=0;collapsible=0;dropTarget=0;fillColor=none;points=[[0,0.5],[1,0.5]];portConstraint=eastwest;fontSize=20;fontStyle=1;align=left;labelBackgroundColor=none;strokeWidth=4;rounded=1;" parent="CjuFXL-HoM3eAUFVXLad-14" vertex="1">
          <mxGeometry y="69" width="203.99999999999955" height="39" as="geometry" />
        </mxCell>
        <mxCell id="CjuFXL-HoM3eAUFVXLad-18" value="CreatedAt" style="shape=partialRectangle;html=1;whiteSpace=wrap;connectable=0;overflow=hidden;top=0;left=0;bottom=0;right=0;pointerEvents=1;fontSize=20;fontStyle=1;align=left;labelBackgroundColor=none;fillColor=none;strokeWidth=4;rounded=1;" parent="CjuFXL-HoM3eAUFVXLad-17" vertex="1">
          <mxGeometry width="204" height="39" as="geometry">
            <mxRectangle width="204" height="39" as="alternateBounds" />
          </mxGeometry>
        </mxCell>
        <mxCell id="CjuFXL-HoM3eAUFVXLad-23" style="edgeStyle=orthogonalEdgeStyle;rounded=1;orthogonalLoop=1;jettySize=auto;html=1;strokeColor=#457B9D;fontColor=#1D3557;fillColor=#A8DADC;strokeWidth=4;jumpStyle=arc;exitX=1;exitY=0.75;exitDx=0;exitDy=0;" parent="1" source="b_YgQPZzb7EBVGGCqiWG-115" target="CjuFXL-HoM3eAUFVXLad-17" edge="1">
          <mxGeometry relative="1" as="geometry">
            <Array as="points">
              <mxPoint x="1905" y="1591" />
            </Array>
            <mxPoint x="1740" y="1520" as="sourcePoint" />
            <mxPoint x="1752.4" y="800" as="targetPoint" />
          </mxGeometry>
        </mxCell>
      </root>
    </mxGraphModel>
  </diagram>
</mxfile>
